%TF.GenerationSoftware,KiCad,Pcbnew,9.0.1*%
%TF.CreationDate,2025-04-04T14:44:14+02:00*%
%TF.ProjectId,stm32_red_pill,73746d33-325f-4726-9564-5f70696c6c2e,rev?*%
%TF.SameCoordinates,Original*%
%TF.FileFunction,Paste,Top*%
%TF.FilePolarity,Positive*%
%FSLAX46Y46*%
G04 Gerber Fmt 4.6, Leading zero omitted, Abs format (unit mm)*
G04 Created by KiCad (PCBNEW 9.0.1) date 2025-04-04 14:44:14*
%MOMM*%
%LPD*%
G01*
G04 APERTURE LIST*
G04 Aperture macros list*
%AMRoundRect*
0 Rectangle with rounded corners*
0 $1 Rounding radius*
0 $2 $3 $4 $5 $6 $7 $8 $9 X,Y pos of 4 corners*
0 Add a 4 corners polygon primitive as box body*
4,1,4,$2,$3,$4,$5,$6,$7,$8,$9,$2,$3,0*
0 Add four circle primitives for the rounded corners*
1,1,$1+$1,$2,$3*
1,1,$1+$1,$4,$5*
1,1,$1+$1,$6,$7*
1,1,$1+$1,$8,$9*
0 Add four rect primitives between the rounded corners*
20,1,$1+$1,$2,$3,$4,$5,0*
20,1,$1+$1,$4,$5,$6,$7,0*
20,1,$1+$1,$6,$7,$8,$9,0*
20,1,$1+$1,$8,$9,$2,$3,0*%
G04 Aperture macros list end*
%ADD10RoundRect,0.135000X-0.185000X0.135000X-0.185000X-0.135000X0.185000X-0.135000X0.185000X0.135000X0*%
%ADD11RoundRect,0.225000X-0.335876X-0.017678X-0.017678X-0.335876X0.335876X0.017678X0.017678X0.335876X0*%
%ADD12RoundRect,0.140000X0.140000X0.170000X-0.140000X0.170000X-0.140000X-0.170000X0.140000X-0.170000X0*%
%ADD13RoundRect,0.075000X-0.521491X0.415425X0.415425X-0.521491X0.521491X-0.415425X-0.415425X0.521491X0*%
%ADD14RoundRect,0.075000X-0.521491X-0.415425X-0.415425X-0.521491X0.521491X0.415425X0.415425X0.521491X0*%
%ADD15R,1.300000X0.450000*%
%ADD16RoundRect,0.140000X0.170000X-0.140000X0.170000X0.140000X-0.170000X0.140000X-0.170000X-0.140000X0*%
%ADD17R,0.800000X1.000000*%
%ADD18R,1.500000X0.700000*%
%ADD19RoundRect,0.140000X-0.219203X-0.021213X-0.021213X-0.219203X0.219203X0.021213X0.021213X0.219203X0*%
%ADD20RoundRect,0.140000X0.219203X0.021213X0.021213X0.219203X-0.219203X-0.021213X-0.021213X-0.219203X0*%
%ADD21RoundRect,0.135000X-0.035355X0.226274X-0.226274X0.035355X0.035355X-0.226274X0.226274X-0.035355X0*%
%ADD22RoundRect,0.375000X0.375000X-0.625000X0.375000X0.625000X-0.375000X0.625000X-0.375000X-0.625000X0*%
%ADD23RoundRect,0.500000X1.400000X-0.500000X1.400000X0.500000X-1.400000X0.500000X-1.400000X-0.500000X0*%
%ADD24RoundRect,0.218750X-0.256250X0.218750X-0.256250X-0.218750X0.256250X-0.218750X0.256250X0.218750X0*%
%ADD25RoundRect,0.135000X0.135000X0.185000X-0.135000X0.185000X-0.135000X-0.185000X0.135000X-0.185000X0*%
%ADD26RoundRect,0.140000X-0.021213X0.219203X-0.219203X0.021213X0.021213X-0.219203X0.219203X-0.021213X0*%
%ADD27RoundRect,0.250000X-0.475000X0.250000X-0.475000X-0.250000X0.475000X-0.250000X0.475000X0.250000X0*%
%ADD28RoundRect,0.250000X0.250000X0.475000X-0.250000X0.475000X-0.250000X-0.475000X0.250000X-0.475000X0*%
%ADD29R,1.200000X1.400000*%
%ADD30RoundRect,0.218750X0.335876X0.026517X0.026517X0.335876X-0.335876X-0.026517X-0.026517X-0.335876X0*%
%ADD31RoundRect,0.140000X0.021213X-0.219203X0.219203X-0.021213X-0.021213X0.219203X-0.219203X0.021213X0*%
G04 APERTURE END LIST*
D10*
%TO.C,R2*%
X123700000Y-105240001D03*
X123700000Y-106259999D03*
%TD*%
D11*
%TO.C,C5*%
X111923241Y-94483901D03*
X113019257Y-95579917D03*
%TD*%
D12*
%TO.C,C7*%
X97880000Y-102112499D03*
X96920000Y-102112499D03*
%TD*%
D13*
%TO.C,U1*%
X107951212Y-97262124D03*
X107597658Y-97615678D03*
X107244105Y-97969231D03*
X106890551Y-98322785D03*
X106536998Y-98676338D03*
X106183445Y-99029891D03*
X105829891Y-99383445D03*
X105476338Y-99736998D03*
X105122785Y-100090551D03*
X104769231Y-100444105D03*
X104415678Y-100797658D03*
X104062124Y-101151212D03*
D14*
X104062124Y-103148788D03*
X104415678Y-103502342D03*
X104769231Y-103855895D03*
X105122785Y-104209449D03*
X105476338Y-104563002D03*
X105829891Y-104916555D03*
X106183445Y-105270109D03*
X106536998Y-105623662D03*
X106890551Y-105977215D03*
X107244105Y-106330769D03*
X107597658Y-106684322D03*
X107951212Y-107037876D03*
D13*
X109948788Y-107037876D03*
X110302342Y-106684322D03*
X110655895Y-106330769D03*
X111009449Y-105977215D03*
X111363002Y-105623662D03*
X111716555Y-105270109D03*
X112070109Y-104916555D03*
X112423662Y-104563002D03*
X112777215Y-104209449D03*
X113130769Y-103855895D03*
X113484322Y-103502342D03*
X113837876Y-103148788D03*
D14*
X113837876Y-101151212D03*
X113484322Y-100797658D03*
X113130769Y-100444105D03*
X112777215Y-100090551D03*
X112423662Y-99736998D03*
X112070109Y-99383445D03*
X111716555Y-99029891D03*
X111363002Y-98676338D03*
X111009449Y-98322785D03*
X110655895Y-97969231D03*
X110302342Y-97615678D03*
X109948788Y-97262124D03*
%TD*%
D15*
%TO.C,J1*%
X133095000Y-107555000D03*
X133095000Y-106905000D03*
X133095000Y-106255000D03*
X133095000Y-105605000D03*
X133095000Y-104955000D03*
%TD*%
D16*
%TO.C,C11*%
X98950000Y-96660000D03*
X98950000Y-95700000D03*
%TD*%
D17*
%TO.C,SW1*%
X135595000Y-100000000D03*
X137805000Y-100000000D03*
X135595000Y-92700000D03*
X137805000Y-92700000D03*
D18*
X134945000Y-98600000D03*
X134945000Y-95600000D03*
X134945000Y-94100000D03*
%TD*%
D12*
%TO.C,C9*%
X102690589Y-102089411D03*
X101730589Y-102089411D03*
%TD*%
D19*
%TO.C,C2*%
X111071178Y-95753158D03*
X111750000Y-96431980D03*
%TD*%
D20*
%TO.C,C4*%
X107000000Y-108378822D03*
X106321178Y-107700000D03*
%TD*%
D16*
%TO.C,C10*%
X98950000Y-94640000D03*
X98950000Y-93680000D03*
%TD*%
D21*
%TO.C,R3*%
X118410624Y-103139376D03*
X117689376Y-103860624D03*
%TD*%
D22*
%TO.C,U2*%
X124200000Y-99150000D03*
X126500000Y-99149999D03*
D23*
X126500000Y-92850001D03*
D22*
X128800000Y-99150000D03*
%TD*%
D24*
%TO.C,FB1*%
X97900000Y-103512499D03*
X97900000Y-105087501D03*
%TD*%
D25*
%TO.C,R1*%
X133409999Y-95650000D03*
X132390001Y-95650000D03*
%TD*%
D26*
%TO.C,C3*%
X115550000Y-103950000D03*
X114871178Y-104628822D03*
%TD*%
D27*
%TO.C,C12*%
X121650000Y-95050001D03*
X121650000Y-96949999D03*
%TD*%
D28*
%TO.C,C13*%
X127449999Y-101900000D03*
X125550001Y-101900000D03*
%TD*%
D29*
%TO.C,Y1*%
X95600000Y-93840000D03*
X95600000Y-96040000D03*
X97300000Y-96040000D03*
X97300000Y-93840000D03*
%TD*%
D30*
%TO.C,D1*%
X119556847Y-102206847D03*
X118443153Y-101093153D03*
%TD*%
D31*
%TO.C,C1*%
X107071178Y-95928822D03*
X107750000Y-95250000D03*
%TD*%
%TO.C,C6*%
X103671178Y-98828822D03*
X104350000Y-98150000D03*
%TD*%
D12*
%TO.C,C8*%
X97880000Y-106662499D03*
X96920000Y-106662499D03*
%TD*%
M02*
