%TF.GenerationSoftware,KiCad,Pcbnew,8.0.8*%
%TF.CreationDate,2025-03-25T21:44:27+01:00*%
%TF.ProjectId,stm32_red_pill,73746d33-325f-4726-9564-5f70696c6c2e,rev?*%
%TF.SameCoordinates,Original*%
%TF.FileFunction,Copper,L1,Top*%
%TF.FilePolarity,Positive*%
%FSLAX46Y46*%
G04 Gerber Fmt 4.6, Leading zero omitted, Abs format (unit mm)*
G04 Created by KiCad (PCBNEW 8.0.8) date 2025-03-25 21:44:27*
%MOMM*%
%LPD*%
G01*
G04 APERTURE LIST*
G04 Aperture macros list*
%AMRoundRect*
0 Rectangle with rounded corners*
0 $1 Rounding radius*
0 $2 $3 $4 $5 $6 $7 $8 $9 X,Y pos of 4 corners*
0 Add a 4 corners polygon primitive as box body*
4,1,4,$2,$3,$4,$5,$6,$7,$8,$9,$2,$3,0*
0 Add four circle primitives for the rounded corners*
1,1,$1+$1,$2,$3*
1,1,$1+$1,$4,$5*
1,1,$1+$1,$6,$7*
1,1,$1+$1,$8,$9*
0 Add four rect primitives between the rounded corners*
20,1,$1+$1,$2,$3,$4,$5,0*
20,1,$1+$1,$4,$5,$6,$7,0*
20,1,$1+$1,$6,$7,$8,$9,0*
20,1,$1+$1,$8,$9,$2,$3,0*%
G04 Aperture macros list end*
%TA.AperFunction,SMDPad,CuDef*%
%ADD10RoundRect,0.135000X-0.185000X0.135000X-0.185000X-0.135000X0.185000X-0.135000X0.185000X0.135000X0*%
%TD*%
%TA.AperFunction,SMDPad,CuDef*%
%ADD11RoundRect,0.225000X-0.335876X-0.017678X-0.017678X-0.335876X0.335876X0.017678X0.017678X0.335876X0*%
%TD*%
%TA.AperFunction,SMDPad,CuDef*%
%ADD12RoundRect,0.140000X-0.170000X0.140000X-0.170000X-0.140000X0.170000X-0.140000X0.170000X0.140000X0*%
%TD*%
%TA.AperFunction,ComponentPad*%
%ADD13O,1.700000X1.700000*%
%TD*%
%TA.AperFunction,ComponentPad*%
%ADD14R,1.700000X1.700000*%
%TD*%
%TA.AperFunction,SMDPad,CuDef*%
%ADD15RoundRect,0.075000X-0.521491X-0.415425X-0.415425X-0.521491X0.521491X0.415425X0.415425X0.521491X0*%
%TD*%
%TA.AperFunction,SMDPad,CuDef*%
%ADD16RoundRect,0.075000X-0.521491X0.415425X0.415425X-0.521491X0.521491X-0.415425X-0.415425X0.521491X0*%
%TD*%
%TA.AperFunction,SMDPad,CuDef*%
%ADD17R,1.300000X0.450000*%
%TD*%
%TA.AperFunction,HeatsinkPad*%
%ADD18O,1.800000X1.150000*%
%TD*%
%TA.AperFunction,HeatsinkPad*%
%ADD19O,2.000000X1.450000*%
%TD*%
%TA.AperFunction,SMDPad,CuDef*%
%ADD20RoundRect,0.140000X0.170000X-0.140000X0.170000X0.140000X-0.170000X0.140000X-0.170000X-0.140000X0*%
%TD*%
%TA.AperFunction,SMDPad,CuDef*%
%ADD21R,0.800000X1.000000*%
%TD*%
%TA.AperFunction,SMDPad,CuDef*%
%ADD22R,1.500000X0.700000*%
%TD*%
%TA.AperFunction,SMDPad,CuDef*%
%ADD23RoundRect,0.140000X-0.219203X-0.021213X-0.021213X-0.219203X0.219203X0.021213X0.021213X0.219203X0*%
%TD*%
%TA.AperFunction,SMDPad,CuDef*%
%ADD24RoundRect,0.140000X0.219203X0.021213X0.021213X0.219203X-0.219203X-0.021213X-0.021213X-0.219203X0*%
%TD*%
%TA.AperFunction,SMDPad,CuDef*%
%ADD25RoundRect,0.135000X0.135000X0.185000X-0.135000X0.185000X-0.135000X-0.185000X0.135000X-0.185000X0*%
%TD*%
%TA.AperFunction,SMDPad,CuDef*%
%ADD26RoundRect,0.375000X0.375000X-0.625000X0.375000X0.625000X-0.375000X0.625000X-0.375000X-0.625000X0*%
%TD*%
%TA.AperFunction,SMDPad,CuDef*%
%ADD27RoundRect,0.500000X1.400000X-0.500000X1.400000X0.500000X-1.400000X0.500000X-1.400000X-0.500000X0*%
%TD*%
%TA.AperFunction,SMDPad,CuDef*%
%ADD28RoundRect,0.218750X-0.218750X-0.256250X0.218750X-0.256250X0.218750X0.256250X-0.218750X0.256250X0*%
%TD*%
%TA.AperFunction,SMDPad,CuDef*%
%ADD29RoundRect,0.135000X-0.135000X-0.185000X0.135000X-0.185000X0.135000X0.185000X-0.135000X0.185000X0*%
%TD*%
%TA.AperFunction,SMDPad,CuDef*%
%ADD30RoundRect,0.140000X-0.021213X0.219203X-0.219203X0.021213X0.021213X-0.219203X0.219203X-0.021213X0*%
%TD*%
%TA.AperFunction,SMDPad,CuDef*%
%ADD31RoundRect,0.250000X-0.475000X0.250000X-0.475000X-0.250000X0.475000X-0.250000X0.475000X0.250000X0*%
%TD*%
%TA.AperFunction,SMDPad,CuDef*%
%ADD32RoundRect,0.250000X0.250000X0.475000X-0.250000X0.475000X-0.250000X-0.475000X0.250000X-0.475000X0*%
%TD*%
%TA.AperFunction,SMDPad,CuDef*%
%ADD33R,1.200000X1.400000*%
%TD*%
%TA.AperFunction,SMDPad,CuDef*%
%ADD34RoundRect,0.218750X0.256250X-0.218750X0.256250X0.218750X-0.256250X0.218750X-0.256250X-0.218750X0*%
%TD*%
%TA.AperFunction,SMDPad,CuDef*%
%ADD35RoundRect,0.140000X0.021213X-0.219203X0.219203X-0.021213X-0.021213X0.219203X-0.219203X0.021213X0*%
%TD*%
%TA.AperFunction,ViaPad*%
%ADD36C,0.700000*%
%TD*%
%TA.AperFunction,Conductor*%
%ADD37C,0.300000*%
%TD*%
%TA.AperFunction,Conductor*%
%ADD38C,0.500000*%
%TD*%
%TA.AperFunction,Conductor*%
%ADD39C,0.200000*%
%TD*%
G04 APERTURE END LIST*
D10*
%TO.P,R2,1*%
%TO.N,+3.3V*%
X129300000Y-104955000D03*
%TO.P,R2,2*%
%TO.N,/USB_D+*%
X129300000Y-105975000D03*
%TD*%
D11*
%TO.P,C5,2*%
%TO.N,GND*%
X116908668Y-95790506D03*
%TO.P,C5,1*%
%TO.N,+3.3V*%
X115812652Y-94694490D03*
%TD*%
D12*
%TO.P,C7,1*%
%TO.N,+3.3VA*%
X101239410Y-105080588D03*
%TO.P,C7,2*%
%TO.N,GND*%
X101239410Y-106040588D03*
%TD*%
D13*
%TO.P,J2,18,Pin_18*%
%TO.N,VBUS*%
X131080000Y-89000000D03*
%TO.P,J2,17,Pin_17*%
%TO.N,GND*%
X128540000Y-89000000D03*
%TO.P,J2,16,Pin_16*%
%TO.N,+3.3V*%
X126000000Y-89000000D03*
%TO.P,J2,15,Pin_15*%
%TO.N,/PA14*%
X123460000Y-89000000D03*
%TO.P,J2,14,Pin_14*%
%TO.N,/PA15*%
X120920000Y-89000000D03*
%TO.P,J2,13,Pin_13*%
%TO.N,/PB3*%
X118380000Y-89000000D03*
%TO.P,J2,12,Pin_12*%
%TO.N,/PB4*%
X115840000Y-89000000D03*
%TO.P,J2,11,Pin_11*%
%TO.N,/PB5*%
X113300000Y-89000000D03*
%TO.P,J2,10,Pin_10*%
%TO.N,/PB6*%
X110760000Y-89000000D03*
%TO.P,J2,9,Pin_9*%
%TO.N,/PB7*%
X108220000Y-89000000D03*
%TO.P,J2,8,Pin_8*%
%TO.N,/PB8*%
X105680000Y-89000000D03*
%TO.P,J2,7,Pin_7*%
%TO.N,/PB9*%
X103140000Y-89000000D03*
%TO.P,J2,6,Pin_6*%
%TO.N,/PC13*%
X100600000Y-89000000D03*
%TO.P,J2,5,Pin_5*%
%TO.N,/PC14*%
X98060000Y-89000000D03*
%TO.P,J2,4,Pin_4*%
%TO.N,/PC15*%
X95520000Y-89000000D03*
%TO.P,J2,3,Pin_3*%
%TO.N,/PA0*%
X92980000Y-89000000D03*
%TO.P,J2,2,Pin_2*%
%TO.N,/PA1*%
X90440000Y-89000000D03*
D14*
%TO.P,J2,1,Pin_1*%
%TO.N,/PA2*%
X87900000Y-89000000D03*
%TD*%
D15*
%TO.P,U1,48,VDD*%
%TO.N,+3.3V*%
X113838199Y-97472713D03*
%TO.P,U1,47,VSS*%
%TO.N,GND*%
X114191753Y-97826267D03*
%TO.P,U1,46,PB9*%
%TO.N,/PB9*%
X114545306Y-98179820D03*
%TO.P,U1,45,PB8*%
%TO.N,/PB8*%
X114898860Y-98533374D03*
%TO.P,U1,44,BOOT0*%
%TO.N,/BOOT0*%
X115252413Y-98886927D03*
%TO.P,U1,43,PB7*%
%TO.N,/PB7*%
X115605966Y-99240480D03*
%TO.P,U1,42,PB6*%
%TO.N,/PB6*%
X115959520Y-99594034D03*
%TO.P,U1,41,PB5*%
%TO.N,/PB5*%
X116313073Y-99947587D03*
%TO.P,U1,40,PB4*%
%TO.N,/PB4*%
X116666626Y-100301140D03*
%TO.P,U1,39,PB3*%
%TO.N,/PB3*%
X117020180Y-100654694D03*
%TO.P,U1,38,PA15*%
%TO.N,/PA15*%
X117373733Y-101008247D03*
%TO.P,U1,37,PA14*%
%TO.N,/PA14*%
X117727287Y-101361801D03*
D16*
%TO.P,U1,36,VDD*%
%TO.N,+3.3V*%
X117727287Y-103359377D03*
%TO.P,U1,35,VSS*%
%TO.N,GND*%
X117373733Y-103712931D03*
%TO.P,U1,34,PA13*%
%TO.N,/PA13*%
X117020180Y-104066484D03*
%TO.P,U1,33,PA12*%
%TO.N,/USB_D+*%
X116666626Y-104420038D03*
%TO.P,U1,32,PA11*%
%TO.N,/USB_D-*%
X116313073Y-104773591D03*
%TO.P,U1,31,PA10*%
%TO.N,/PA10*%
X115959520Y-105127144D03*
%TO.P,U1,30,PA9*%
%TO.N,/PA9*%
X115605966Y-105480698D03*
%TO.P,U1,29,PA8*%
%TO.N,/PA8*%
X115252413Y-105834251D03*
%TO.P,U1,28,PB15*%
%TO.N,/PB15*%
X114898860Y-106187804D03*
%TO.P,U1,27,PB14*%
%TO.N,/PB14*%
X114545306Y-106541358D03*
%TO.P,U1,26,PB13*%
%TO.N,/PB13*%
X114191753Y-106894911D03*
%TO.P,U1,25,PB12*%
%TO.N,/PB12*%
X113838199Y-107248465D03*
D15*
%TO.P,U1,24,VDD*%
%TO.N,+3.3V*%
X111840623Y-107248465D03*
%TO.P,U1,23,VSS*%
%TO.N,GND*%
X111487069Y-106894911D03*
%TO.P,U1,22,PB11*%
%TO.N,/PB11*%
X111133516Y-106541358D03*
%TO.P,U1,21,PB10*%
%TO.N,/PB10*%
X110779962Y-106187804D03*
%TO.P,U1,20,PB2*%
%TO.N,/PB2*%
X110426409Y-105834251D03*
%TO.P,U1,19,PB1*%
%TO.N,/PB1*%
X110072856Y-105480698D03*
%TO.P,U1,18,PB0*%
%TO.N,/PB0*%
X109719302Y-105127144D03*
%TO.P,U1,17,PA7*%
%TO.N,/PA7*%
X109365749Y-104773591D03*
%TO.P,U1,16,PA6*%
%TO.N,/PA6*%
X109012196Y-104420038D03*
%TO.P,U1,15,PA5*%
%TO.N,/PA5*%
X108658642Y-104066484D03*
%TO.P,U1,14,PA4*%
%TO.N,/PA4*%
X108305089Y-103712931D03*
%TO.P,U1,13,PA3*%
%TO.N,/PA3*%
X107951535Y-103359377D03*
D16*
%TO.P,U1,12,PA2*%
%TO.N,/PA2*%
X107951535Y-101361801D03*
%TO.P,U1,11,PA1*%
%TO.N,/PA1*%
X108305089Y-101008247D03*
%TO.P,U1,10,PA0*%
%TO.N,/PA0*%
X108658642Y-100654694D03*
%TO.P,U1,9,VDDA*%
%TO.N,+3.3VA*%
X109012196Y-100301140D03*
%TO.P,U1,8,VSSA*%
%TO.N,GND*%
X109365749Y-99947587D03*
%TO.P,U1,7,NRST*%
%TO.N,/NRST*%
X109719302Y-99594034D03*
%TO.P,U1,6,PD1*%
%TO.N,/HSE_OUT*%
X110072856Y-99240480D03*
%TO.P,U1,5,PD0*%
%TO.N,/HSE_IN*%
X110426409Y-98886927D03*
%TO.P,U1,4,PC15*%
%TO.N,/PC15*%
X110779962Y-98533374D03*
%TO.P,U1,3,PC14*%
%TO.N,/PC14*%
X111133516Y-98179820D03*
%TO.P,U1,2,PC13*%
%TO.N,/PC13*%
X111487069Y-97826267D03*
%TO.P,U1,1,VBAT*%
%TO.N,+3.3V*%
X111840623Y-97472713D03*
%TD*%
D17*
%TO.P,J1,1,VBUS*%
%TO.N,VBUS*%
X133095000Y-107305000D03*
%TO.P,J1,2,D-*%
%TO.N,/USB_D-*%
X133095000Y-106655000D03*
%TO.P,J1,3,D+*%
%TO.N,/USB_D+*%
X133095000Y-106005000D03*
%TO.P,J1,4,ID*%
%TO.N,unconnected-(J1-ID-Pad4)*%
X133095000Y-105355000D03*
%TO.P,J1,5,GND*%
%TO.N,GND*%
X133095000Y-104705000D03*
D18*
%TO.P,J1,6,Shield*%
%TO.N,unconnected-(J1-Shield-Pad6)_2*%
X136945000Y-109880000D03*
D19*
%TO.N,unconnected-(J1-Shield-Pad6)_3*%
X133145000Y-109730000D03*
%TO.N,unconnected-(J1-Shield-Pad6)*%
X133145000Y-102280000D03*
D18*
%TO.N,unconnected-(J1-Shield-Pad6)_1*%
X136945000Y-102130000D03*
%TD*%
D20*
%TO.P,C11,1*%
%TO.N,/HSE_OUT*%
X105839411Y-97660589D03*
%TO.P,C11,2*%
%TO.N,GND*%
X105839411Y-96700589D03*
%TD*%
D14*
%TO.P,J3,1,Pin_1*%
%TO.N,/PA3*%
X87900000Y-114000000D03*
D13*
%TO.P,J3,2,Pin_2*%
%TO.N,/PA4*%
X90440000Y-114000000D03*
%TO.P,J3,3,Pin_3*%
%TO.N,/PA5*%
X92980000Y-114000000D03*
%TO.P,J3,4,Pin_4*%
%TO.N,/PA6*%
X95520000Y-114000000D03*
%TO.P,J3,5,Pin_5*%
%TO.N,/PA7*%
X98060000Y-114000000D03*
%TO.P,J3,6,Pin_6*%
%TO.N,/PB0*%
X100600000Y-114000000D03*
%TO.P,J3,7,Pin_7*%
%TO.N,/PB1*%
X103140000Y-114000000D03*
%TO.P,J3,8,Pin_8*%
%TO.N,/PB2*%
X105680000Y-114000000D03*
%TO.P,J3,9,Pin_9*%
%TO.N,/PB10*%
X108220000Y-114000000D03*
%TO.P,J3,10,Pin_10*%
%TO.N,/PB11*%
X110760000Y-114000000D03*
%TO.P,J3,11,Pin_11*%
%TO.N,/PB12*%
X113300000Y-114000000D03*
%TO.P,J3,12,Pin_12*%
%TO.N,/PB13*%
X115840000Y-114000000D03*
%TO.P,J3,13,Pin_13*%
%TO.N,/PB14*%
X118380000Y-114000000D03*
%TO.P,J3,14,Pin_14*%
%TO.N,/PB15*%
X120920000Y-114000000D03*
%TO.P,J3,15,Pin_15*%
%TO.N,/PA8*%
X123460000Y-114000000D03*
%TO.P,J3,16,Pin_16*%
%TO.N,/PA9*%
X126000000Y-114000000D03*
%TO.P,J3,17,Pin_17*%
%TO.N,/PA10*%
X128540000Y-114000000D03*
%TO.P,J3,18,Pin_18*%
%TO.N,/PA13*%
X131080000Y-114000000D03*
%TD*%
D21*
%TO.P,SW1,*%
%TO.N,*%
X83350000Y-96350000D03*
X81140000Y-96350000D03*
X83350000Y-103650000D03*
X81140000Y-103650000D03*
D22*
%TO.P,SW1,1,A*%
%TO.N,GND*%
X84000000Y-97750000D03*
%TO.P,SW1,2,B*%
%TO.N,/SW_BOOT0*%
X84000000Y-100750000D03*
%TO.P,SW1,3,C*%
%TO.N,+3.3V*%
X84000000Y-102250000D03*
%TD*%
D12*
%TO.P,C9,1*%
%TO.N,/NRST*%
X105239410Y-102080588D03*
%TO.P,C9,2*%
%TO.N,GND*%
X105239410Y-103040588D03*
%TD*%
D23*
%TO.P,C2,1*%
%TO.N,+3.3V*%
X114960589Y-95963747D03*
%TO.P,C2,2*%
%TO.N,GND*%
X115639411Y-96642569D03*
%TD*%
D24*
%TO.P,C4,2*%
%TO.N,GND*%
X110100000Y-108021178D03*
%TO.P,C4,1*%
%TO.N,+3.3V*%
X110778822Y-108700000D03*
%TD*%
D20*
%TO.P,C10,1*%
%TO.N,/HSE_IN*%
X105839411Y-95640589D03*
%TO.P,C10,2*%
%TO.N,GND*%
X105839411Y-94680589D03*
%TD*%
D25*
%TO.P,R3,1*%
%TO.N,/PWR_LED_K*%
X132250000Y-95000000D03*
%TO.P,R3,2*%
%TO.N,GND*%
X131230000Y-95000000D03*
%TD*%
D26*
%TO.P,U2,1,GND*%
%TO.N,GND*%
X124600000Y-99350000D03*
%TO.P,U2,2,VO*%
%TO.N,+3.3V*%
X126900000Y-99349999D03*
D27*
X126900000Y-93050001D03*
D26*
%TO.P,U2,3,VI*%
%TO.N,VBUS*%
X129200000Y-99350000D03*
%TD*%
D28*
%TO.P,FB1,1*%
%TO.N,+3.3VA*%
X101451909Y-103560589D03*
%TO.P,FB1,2*%
%TO.N,+3.3V*%
X103026911Y-103560589D03*
%TD*%
D29*
%TO.P,R1,1*%
%TO.N,/SW_BOOT0*%
X88090001Y-100900000D03*
%TO.P,R1,2*%
%TO.N,/BOOT0*%
X89109999Y-100900000D03*
%TD*%
D30*
%TO.P,C3,2*%
%TO.N,GND*%
X118600000Y-105100000D03*
%TO.P,C3,1*%
%TO.N,+3.3V*%
X119278822Y-104421178D03*
%TD*%
D31*
%TO.P,C12,1*%
%TO.N,+3.3V*%
X121900000Y-96150001D03*
%TO.P,C12,2*%
%TO.N,GND*%
X121900000Y-98049999D03*
%TD*%
D32*
%TO.P,C13,1*%
%TO.N,VBUS*%
X127849999Y-102200000D03*
%TO.P,C13,2*%
%TO.N,GND*%
X125950001Y-102200000D03*
%TD*%
D33*
%TO.P,Y1,1,1*%
%TO.N,/HSE_IN*%
X102489411Y-94840589D03*
%TO.P,Y1,2,2*%
%TO.N,GND*%
X102489411Y-97040589D03*
%TO.P,Y1,3,3*%
%TO.N,/HSE_OUT*%
X104189411Y-97040589D03*
%TO.P,Y1,4,4*%
%TO.N,GND*%
X104189411Y-94840589D03*
%TD*%
D34*
%TO.P,D1,1,K*%
%TO.N,/PWR_LED_K*%
X134725000Y-94962501D03*
%TO.P,D1,2,A*%
%TO.N,+3.3V*%
X134725000Y-93387499D03*
%TD*%
D35*
%TO.P,C1,2*%
%TO.N,GND*%
X111639411Y-95460589D03*
%TO.P,C1,1*%
%TO.N,+3.3V*%
X110960589Y-96139411D03*
%TD*%
%TO.P,C6,1*%
%TO.N,+3.3VA*%
X107785589Y-98989411D03*
%TO.P,C6,2*%
%TO.N,GND*%
X108464411Y-98310589D03*
%TD*%
D12*
%TO.P,C8,1*%
%TO.N,+3.3V*%
X103239411Y-105080589D03*
%TO.P,C8,2*%
%TO.N,GND*%
X103239411Y-106040589D03*
%TD*%
D36*
%TO.N,+3.3V*%
X124200000Y-95850000D03*
X120950000Y-102650000D03*
X110300000Y-95500000D03*
%TO.N,GND*%
X100450000Y-93175000D03*
X135650000Y-105575000D03*
%TO.N,+3.3V*%
X126775000Y-105100000D03*
X126800000Y-97225000D03*
X114100000Y-94400000D03*
X121825000Y-95025000D03*
%TO.N,/PB5*%
X112775000Y-94275000D03*
X115100000Y-101200000D03*
X113175000Y-96325000D03*
%TO.N,GND*%
X99800000Y-106050000D03*
%TO.N,+3.3VA*%
X95175000Y-104550000D03*
X97775000Y-96700000D03*
X107325000Y-98225000D03*
X95200000Y-96700000D03*
%TO.N,/PB9*%
X109100000Y-94000000D03*
X112375000Y-100475000D03*
%TO.N,GND*%
X110850000Y-94275000D03*
%TO.N,/PC15*%
X99875000Y-95625000D03*
X111425000Y-100075000D03*
%TO.N,/PC14*%
X103150000Y-92825000D03*
X108050000Y-95125000D03*
%TO.N,GND*%
X110125000Y-101300000D03*
X86100000Y-97700000D03*
%TO.N,+3.3V*%
X110950000Y-110550000D03*
X104425000Y-105075000D03*
%TO.N,/BOOT0*%
X99625000Y-102625000D03*
X110550000Y-103550000D03*
%TO.N,/PA13*%
X123600000Y-107400000D03*
X115250000Y-103575000D03*
%TO.N,GND*%
X129375000Y-95025000D03*
%TO.N,VBUS*%
X129725000Y-101700000D03*
X129550000Y-102700000D03*
X130500000Y-107425000D03*
X129750000Y-108000000D03*
%TO.N,GND*%
X124600000Y-102700000D03*
X124600000Y-101600000D03*
X125300000Y-97600000D03*
X124500000Y-97600000D03*
X121300000Y-99300000D03*
X122100000Y-99300000D03*
X116300000Y-102700000D03*
X112600000Y-105800000D03*
X106900000Y-96700000D03*
X106900000Y-94700000D03*
X105300000Y-103800000D03*
X113100000Y-98900000D03*
%TO.N,+3.3V*%
X122325000Y-105175000D03*
%TD*%
D37*
%TO.N,/PB0*%
X109271343Y-105575105D02*
X109719302Y-105127144D01*
X103546448Y-111300000D02*
X109271343Y-105575105D01*
X102300000Y-111300000D02*
X103546448Y-111300000D01*
X100600000Y-113000000D02*
X102300000Y-111300000D01*
X100600000Y-114000000D02*
X100600000Y-113000000D01*
%TO.N,/PB1*%
X106100000Y-109453554D02*
X110072856Y-105480698D01*
X106100000Y-111040000D02*
X106100000Y-109453554D01*
X103140000Y-114000000D02*
X106100000Y-111040000D01*
%TO.N,/PB2*%
X107100000Y-112580000D02*
X105680000Y-114000000D01*
X110426408Y-105834251D02*
X107100000Y-109160659D01*
X110426409Y-105834251D02*
X110426408Y-105834251D01*
X107100000Y-109160659D02*
X107100000Y-112580000D01*
%TO.N,/PA10*%
X118532376Y-107700000D02*
X115959520Y-105127144D01*
X128540000Y-114000000D02*
X122240000Y-107700000D01*
X122240000Y-107700000D02*
X118532376Y-107700000D01*
%TO.N,/PA8*%
X123460000Y-113060000D02*
X123460000Y-114000000D01*
X120600000Y-110200000D02*
X123460000Y-113060000D01*
X119618162Y-110200000D02*
X120600000Y-110200000D01*
X115252413Y-105834251D02*
X119618162Y-110200000D01*
%TO.N,/PA9*%
X120500000Y-108500000D02*
X126000000Y-114000000D01*
X118625268Y-108500000D02*
X120500000Y-108500000D01*
X115605966Y-105480698D02*
X118625268Y-108500000D01*
%TO.N,/PB15*%
X120920000Y-112820000D02*
X120920000Y-114000000D01*
X117500000Y-108788944D02*
X117500000Y-109400000D01*
X117500000Y-109400000D02*
X120920000Y-112820000D01*
X114898860Y-106187804D02*
X117500000Y-108788944D01*
%TO.N,/PB14*%
X118380000Y-111780000D02*
X118380000Y-114000000D01*
X116600000Y-110000000D02*
X118380000Y-111780000D01*
X116600000Y-108596052D02*
X116600000Y-110000000D01*
X114545306Y-106541358D02*
X116600000Y-108596052D01*
%TO.N,/PA14*%
X120825000Y-93175000D02*
X120825000Y-98264088D01*
X123460000Y-90540000D02*
X120825000Y-93175000D01*
X123460000Y-89100000D02*
X123460000Y-90540000D01*
X120825000Y-98264088D02*
X117727287Y-101361801D01*
%TO.N,/PB3*%
X119825000Y-93125000D02*
X118380000Y-91680000D01*
X118380000Y-91680000D02*
X118380000Y-89100000D01*
X119825000Y-97849874D02*
X119825000Y-93125000D01*
X117020180Y-100654694D02*
X119825000Y-97849874D01*
%TO.N,/PB8*%
X105680000Y-90580000D02*
X105680000Y-89100000D01*
X106300000Y-91200000D02*
X105680000Y-90580000D01*
X107700000Y-91200000D02*
X106300000Y-91200000D01*
X115800000Y-93200000D02*
X109700000Y-93200000D01*
X109700000Y-93200000D02*
X107700000Y-91200000D01*
X117825000Y-95225000D02*
X115800000Y-93200000D01*
X117039411Y-96960589D02*
X117825000Y-96175000D01*
X116471645Y-96960589D02*
X117039411Y-96960589D01*
X117825000Y-96175000D02*
X117825000Y-95225000D01*
X114898860Y-98533374D02*
X116471645Y-96960589D01*
%TO.N,/PB7*%
X110225000Y-92400000D02*
X108220000Y-90395000D01*
X115900000Y-92400000D02*
X110225000Y-92400000D01*
X108220000Y-90395000D02*
X108220000Y-89100000D01*
X118325000Y-94825000D02*
X115900000Y-92400000D01*
X118325000Y-96521446D02*
X118325000Y-94825000D01*
X115605966Y-99240480D02*
X118325000Y-96521446D01*
%TO.N,/PB6*%
X115600000Y-91300000D02*
X118825000Y-94525000D01*
X112300000Y-91300000D02*
X115600000Y-91300000D01*
X118825000Y-94525000D02*
X118825000Y-96728554D01*
X110760000Y-89760000D02*
X112300000Y-91300000D01*
X118825000Y-96728554D02*
X115959520Y-99594034D01*
X110760000Y-89100000D02*
X110760000Y-89760000D01*
%TO.N,/PC13*%
X100600000Y-90425000D02*
X100600000Y-89100000D01*
X104875000Y-93125000D02*
X103450000Y-91700000D01*
X101875000Y-91700000D02*
X100600000Y-90425000D01*
X109430401Y-95515451D02*
X107039950Y-93125000D01*
X109430401Y-95769599D02*
X109430401Y-95515451D01*
X111487069Y-97826267D02*
X109430401Y-95769599D01*
X107039950Y-93125000D02*
X104875000Y-93125000D01*
X103450000Y-91700000D02*
X101875000Y-91700000D01*
%TO.N,/PB9*%
X103140000Y-90040000D02*
X103140000Y-89100000D01*
X104700000Y-91100000D02*
X104200000Y-91100000D01*
X105900000Y-92300000D02*
X104700000Y-91100000D01*
X109100000Y-94000000D02*
X107400000Y-92300000D01*
X107400000Y-92300000D02*
X105900000Y-92300000D01*
X104200000Y-91100000D02*
X103140000Y-90040000D01*
%TO.N,/PA0*%
X97900000Y-95300000D02*
X95000000Y-95300000D01*
X106500000Y-99200000D02*
X101800000Y-99200000D01*
X107213841Y-99913841D02*
X106500000Y-99200000D01*
X92980000Y-93280000D02*
X92980000Y-89100000D01*
X107917789Y-99913841D02*
X107213841Y-99913841D01*
X101800000Y-99200000D02*
X97900000Y-95300000D01*
X95000000Y-95300000D02*
X92980000Y-93280000D01*
X108658642Y-100654694D02*
X107917789Y-99913841D01*
%TO.N,/PA2*%
X87900000Y-95025000D02*
X87900000Y-89100000D01*
X97800000Y-99300000D02*
X92175000Y-99300000D01*
X92175000Y-99300000D02*
X87900000Y-95025000D01*
X107951535Y-101361801D02*
X99861801Y-101361801D01*
X99861801Y-101361801D02*
X97800000Y-99300000D01*
%TO.N,/BOOT0*%
X97900000Y-100900000D02*
X99625000Y-102625000D01*
X89109999Y-100900000D02*
X97900000Y-100900000D01*
%TO.N,/SW_BOOT0*%
X87940001Y-100750000D02*
X88090001Y-100900000D01*
X84000000Y-100750000D02*
X87940001Y-100750000D01*
%TO.N,/PB5*%
X115100000Y-101200000D02*
X115100000Y-101160660D01*
X115100000Y-101160660D02*
X116313073Y-99947587D01*
D38*
%TO.N,GND*%
X101239411Y-106040589D02*
X101239410Y-106040588D01*
X103239411Y-106040589D02*
X101239411Y-106040589D01*
D37*
X103239410Y-106040588D02*
X103239411Y-106040589D01*
D38*
X101229998Y-106050000D02*
X101239410Y-106040588D01*
X99800000Y-106050000D02*
X101229998Y-106050000D01*
X100450000Y-95001178D02*
X102489411Y-97040589D01*
X100450000Y-93175000D02*
X100450000Y-95001178D01*
X110850000Y-94671178D02*
X111639411Y-95460589D01*
X110850000Y-94275000D02*
X110850000Y-94671178D01*
D37*
%TO.N,/PA1*%
X98325000Y-97750000D02*
X100988840Y-100413840D01*
X92950000Y-97750000D02*
X98325000Y-97750000D01*
X100988840Y-100413840D02*
X107710682Y-100413840D01*
X90440000Y-95240000D02*
X92950000Y-97750000D01*
X107710682Y-100413840D02*
X108305089Y-101008247D01*
X90440000Y-89100000D02*
X90440000Y-95240000D01*
%TO.N,/PA6*%
X99920000Y-109600000D02*
X95520000Y-114000000D01*
X103832234Y-109600000D02*
X99920000Y-109600000D01*
X109012196Y-104420038D02*
X103832234Y-109600000D01*
%TO.N,/PA3*%
X94700000Y-107200000D02*
X87900000Y-114000000D01*
X107951535Y-103359377D02*
X104110912Y-107200000D01*
X104110912Y-107200000D02*
X94700000Y-107200000D01*
%TO.N,/PB11*%
X112800000Y-111000000D02*
X110760000Y-113040000D01*
X112800000Y-106748706D02*
X112800000Y-111000000D01*
X113300000Y-105510050D02*
X113300000Y-106248706D01*
X113300000Y-106248706D02*
X112800000Y-106748706D01*
X112310050Y-105100000D02*
X112889950Y-105100000D01*
X110760000Y-113040000D02*
X110760000Y-114000000D01*
X112889950Y-105100000D02*
X113300000Y-105510050D01*
X111900000Y-105510050D02*
X112310050Y-105100000D01*
X111900000Y-105774874D02*
X111900000Y-105510050D01*
X111133516Y-106541358D02*
X111900000Y-105774874D01*
%TO.N,/PB12*%
X114300000Y-107710266D02*
X113838199Y-107248465D01*
X113300000Y-114000000D02*
X114300000Y-113000000D01*
X114300000Y-113000000D02*
X114300000Y-107710266D01*
%TO.N,/PB4*%
X119325000Y-97642766D02*
X119325000Y-94025000D01*
X116666626Y-100301140D02*
X119325000Y-97642766D01*
X119325000Y-94025000D02*
X115840000Y-90540000D01*
X115840000Y-90540000D02*
X115840000Y-89100000D01*
%TO.N,/PC14*%
X98060000Y-90460000D02*
X98060000Y-89100000D01*
X100600000Y-91900000D02*
X99500000Y-91900000D01*
X101525000Y-92825000D02*
X100600000Y-91900000D01*
X99500000Y-91900000D02*
X98060000Y-90460000D01*
X103150000Y-92825000D02*
X101525000Y-92825000D01*
%TO.N,/PB10*%
X108220000Y-108747765D02*
X108220000Y-114000000D01*
X108467765Y-108500000D02*
X108220000Y-108747765D01*
X108467766Y-108500000D02*
X108467765Y-108500000D01*
X110779962Y-106187804D02*
X108467766Y-108500000D01*
D38*
%TO.N,+3.3V*%
X122325000Y-104025000D02*
X120950000Y-102650000D01*
X122325000Y-105175000D02*
X122325000Y-104025000D01*
X110939411Y-96139411D02*
X110300000Y-95500000D01*
X110960589Y-96139411D02*
X110939411Y-96139411D01*
X134387502Y-93050001D02*
X134725000Y-93387499D01*
X126900000Y-93050001D02*
X134387502Y-93050001D01*
D37*
%TO.N,/PB5*%
X112775000Y-94275000D02*
X113175000Y-94675000D01*
X113175000Y-94675000D02*
X113175000Y-96325000D01*
D38*
%TO.N,+3.3V*%
X100160680Y-103425000D02*
X85175000Y-103425000D01*
X100950091Y-102635589D02*
X100160680Y-103425000D01*
X103026911Y-103560589D02*
X102101911Y-102635589D01*
X102101911Y-102635589D02*
X100950091Y-102635589D01*
X85175000Y-103425000D02*
X84000000Y-102250000D01*
D37*
%TO.N,/NRST*%
X110825000Y-100699732D02*
X109719302Y-99594034D01*
X110825000Y-101589950D02*
X110825000Y-100699732D01*
X110105188Y-102309762D02*
X110825000Y-101589950D01*
X105468584Y-102309762D02*
X110105188Y-102309762D01*
X105239410Y-102080588D02*
X105468584Y-102309762D01*
%TO.N,/BOOT0*%
X110589340Y-103550000D02*
X115252413Y-98886927D01*
X110550000Y-103550000D02*
X110589340Y-103550000D01*
D38*
%TO.N,+3.3V*%
X126920000Y-104955000D02*
X126775000Y-105100000D01*
X129300000Y-104955000D02*
X126920000Y-104955000D01*
X120950000Y-102750000D02*
X119278822Y-104421178D01*
X120950000Y-102650000D02*
X120950000Y-102750000D01*
X119278822Y-104421178D02*
X119303822Y-104421178D01*
%TO.N,GND*%
X104349411Y-94680589D02*
X104189411Y-94840589D01*
X105839411Y-94680589D02*
X104349411Y-94680589D01*
D37*
X134780000Y-104705000D02*
X135650000Y-105575000D01*
X133095000Y-104705000D02*
X134780000Y-104705000D01*
%TO.N,+3.3V*%
X126785000Y-105090000D02*
X126775000Y-105100000D01*
D38*
X114394490Y-94694490D02*
X114100000Y-94400000D01*
X115812652Y-94694490D02*
X114394490Y-94694490D01*
D37*
%TO.N,/PA15*%
X120325000Y-98056980D02*
X120325000Y-89695000D01*
X117373733Y-101008247D02*
X120325000Y-98056980D01*
X120325000Y-89695000D02*
X120920000Y-89100000D01*
%TO.N,GND*%
X99809412Y-106040588D02*
X99800000Y-106050000D01*
D38*
%TO.N,+3.3VA*%
X95175000Y-104550000D02*
X101239410Y-104550000D01*
X101239410Y-104550000D02*
X101239410Y-103773088D01*
X101239410Y-105080588D02*
X101239410Y-104550000D01*
X101239410Y-103773088D02*
X101451909Y-103560589D01*
X97775000Y-96700000D02*
X95200000Y-96700000D01*
X107785589Y-98685589D02*
X107325000Y-98225000D01*
X107785589Y-98989411D02*
X107785589Y-98685589D01*
D37*
%TO.N,/PB9*%
X112514950Y-100475000D02*
X112375000Y-100475000D01*
X113950899Y-98774227D02*
X113950899Y-99039051D01*
X113950899Y-99039051D02*
X112514950Y-100475000D01*
X114545306Y-98179820D02*
X113950899Y-98774227D01*
%TO.N,+3.3V*%
X110960589Y-96592679D02*
X110960589Y-96139411D01*
X111840623Y-97472713D02*
X110960589Y-96592679D01*
%TO.N,/PC15*%
X95520000Y-91270000D02*
X95520000Y-89100000D01*
X99875000Y-95625000D02*
X95520000Y-91270000D01*
X111425000Y-99178412D02*
X111425000Y-100075000D01*
X110779962Y-98533374D02*
X111425000Y-99178412D01*
%TO.N,/PC14*%
X110539108Y-97585414D02*
X110510414Y-97585414D01*
X110510414Y-97585414D02*
X108050000Y-95125000D01*
X111133516Y-98179820D02*
X110539108Y-97585414D01*
%TO.N,/HSE_IN*%
X107392472Y-95640589D02*
X105839411Y-95640589D01*
X109676358Y-97924475D02*
X107392472Y-95640589D01*
X109676358Y-98136876D02*
X109676358Y-97924475D01*
X110426409Y-98886927D02*
X109676358Y-98136876D01*
%TO.N,/HSE_OUT*%
X106814411Y-97660589D02*
X105839411Y-97660589D01*
X107100000Y-97375000D02*
X106814411Y-97660589D01*
X108419776Y-97375000D02*
X107100000Y-97375000D01*
X109176358Y-98343982D02*
X109176358Y-98131582D01*
X109176358Y-98131582D02*
X108419776Y-97375000D01*
X110072856Y-99240480D02*
X109176358Y-98343982D01*
%TO.N,GND*%
X110125000Y-100706838D02*
X110125000Y-101300000D01*
X109365749Y-99947587D02*
X110125000Y-100706838D01*
X108464411Y-98310589D02*
X108464411Y-98264411D01*
X108497536Y-99079374D02*
X108497536Y-98343714D01*
X108497536Y-98343714D02*
X108464411Y-98310589D01*
X109365749Y-99947587D02*
X108497536Y-99079374D01*
%TO.N,+3.3VA*%
X107785589Y-99074533D02*
X109012196Y-100301140D01*
X109012196Y-100301140D02*
X108417788Y-99706734D01*
X108417788Y-99706734D02*
X108375000Y-99663946D01*
D38*
%TO.N,GND*%
X86050000Y-97750000D02*
X86100000Y-97700000D01*
X84000000Y-97750000D02*
X86050000Y-97750000D01*
%TO.N,+3.3V*%
X110950000Y-108871178D02*
X110778822Y-108700000D01*
X110950000Y-110550000D02*
X110950000Y-108871178D01*
X104419411Y-105080589D02*
X104425000Y-105075000D01*
X103239411Y-105080589D02*
X104419411Y-105080589D01*
X103026911Y-104868089D02*
X103239411Y-105080589D01*
X103026911Y-103560589D02*
X103026911Y-104868089D01*
D37*
%TO.N,/SW_BOOT0*%
X84059999Y-100809999D02*
X84000000Y-100750000D01*
%TO.N,/PA13*%
X124480000Y-107400000D02*
X131080000Y-114000000D01*
X123600000Y-107400000D02*
X124480000Y-107400000D01*
X115352923Y-103472077D02*
X115250000Y-103575000D01*
X116425773Y-103472077D02*
X115352923Y-103472077D01*
X117020180Y-104066484D02*
X116425773Y-103472077D01*
%TO.N,/PA4*%
X96455989Y-107984011D02*
X90440000Y-114000000D01*
X104034011Y-107984011D02*
X96455989Y-107984011D01*
X108305089Y-103712933D02*
X104034011Y-107984011D01*
X108305089Y-103712931D02*
X108305089Y-103712933D01*
%TO.N,/PA5*%
X103962564Y-108762564D02*
X98217436Y-108762564D01*
X106054538Y-106670588D02*
X106054538Y-106670590D01*
X106054538Y-106670590D02*
X103962564Y-108762564D01*
X98217436Y-108762564D02*
X92980000Y-114000000D01*
X108658642Y-104066484D02*
X106054538Y-106670588D01*
%TO.N,/PA7*%
X108771343Y-105367999D02*
X103832171Y-110307171D01*
X103832171Y-110307171D02*
X101752829Y-110307171D01*
X109365749Y-104773591D02*
X108771343Y-105367999D01*
X101752829Y-110307171D02*
X98060000Y-114000000D01*
%TO.N,/PB13*%
X115840000Y-108543158D02*
X114191753Y-106894911D01*
X115840000Y-114000000D02*
X115840000Y-108543158D01*
D38*
%TO.N,GND*%
X129400000Y-95000000D02*
X129375000Y-95025000D01*
X131230000Y-95000000D02*
X129400000Y-95000000D01*
%TO.N,+3.3V*%
X126000000Y-89100000D02*
X126000000Y-92150001D01*
X126000000Y-92150001D02*
X126900000Y-93050001D01*
D37*
%TO.N,/PWR_LED_K*%
X132250000Y-95000000D02*
X134462499Y-95000000D01*
D38*
%TO.N,+3.3V*%
X127299999Y-93450000D02*
X126900000Y-93050001D01*
%TO.N,VBUS*%
X129200000Y-99350000D02*
X129200000Y-99600000D01*
X129200000Y-99600000D02*
X129400000Y-99800000D01*
D37*
%TO.N,GND*%
X116360802Y-102700000D02*
X116300000Y-102700000D01*
X117373733Y-103712931D02*
X116360802Y-102700000D01*
X112581980Y-105800000D02*
X112600000Y-105800000D01*
X111487069Y-106894911D02*
X112581980Y-105800000D01*
D38*
X106899411Y-96700589D02*
X106900000Y-96700000D01*
X105839411Y-96700589D02*
X106899411Y-96700589D01*
X106880589Y-94680589D02*
X106900000Y-94700000D01*
X105839411Y-94680589D02*
X106880589Y-94680589D01*
X105239410Y-103739410D02*
X105300000Y-103800000D01*
X105239410Y-103040588D02*
X105239410Y-103739410D01*
D39*
%TO.N,/USB_D-*%
X132119999Y-106655000D02*
X133095000Y-106655000D01*
X132019999Y-106555000D02*
X132119999Y-106655000D01*
X118129838Y-106555000D02*
X132019999Y-106555000D01*
X116982663Y-105407825D02*
X118129838Y-106555000D01*
X116947307Y-105407825D02*
X116982663Y-105407825D01*
%TO.N,/USB_D+*%
X132119999Y-106005000D02*
X133095000Y-106005000D01*
X132019999Y-106105000D02*
X132119999Y-106005000D01*
X117300860Y-105054272D02*
X117300860Y-105089628D01*
%TO.N,/USB_D-*%
X116313073Y-104773591D02*
X116947307Y-105407825D01*
%TO.N,/USB_D+*%
X116666626Y-104420038D02*
X117300860Y-105054272D01*
X118316232Y-106105000D02*
X132019999Y-106105000D01*
X117300860Y-105089628D02*
X118316232Y-106105000D01*
D37*
%TO.N,/HSE_IN*%
X102489411Y-95140589D02*
X102489411Y-94840589D01*
X103309411Y-95960589D02*
X102489411Y-95140589D01*
X105519411Y-95960589D02*
X103309411Y-95960589D01*
X105839411Y-95640589D02*
X105519411Y-95960589D01*
%TO.N,/HSE_OUT*%
X104809411Y-97660589D02*
X104189411Y-97040589D01*
X105839411Y-97660589D02*
X104809411Y-97660589D01*
%TO.N,/HSE_IN*%
X110426409Y-98886927D02*
X110426409Y-98886926D01*
%TO.N,+3.3V*%
X118439411Y-104060589D02*
X117738199Y-103359377D01*
X118918233Y-104060589D02*
X118439411Y-104060589D01*
X117738199Y-103359377D02*
X117727287Y-103359377D01*
X119278822Y-104421178D02*
X118918233Y-104060589D01*
%TO.N,GND*%
X117968141Y-104468141D02*
X118600000Y-105100000D01*
X117968141Y-104307337D02*
X117968141Y-104468141D01*
X117830402Y-104169598D02*
X117968141Y-104307337D01*
X117373733Y-103712931D02*
X117830402Y-104169598D01*
%TO.N,+3.3V*%
X111139411Y-108360589D02*
X111139411Y-107960589D01*
X111139411Y-107960589D02*
X111840623Y-107259377D01*
X111118233Y-108360589D02*
X111139411Y-108360589D01*
X110778822Y-108700000D02*
X111118233Y-108360589D01*
X111840623Y-107259377D02*
X111840623Y-107248465D01*
X111840623Y-97472713D02*
X111840622Y-97472713D01*
D38*
%TO.N,GND*%
X115921391Y-96360589D02*
X115639411Y-96642569D01*
X116339411Y-96360589D02*
X115921391Y-96360589D01*
X116539411Y-96160589D02*
X116339411Y-96360589D01*
X116539411Y-96159763D02*
X116539411Y-96160589D01*
X116908668Y-95790506D02*
X116539411Y-96159763D01*
D37*
X115639411Y-96642569D02*
X115657431Y-96642569D01*
D38*
%TO.N,+3.3V*%
X115239411Y-95684925D02*
X114960589Y-95963747D01*
X115239411Y-95260589D02*
X115239411Y-95684925D01*
X115805510Y-94694490D02*
X115239411Y-95260589D01*
X115812652Y-94694490D02*
X115805510Y-94694490D01*
D37*
%TO.N,GND*%
X115050121Y-97231859D02*
X115639411Y-96642569D01*
X114786159Y-97231859D02*
X115050121Y-97231859D01*
X114546518Y-97471501D02*
X114639411Y-97378608D01*
X114191753Y-97826267D02*
X114546518Y-97471501D01*
X114639411Y-97378608D02*
X114786159Y-97231859D01*
%TO.N,+3.3V*%
X114339411Y-96584925D02*
X114339411Y-96971501D01*
X114960589Y-95963747D02*
X114339411Y-96584925D01*
X114339411Y-96971501D02*
X113838199Y-97472713D01*
%TO.N,GND*%
X115639411Y-96760589D02*
X115639411Y-96642569D01*
X111487069Y-106894911D02*
X110721391Y-107660589D01*
X110460589Y-107660589D02*
X110100000Y-108021178D01*
X110721391Y-107660589D02*
X110460589Y-107660589D01*
X113118020Y-98900000D02*
X113100000Y-98900000D01*
X114191753Y-97826267D02*
X113118020Y-98900000D01*
%TD*%
%TA.AperFunction,Conductor*%
%TO.N,GND*%
G36*
X125665677Y-97169685D02*
G01*
X125686319Y-97186319D01*
X125708181Y-97208181D01*
X125741666Y-97269504D01*
X125744500Y-97295862D01*
X125744500Y-100426007D01*
X125749289Y-100470541D01*
X125750000Y-100483797D01*
X125750000Y-100900000D01*
X125900000Y-101050000D01*
X126398638Y-101050000D01*
X126465677Y-101069685D01*
X126486319Y-101086319D01*
X126713681Y-101313681D01*
X126747166Y-101375004D01*
X126750000Y-101401362D01*
X126750000Y-102948638D01*
X126730315Y-103015677D01*
X126713681Y-103036319D01*
X126536319Y-103213681D01*
X126474996Y-103247166D01*
X126448638Y-103250000D01*
X124601362Y-103250000D01*
X124534323Y-103230315D01*
X124513681Y-103213681D01*
X123986319Y-102686319D01*
X123952834Y-102624996D01*
X123950000Y-102598638D01*
X123950000Y-101000000D01*
X122850000Y-99900000D01*
X121351362Y-99900000D01*
X121284323Y-99880315D01*
X121263681Y-99863681D01*
X120936319Y-99536319D01*
X120902834Y-99474996D01*
X120900000Y-99448638D01*
X120900000Y-98877553D01*
X120919685Y-98810514D01*
X120936315Y-98789876D01*
X121185490Y-98540702D01*
X121244799Y-98437975D01*
X121251285Y-98413763D01*
X121251286Y-98413763D01*
X121251286Y-98413759D01*
X121275500Y-98323397D01*
X121275500Y-97274000D01*
X121295185Y-97206961D01*
X121347989Y-97161206D01*
X121399500Y-97150000D01*
X125598638Y-97150000D01*
X125665677Y-97169685D01*
G37*
%TD.AperFunction*%
%TD*%
%TA.AperFunction,Conductor*%
%TO.N,+3.3V*%
G36*
X128815677Y-91719685D02*
G01*
X128836319Y-91736319D01*
X129063681Y-91963681D01*
X129097166Y-92025004D01*
X129100000Y-92051362D01*
X129100000Y-94048638D01*
X129080315Y-94115677D01*
X129063681Y-94136319D01*
X128486319Y-94713681D01*
X128424996Y-94747166D01*
X128398638Y-94750000D01*
X127999999Y-94750000D01*
X127850000Y-94899999D01*
X127850000Y-100248638D01*
X127830315Y-100315677D01*
X127813681Y-100336319D01*
X127636319Y-100513681D01*
X127574996Y-100547166D01*
X127548638Y-100550000D01*
X126174000Y-100550000D01*
X126106961Y-100530315D01*
X126061206Y-100477511D01*
X126050000Y-100426000D01*
X126050000Y-96800000D01*
X125950000Y-96700000D01*
X121399500Y-96700000D01*
X121332461Y-96680315D01*
X121286706Y-96627511D01*
X121275500Y-96576000D01*
X121275500Y-94824000D01*
X121295185Y-94756961D01*
X121347989Y-94711206D01*
X121399500Y-94700000D01*
X124650000Y-94700000D01*
X124750000Y-94600000D01*
X124750000Y-92351362D01*
X124769685Y-92284323D01*
X124786319Y-92263681D01*
X125313681Y-91736319D01*
X125375004Y-91702834D01*
X125401362Y-91700000D01*
X128748638Y-91700000D01*
X128815677Y-91719685D01*
G37*
%TD.AperFunction*%
%TD*%
%TA.AperFunction,Conductor*%
%TO.N,VBUS*%
G36*
X131868255Y-106972113D02*
G01*
X131874084Y-106975478D01*
X131874086Y-106975480D01*
X131965412Y-107028207D01*
X132067272Y-107055500D01*
X132144167Y-107055500D01*
X132211206Y-107075185D01*
X132231848Y-107091819D01*
X132272235Y-107132206D01*
X132375009Y-107177585D01*
X132400135Y-107180500D01*
X133726000Y-107180499D01*
X133793039Y-107200184D01*
X133838794Y-107252987D01*
X133850000Y-107304499D01*
X133850000Y-107476000D01*
X133830315Y-107543039D01*
X133777511Y-107588794D01*
X133726000Y-107600000D01*
X131849999Y-107600000D01*
X131050000Y-108399999D01*
X131040561Y-108422788D01*
X131036727Y-108421200D01*
X131030315Y-108443039D01*
X130977511Y-108488794D01*
X130926000Y-108500000D01*
X129324000Y-108500000D01*
X129256961Y-108480315D01*
X129211206Y-108427511D01*
X129200000Y-108376000D01*
X129200000Y-107551362D01*
X129219685Y-107484323D01*
X129236319Y-107463681D01*
X129708181Y-106991819D01*
X129769504Y-106958334D01*
X129795862Y-106955500D01*
X131806255Y-106955500D01*
X131868255Y-106972113D01*
G37*
%TD.AperFunction*%
%TD*%
%TA.AperFunction,Conductor*%
%TO.N,VBUS*%
G36*
X130293039Y-97869685D02*
G01*
X130338794Y-97922489D01*
X130350000Y-97974000D01*
X130350000Y-103126000D01*
X130330315Y-103193039D01*
X130277511Y-103238794D01*
X130226000Y-103250000D01*
X127501362Y-103250000D01*
X127434323Y-103230315D01*
X127413681Y-103213681D01*
X127129297Y-102929297D01*
X127095812Y-102867974D01*
X127100000Y-102809412D01*
X127100000Y-101551362D01*
X127119685Y-101484323D01*
X127136319Y-101463681D01*
X127313681Y-101286319D01*
X127375004Y-101252834D01*
X127401362Y-101250000D01*
X127800000Y-101250000D01*
X128300000Y-100750000D01*
X128300000Y-98151362D01*
X128319685Y-98084323D01*
X128336319Y-98063681D01*
X128513681Y-97886319D01*
X128575004Y-97852834D01*
X128601362Y-97850000D01*
X130226000Y-97850000D01*
X130293039Y-97869685D01*
G37*
%TD.AperFunction*%
%TD*%
M02*
