%TF.GenerationSoftware,KiCad,Pcbnew,9.0.1*%
%TF.CreationDate,2025-04-04T14:44:14+02:00*%
%TF.ProjectId,stm32_red_pill,73746d33-325f-4726-9564-5f70696c6c2e,rev?*%
%TF.SameCoordinates,Original*%
%TF.FileFunction,Copper,L2,Bot*%
%TF.FilePolarity,Positive*%
%FSLAX46Y46*%
G04 Gerber Fmt 4.6, Leading zero omitted, Abs format (unit mm)*
G04 Created by KiCad (PCBNEW 9.0.1) date 2025-04-04 14:44:14*
%MOMM*%
%LPD*%
G01*
G04 APERTURE LIST*
%TA.AperFunction,ComponentPad*%
%ADD10R,1.700000X1.700000*%
%TD*%
%TA.AperFunction,ComponentPad*%
%ADD11O,1.700000X1.700000*%
%TD*%
%TA.AperFunction,HeatsinkPad*%
%ADD12O,1.800000X1.150000*%
%TD*%
%TA.AperFunction,HeatsinkPad*%
%ADD13O,2.000000X1.450000*%
%TD*%
%TA.AperFunction,ViaPad*%
%ADD14C,0.700000*%
%TD*%
%TA.AperFunction,Conductor*%
%ADD15C,0.500000*%
%TD*%
%TA.AperFunction,Conductor*%
%ADD16C,0.300000*%
%TD*%
G04 APERTURE END LIST*
D10*
%TO.P,J2,1,Pin_1*%
%TO.N,/PA2*%
X87900000Y-89000000D03*
D11*
%TO.P,J2,2,Pin_2*%
%TO.N,/PA1*%
X90440000Y-89000000D03*
%TO.P,J2,3,Pin_3*%
%TO.N,/PA0*%
X92980000Y-89000000D03*
%TO.P,J2,4,Pin_4*%
%TO.N,/PC15*%
X95520000Y-89000000D03*
%TO.P,J2,5,Pin_5*%
%TO.N,/PC14*%
X98060000Y-89000000D03*
%TO.P,J2,6,Pin_6*%
%TO.N,/PC13*%
X100600000Y-89000000D03*
%TO.P,J2,7,Pin_7*%
%TO.N,/PB9*%
X103140000Y-89000000D03*
%TO.P,J2,8,Pin_8*%
%TO.N,/PB8*%
X105680000Y-89000000D03*
%TO.P,J2,9,Pin_9*%
%TO.N,/PB7*%
X108220000Y-89000000D03*
%TO.P,J2,10,Pin_10*%
%TO.N,/PB6*%
X110760000Y-89000000D03*
%TO.P,J2,11,Pin_11*%
%TO.N,/PB5*%
X113300000Y-89000000D03*
%TO.P,J2,12,Pin_12*%
%TO.N,/PB4*%
X115840000Y-89000000D03*
%TO.P,J2,13,Pin_13*%
%TO.N,/PB3*%
X118380000Y-89000000D03*
%TO.P,J2,14,Pin_14*%
%TO.N,/PA15*%
X120920000Y-89000000D03*
%TO.P,J2,15,Pin_15*%
%TO.N,/PA14*%
X123460000Y-89000000D03*
%TO.P,J2,16,Pin_16*%
%TO.N,+3.3V*%
X126000000Y-89000000D03*
%TO.P,J2,17,Pin_17*%
%TO.N,GND*%
X128540000Y-89000000D03*
%TO.P,J2,18,Pin_18*%
%TO.N,VBUS*%
X131080000Y-89000000D03*
%TD*%
D12*
%TO.P,J1,6,Shield*%
%TO.N,unconnected-(J1-Shield-Pad6)_2*%
X136945000Y-110130000D03*
D13*
%TO.N,unconnected-(J1-Shield-Pad6)_3*%
X133145000Y-109980000D03*
%TO.N,unconnected-(J1-Shield-Pad6)*%
X133145000Y-102530000D03*
D12*
%TO.N,unconnected-(J1-Shield-Pad6)_1*%
X136945000Y-102380000D03*
%TD*%
D10*
%TO.P,J3,1,Pin_1*%
%TO.N,/PA3*%
X87900000Y-114000000D03*
D11*
%TO.P,J3,2,Pin_2*%
%TO.N,/PA4*%
X90440000Y-114000000D03*
%TO.P,J3,3,Pin_3*%
%TO.N,/PA5*%
X92980000Y-114000000D03*
%TO.P,J3,4,Pin_4*%
%TO.N,/PA6*%
X95520000Y-114000000D03*
%TO.P,J3,5,Pin_5*%
%TO.N,/PA7*%
X98060000Y-114000000D03*
%TO.P,J3,6,Pin_6*%
%TO.N,/PB0*%
X100600000Y-114000000D03*
%TO.P,J3,7,Pin_7*%
%TO.N,/PB1*%
X103140000Y-114000000D03*
%TO.P,J3,8,Pin_8*%
%TO.N,/PB2*%
X105680000Y-114000000D03*
%TO.P,J3,9,Pin_9*%
%TO.N,/PB10*%
X108220000Y-114000000D03*
%TO.P,J3,10,Pin_10*%
%TO.N,/PB11*%
X110760000Y-114000000D03*
%TO.P,J3,11,Pin_11*%
%TO.N,/PB12*%
X113300000Y-114000000D03*
%TO.P,J3,12,Pin_12*%
%TO.N,/PB13*%
X115840000Y-114000000D03*
%TO.P,J3,13,Pin_13*%
%TO.N,/PB14*%
X118380000Y-114000000D03*
%TO.P,J3,14,Pin_14*%
%TO.N,/PB15*%
X120920000Y-114000000D03*
%TO.P,J3,15,Pin_15*%
%TO.N,/PA8*%
X123460000Y-114000000D03*
%TO.P,J3,16,Pin_16*%
%TO.N,/PA9*%
X126000000Y-114000000D03*
%TO.P,J3,17,Pin_17*%
%TO.N,/PA10*%
X128540000Y-114000000D03*
%TO.P,J3,18,Pin_18*%
%TO.N,/PA13*%
X131080000Y-114000000D03*
%TD*%
D14*
%TO.N,+3.3V*%
X105550000Y-109850000D03*
X109480025Y-108519975D03*
X116275000Y-103225000D03*
X97950000Y-107850000D03*
X110700000Y-93150000D03*
X121800000Y-93700000D03*
%TO.N,GND*%
X108703285Y-94353285D03*
X123600000Y-100800000D03*
X121400000Y-98100000D03*
X94100000Y-96000000D03*
X100710589Y-102089411D03*
X97300000Y-92050000D03*
X124350000Y-100800000D03*
X103361864Y-97388136D03*
X95900000Y-106662499D03*
X122200000Y-98100000D03*
X116700000Y-104789411D03*
X105450000Y-108550000D03*
X133350000Y-98600000D03*
X124350000Y-102400000D03*
X113650000Y-94400000D03*
X100260000Y-95700000D03*
X123800000Y-97300000D03*
X95750000Y-102112499D03*
X124350000Y-101750000D03*
X130950000Y-104955000D03*
%TO.N,+3.3VA*%
X98200000Y-100550000D03*
X101260589Y-97489411D03*
%TO.N,VBUS*%
X128950000Y-100900000D03*
X128950000Y-101650000D03*
X130250000Y-108050000D03*
X127950000Y-108050000D03*
X129150000Y-108050000D03*
X128950000Y-102400000D03*
X130200000Y-93800000D03*
%TO.N,/BOOT0*%
X129800000Y-97050000D03*
X110200000Y-99850000D03*
%TO.N,/PB9*%
X106225000Y-93625000D03*
X108950000Y-96300000D03*
%TO.N,/PA13*%
X122250000Y-105500000D03*
X124425000Y-107675000D03*
%TD*%
D15*
%TO.N,+3.3V*%
X97950000Y-108150000D02*
X100100000Y-110300000D01*
X97950000Y-107850000D02*
X97950000Y-108150000D01*
X110930025Y-108519975D02*
X116225000Y-103225000D01*
X109480025Y-108519975D02*
X110930025Y-108519975D01*
X116225000Y-103225000D02*
X116275000Y-103225000D01*
X121250000Y-93150000D02*
X121800000Y-93700000D01*
X105100000Y-110300000D02*
X105550000Y-109850000D01*
X110700000Y-93150000D02*
X121250000Y-93150000D01*
X100100000Y-110300000D02*
X105100000Y-110300000D01*
%TO.N,+3.3VA*%
X98200000Y-100550000D02*
X101260589Y-97489411D01*
%TO.N,VBUS*%
X131080000Y-93020000D02*
X131080000Y-89000000D01*
X130300000Y-93800000D02*
X131080000Y-93020000D01*
X130200000Y-93800000D02*
X130300000Y-93800000D01*
D16*
%TO.N,/BOOT0*%
X129100000Y-97050000D02*
X127000000Y-99150000D01*
X127000000Y-99150000D02*
X110900000Y-99150000D01*
X110900000Y-99150000D02*
X110200000Y-99850000D01*
X129800000Y-97050000D02*
X129100000Y-97050000D01*
%TO.N,/PB9*%
X106225000Y-93625000D02*
X106275000Y-93625000D01*
X106275000Y-93625000D02*
X108950000Y-96300000D01*
%TO.N,/PA13*%
X124425000Y-107675000D02*
X122250000Y-105500000D01*
%TD*%
%TA.AperFunction,Conductor*%
%TO.N,GND*%
G36*
X136003736Y-86500726D02*
G01*
X136293796Y-86518271D01*
X136308659Y-86520076D01*
X136590798Y-86571780D01*
X136605335Y-86575363D01*
X136879172Y-86660695D01*
X136893163Y-86666000D01*
X137154743Y-86783727D01*
X137167989Y-86790680D01*
X137413465Y-86939075D01*
X137425776Y-86947573D01*
X137651573Y-87124473D01*
X137662781Y-87134403D01*
X137865596Y-87337218D01*
X137875526Y-87348426D01*
X137995481Y-87501538D01*
X138052422Y-87574217D01*
X138060926Y-87586537D01*
X138148573Y-87731523D01*
X138209316Y-87832004D01*
X138216275Y-87845263D01*
X138333997Y-88106831D01*
X138339306Y-88120832D01*
X138424635Y-88394663D01*
X138428219Y-88409201D01*
X138479923Y-88691340D01*
X138481728Y-88706205D01*
X138499274Y-88996263D01*
X138499500Y-89003750D01*
X138499500Y-101907538D01*
X138479815Y-101974577D01*
X138427011Y-102020332D01*
X138357853Y-102030276D01*
X138294297Y-102001251D01*
X138265015Y-101963833D01*
X138235836Y-101906569D01*
X138189850Y-101816315D01*
X138128329Y-101731638D01*
X138090351Y-101679365D01*
X138090347Y-101679360D01*
X137970639Y-101559652D01*
X137970634Y-101559648D01*
X137833688Y-101460152D01*
X137833687Y-101460151D01*
X137833685Y-101460150D01*
X137786582Y-101436150D01*
X137682853Y-101383296D01*
X137521847Y-101330981D01*
X137354649Y-101304500D01*
X137354644Y-101304500D01*
X136535356Y-101304500D01*
X136535351Y-101304500D01*
X136368152Y-101330981D01*
X136207146Y-101383296D01*
X136056311Y-101460152D01*
X135919365Y-101559648D01*
X135919360Y-101559652D01*
X135799652Y-101679360D01*
X135799648Y-101679365D01*
X135700152Y-101816311D01*
X135623296Y-101967146D01*
X135570981Y-102128152D01*
X135544500Y-102295350D01*
X135544500Y-102464649D01*
X135570981Y-102631847D01*
X135623296Y-102792853D01*
X135665923Y-102876511D01*
X135697307Y-102938106D01*
X135700152Y-102943688D01*
X135799648Y-103080634D01*
X135799652Y-103080639D01*
X135919360Y-103200347D01*
X135919365Y-103200351D01*
X136038817Y-103287137D01*
X136056315Y-103299850D01*
X136152425Y-103348820D01*
X136207146Y-103376703D01*
X136207148Y-103376703D01*
X136207151Y-103376705D01*
X136293450Y-103404745D01*
X136368152Y-103429018D01*
X136535351Y-103455500D01*
X136535356Y-103455500D01*
X137354649Y-103455500D01*
X137521847Y-103429018D01*
X137682849Y-103376705D01*
X137833685Y-103299850D01*
X137970641Y-103200346D01*
X138090346Y-103080641D01*
X138189850Y-102943685D01*
X138265015Y-102796166D01*
X138312990Y-102745370D01*
X138380811Y-102728575D01*
X138446946Y-102751113D01*
X138490397Y-102805828D01*
X138499500Y-102852461D01*
X138499500Y-109657538D01*
X138479815Y-109724577D01*
X138427011Y-109770332D01*
X138357853Y-109780276D01*
X138294297Y-109751251D01*
X138265015Y-109713833D01*
X138207994Y-109601925D01*
X138189850Y-109566315D01*
X138162925Y-109529256D01*
X138090351Y-109429365D01*
X138090347Y-109429360D01*
X137970639Y-109309652D01*
X137970634Y-109309648D01*
X137833688Y-109210152D01*
X137833687Y-109210151D01*
X137833685Y-109210150D01*
X137777727Y-109181638D01*
X137682853Y-109133296D01*
X137521847Y-109080981D01*
X137354649Y-109054500D01*
X137354644Y-109054500D01*
X136535356Y-109054500D01*
X136535351Y-109054500D01*
X136368152Y-109080981D01*
X136207146Y-109133296D01*
X136056311Y-109210152D01*
X135919365Y-109309648D01*
X135919360Y-109309652D01*
X135799652Y-109429360D01*
X135799648Y-109429365D01*
X135700152Y-109566311D01*
X135623296Y-109717146D01*
X135570981Y-109878152D01*
X135544500Y-110045350D01*
X135544500Y-110214649D01*
X135570981Y-110381847D01*
X135623296Y-110542853D01*
X135700152Y-110693688D01*
X135799648Y-110830634D01*
X135799652Y-110830639D01*
X135919360Y-110950347D01*
X135919365Y-110950351D01*
X135939648Y-110965087D01*
X136056315Y-111049850D01*
X136152425Y-111098820D01*
X136207146Y-111126703D01*
X136207148Y-111126703D01*
X136207151Y-111126705D01*
X136293450Y-111154745D01*
X136368152Y-111179018D01*
X136535351Y-111205500D01*
X136535356Y-111205500D01*
X137354649Y-111205500D01*
X137521847Y-111179018D01*
X137533216Y-111175324D01*
X137682849Y-111126705D01*
X137833685Y-111049850D01*
X137970641Y-110950346D01*
X138090346Y-110830641D01*
X138189850Y-110693685D01*
X138265015Y-110546166D01*
X138312990Y-110495370D01*
X138380811Y-110478575D01*
X138446946Y-110501113D01*
X138490397Y-110555828D01*
X138499500Y-110602461D01*
X138499500Y-113996249D01*
X138499274Y-114003736D01*
X138481728Y-114293794D01*
X138479923Y-114308659D01*
X138428219Y-114590798D01*
X138424635Y-114605336D01*
X138339306Y-114879167D01*
X138333997Y-114893168D01*
X138216275Y-115154736D01*
X138209316Y-115167995D01*
X138060928Y-115413459D01*
X138052422Y-115425782D01*
X137875526Y-115651573D01*
X137865596Y-115662781D01*
X137662781Y-115865596D01*
X137651573Y-115875526D01*
X137425782Y-116052422D01*
X137413459Y-116060928D01*
X137167995Y-116209316D01*
X137154736Y-116216275D01*
X136893168Y-116333997D01*
X136879167Y-116339306D01*
X136605336Y-116424635D01*
X136590798Y-116428219D01*
X136308659Y-116479923D01*
X136293794Y-116481728D01*
X136003736Y-116499274D01*
X135996249Y-116499500D01*
X83003751Y-116499500D01*
X82996264Y-116499274D01*
X82706205Y-116481728D01*
X82691340Y-116479923D01*
X82409201Y-116428219D01*
X82394663Y-116424635D01*
X82120832Y-116339306D01*
X82106831Y-116333997D01*
X81845263Y-116216275D01*
X81832004Y-116209316D01*
X81586540Y-116060928D01*
X81574217Y-116052422D01*
X81348426Y-115875526D01*
X81337218Y-115865596D01*
X81134403Y-115662781D01*
X81124473Y-115651573D01*
X80947573Y-115425776D01*
X80939075Y-115413465D01*
X80790680Y-115167989D01*
X80783727Y-115154743D01*
X80666000Y-114893163D01*
X80660693Y-114879167D01*
X80583505Y-114631463D01*
X80575363Y-114605335D01*
X80571780Y-114590798D01*
X80554998Y-114499223D01*
X80520075Y-114308657D01*
X80518271Y-114293794D01*
X80500726Y-114003736D01*
X80500500Y-113996249D01*
X80500500Y-113897648D01*
X81699500Y-113897648D01*
X81699500Y-114102351D01*
X81731522Y-114304534D01*
X81794781Y-114499223D01*
X81841442Y-114590798D01*
X81873644Y-114653999D01*
X81887715Y-114681613D01*
X82008028Y-114847213D01*
X82152786Y-114991971D01*
X82290928Y-115092335D01*
X82318390Y-115112287D01*
X82402319Y-115155051D01*
X82500776Y-115205218D01*
X82500778Y-115205218D01*
X82500781Y-115205220D01*
X82605137Y-115239127D01*
X82695465Y-115268477D01*
X82796557Y-115284488D01*
X82897648Y-115300500D01*
X82897649Y-115300500D01*
X83102351Y-115300500D01*
X83102352Y-115300500D01*
X83304534Y-115268477D01*
X83499219Y-115205220D01*
X83681610Y-115112287D01*
X83794726Y-115030104D01*
X83847213Y-114991971D01*
X83847215Y-114991968D01*
X83847219Y-114991966D01*
X83991966Y-114847219D01*
X83991968Y-114847215D01*
X83991971Y-114847213D01*
X84093247Y-114707816D01*
X84112287Y-114681610D01*
X84205220Y-114499219D01*
X84268477Y-114304534D01*
X84300500Y-114102352D01*
X84300500Y-113897648D01*
X84268477Y-113695466D01*
X84264673Y-113683760D01*
X84239127Y-113605137D01*
X84205220Y-113500781D01*
X84205218Y-113500778D01*
X84205218Y-113500776D01*
X84112287Y-113318390D01*
X84005705Y-113171691D01*
X84005704Y-113171690D01*
X83991967Y-113152782D01*
X83941320Y-113102135D01*
X86549500Y-113102135D01*
X86549500Y-114897870D01*
X86549501Y-114897876D01*
X86555908Y-114957483D01*
X86606202Y-115092328D01*
X86606206Y-115092335D01*
X86692452Y-115207544D01*
X86692455Y-115207547D01*
X86807664Y-115293793D01*
X86807671Y-115293797D01*
X86942517Y-115344091D01*
X86942516Y-115344091D01*
X86949444Y-115344835D01*
X87002127Y-115350500D01*
X88797872Y-115350499D01*
X88857483Y-115344091D01*
X88992331Y-115293796D01*
X89107546Y-115207546D01*
X89193796Y-115092331D01*
X89242810Y-114960916D01*
X89284681Y-114904984D01*
X89350145Y-114880566D01*
X89418418Y-114895417D01*
X89446673Y-114916569D01*
X89560213Y-115030109D01*
X89732179Y-115155048D01*
X89732181Y-115155049D01*
X89732184Y-115155051D01*
X89921588Y-115251557D01*
X90123757Y-115317246D01*
X90333713Y-115350500D01*
X90333714Y-115350500D01*
X90546286Y-115350500D01*
X90546287Y-115350500D01*
X90756243Y-115317246D01*
X90958412Y-115251557D01*
X91147816Y-115155051D01*
X91234138Y-115092335D01*
X91319786Y-115030109D01*
X91319788Y-115030106D01*
X91319792Y-115030104D01*
X91470104Y-114879792D01*
X91470106Y-114879788D01*
X91470109Y-114879786D01*
X91595048Y-114707820D01*
X91595047Y-114707820D01*
X91595051Y-114707816D01*
X91599514Y-114699054D01*
X91647488Y-114648259D01*
X91715308Y-114631463D01*
X91781444Y-114653999D01*
X91820486Y-114699056D01*
X91824951Y-114707820D01*
X91949890Y-114879786D01*
X92100213Y-115030109D01*
X92272179Y-115155048D01*
X92272181Y-115155049D01*
X92272184Y-115155051D01*
X92461588Y-115251557D01*
X92663757Y-115317246D01*
X92873713Y-115350500D01*
X92873714Y-115350500D01*
X93086286Y-115350500D01*
X93086287Y-115350500D01*
X93296243Y-115317246D01*
X93498412Y-115251557D01*
X93687816Y-115155051D01*
X93774138Y-115092335D01*
X93859786Y-115030109D01*
X93859788Y-115030106D01*
X93859792Y-115030104D01*
X94010104Y-114879792D01*
X94010106Y-114879788D01*
X94010109Y-114879786D01*
X94135048Y-114707820D01*
X94135047Y-114707820D01*
X94135051Y-114707816D01*
X94139514Y-114699054D01*
X94187488Y-114648259D01*
X94255308Y-114631463D01*
X94321444Y-114653999D01*
X94360486Y-114699056D01*
X94364951Y-114707820D01*
X94489890Y-114879786D01*
X94640213Y-115030109D01*
X94812179Y-115155048D01*
X94812181Y-115155049D01*
X94812184Y-115155051D01*
X95001588Y-115251557D01*
X95203757Y-115317246D01*
X95413713Y-115350500D01*
X95413714Y-115350500D01*
X95626286Y-115350500D01*
X95626287Y-115350500D01*
X95836243Y-115317246D01*
X96038412Y-115251557D01*
X96227816Y-115155051D01*
X96314138Y-115092335D01*
X96399786Y-115030109D01*
X96399788Y-115030106D01*
X96399792Y-115030104D01*
X96550104Y-114879792D01*
X96550106Y-114879788D01*
X96550109Y-114879786D01*
X96675048Y-114707820D01*
X96675047Y-114707820D01*
X96675051Y-114707816D01*
X96679514Y-114699054D01*
X96727488Y-114648259D01*
X96795308Y-114631463D01*
X96861444Y-114653999D01*
X96900486Y-114699056D01*
X96904951Y-114707820D01*
X97029890Y-114879786D01*
X97180213Y-115030109D01*
X97352179Y-115155048D01*
X97352181Y-115155049D01*
X97352184Y-115155051D01*
X97541588Y-115251557D01*
X97743757Y-115317246D01*
X97953713Y-115350500D01*
X97953714Y-115350500D01*
X98166286Y-115350500D01*
X98166287Y-115350500D01*
X98376243Y-115317246D01*
X98578412Y-115251557D01*
X98767816Y-115155051D01*
X98854138Y-115092335D01*
X98939786Y-115030109D01*
X98939788Y-115030106D01*
X98939792Y-115030104D01*
X99090104Y-114879792D01*
X99090106Y-114879788D01*
X99090109Y-114879786D01*
X99215048Y-114707820D01*
X99215047Y-114707820D01*
X99215051Y-114707816D01*
X99219514Y-114699054D01*
X99267488Y-114648259D01*
X99335308Y-114631463D01*
X99401444Y-114653999D01*
X99440486Y-114699056D01*
X99444951Y-114707820D01*
X99569890Y-114879786D01*
X99720213Y-115030109D01*
X99892179Y-115155048D01*
X99892181Y-115155049D01*
X99892184Y-115155051D01*
X100081588Y-115251557D01*
X100283757Y-115317246D01*
X100493713Y-115350500D01*
X100493714Y-115350500D01*
X100706286Y-115350500D01*
X100706287Y-115350500D01*
X100916243Y-115317246D01*
X101118412Y-115251557D01*
X101307816Y-115155051D01*
X101394138Y-115092335D01*
X101479786Y-115030109D01*
X101479788Y-115030106D01*
X101479792Y-115030104D01*
X101630104Y-114879792D01*
X101630106Y-114879788D01*
X101630109Y-114879786D01*
X101755048Y-114707820D01*
X101755047Y-114707820D01*
X101755051Y-114707816D01*
X101759514Y-114699054D01*
X101807488Y-114648259D01*
X101875308Y-114631463D01*
X101941444Y-114653999D01*
X101980486Y-114699056D01*
X101984951Y-114707820D01*
X102109890Y-114879786D01*
X102260213Y-115030109D01*
X102432179Y-115155048D01*
X102432181Y-115155049D01*
X102432184Y-115155051D01*
X102621588Y-115251557D01*
X102823757Y-115317246D01*
X103033713Y-115350500D01*
X103033714Y-115350500D01*
X103246286Y-115350500D01*
X103246287Y-115350500D01*
X103456243Y-115317246D01*
X103658412Y-115251557D01*
X103847816Y-115155051D01*
X103934138Y-115092335D01*
X104019786Y-115030109D01*
X104019788Y-115030106D01*
X104019792Y-115030104D01*
X104170104Y-114879792D01*
X104170106Y-114879788D01*
X104170109Y-114879786D01*
X104295048Y-114707820D01*
X104295047Y-114707820D01*
X104295051Y-114707816D01*
X104299514Y-114699054D01*
X104347488Y-114648259D01*
X104415308Y-114631463D01*
X104481444Y-114653999D01*
X104520486Y-114699056D01*
X104524951Y-114707820D01*
X104649890Y-114879786D01*
X104800213Y-115030109D01*
X104972179Y-115155048D01*
X104972181Y-115155049D01*
X104972184Y-115155051D01*
X105161588Y-115251557D01*
X105363757Y-115317246D01*
X105573713Y-115350500D01*
X105573714Y-115350500D01*
X105786286Y-115350500D01*
X105786287Y-115350500D01*
X105996243Y-115317246D01*
X106198412Y-115251557D01*
X106387816Y-115155051D01*
X106474138Y-115092335D01*
X106559786Y-115030109D01*
X106559788Y-115030106D01*
X106559792Y-115030104D01*
X106710104Y-114879792D01*
X106710106Y-114879788D01*
X106710109Y-114879786D01*
X106835048Y-114707820D01*
X106835047Y-114707820D01*
X106835051Y-114707816D01*
X106839514Y-114699054D01*
X106887488Y-114648259D01*
X106955308Y-114631463D01*
X107021444Y-114653999D01*
X107060486Y-114699056D01*
X107064951Y-114707820D01*
X107189890Y-114879786D01*
X107340213Y-115030109D01*
X107512179Y-115155048D01*
X107512181Y-115155049D01*
X107512184Y-115155051D01*
X107701588Y-115251557D01*
X107903757Y-115317246D01*
X108113713Y-115350500D01*
X108113714Y-115350500D01*
X108326286Y-115350500D01*
X108326287Y-115350500D01*
X108536243Y-115317246D01*
X108738412Y-115251557D01*
X108927816Y-115155051D01*
X109014138Y-115092335D01*
X109099786Y-115030109D01*
X109099788Y-115030106D01*
X109099792Y-115030104D01*
X109250104Y-114879792D01*
X109250106Y-114879788D01*
X109250109Y-114879786D01*
X109375048Y-114707820D01*
X109375047Y-114707820D01*
X109375051Y-114707816D01*
X109379514Y-114699054D01*
X109427488Y-114648259D01*
X109495308Y-114631463D01*
X109561444Y-114653999D01*
X109600486Y-114699056D01*
X109604951Y-114707820D01*
X109729890Y-114879786D01*
X109880213Y-115030109D01*
X110052179Y-115155048D01*
X110052181Y-115155049D01*
X110052184Y-115155051D01*
X110241588Y-115251557D01*
X110443757Y-115317246D01*
X110653713Y-115350500D01*
X110653714Y-115350500D01*
X110866286Y-115350500D01*
X110866287Y-115350500D01*
X111076243Y-115317246D01*
X111278412Y-115251557D01*
X111467816Y-115155051D01*
X111554138Y-115092335D01*
X111639786Y-115030109D01*
X111639788Y-115030106D01*
X111639792Y-115030104D01*
X111790104Y-114879792D01*
X111790106Y-114879788D01*
X111790109Y-114879786D01*
X111915048Y-114707820D01*
X111915047Y-114707820D01*
X111915051Y-114707816D01*
X111919514Y-114699054D01*
X111967488Y-114648259D01*
X112035308Y-114631463D01*
X112101444Y-114653999D01*
X112140486Y-114699056D01*
X112144951Y-114707820D01*
X112269890Y-114879786D01*
X112420213Y-115030109D01*
X112592179Y-115155048D01*
X112592181Y-115155049D01*
X112592184Y-115155051D01*
X112781588Y-115251557D01*
X112983757Y-115317246D01*
X113193713Y-115350500D01*
X113193714Y-115350500D01*
X113406286Y-115350500D01*
X113406287Y-115350500D01*
X113616243Y-115317246D01*
X113818412Y-115251557D01*
X114007816Y-115155051D01*
X114094138Y-115092335D01*
X114179786Y-115030109D01*
X114179788Y-115030106D01*
X114179792Y-115030104D01*
X114330104Y-114879792D01*
X114330106Y-114879788D01*
X114330109Y-114879786D01*
X114455048Y-114707820D01*
X114455047Y-114707820D01*
X114455051Y-114707816D01*
X114459514Y-114699054D01*
X114507488Y-114648259D01*
X114575308Y-114631463D01*
X114641444Y-114653999D01*
X114680486Y-114699056D01*
X114684951Y-114707820D01*
X114809890Y-114879786D01*
X114960213Y-115030109D01*
X115132179Y-115155048D01*
X115132181Y-115155049D01*
X115132184Y-115155051D01*
X115321588Y-115251557D01*
X115523757Y-115317246D01*
X115733713Y-115350500D01*
X115733714Y-115350500D01*
X115946286Y-115350500D01*
X115946287Y-115350500D01*
X116156243Y-115317246D01*
X116358412Y-115251557D01*
X116547816Y-115155051D01*
X116634138Y-115092335D01*
X116719786Y-115030109D01*
X116719788Y-115030106D01*
X116719792Y-115030104D01*
X116870104Y-114879792D01*
X116870106Y-114879788D01*
X116870109Y-114879786D01*
X116995048Y-114707820D01*
X116995047Y-114707820D01*
X116995051Y-114707816D01*
X116999514Y-114699054D01*
X117047488Y-114648259D01*
X117115308Y-114631463D01*
X117181444Y-114653999D01*
X117220486Y-114699056D01*
X117224951Y-114707820D01*
X117349890Y-114879786D01*
X117500213Y-115030109D01*
X117672179Y-115155048D01*
X117672181Y-115155049D01*
X117672184Y-115155051D01*
X117861588Y-115251557D01*
X118063757Y-115317246D01*
X118273713Y-115350500D01*
X118273714Y-115350500D01*
X118486286Y-115350500D01*
X118486287Y-115350500D01*
X118696243Y-115317246D01*
X118898412Y-115251557D01*
X119087816Y-115155051D01*
X119174138Y-115092335D01*
X119259786Y-115030109D01*
X119259788Y-115030106D01*
X119259792Y-115030104D01*
X119410104Y-114879792D01*
X119410106Y-114879788D01*
X119410109Y-114879786D01*
X119535048Y-114707820D01*
X119535047Y-114707820D01*
X119535051Y-114707816D01*
X119539514Y-114699054D01*
X119587488Y-114648259D01*
X119655308Y-114631463D01*
X119721444Y-114653999D01*
X119760486Y-114699056D01*
X119764951Y-114707820D01*
X119889890Y-114879786D01*
X120040213Y-115030109D01*
X120212179Y-115155048D01*
X120212181Y-115155049D01*
X120212184Y-115155051D01*
X120401588Y-115251557D01*
X120603757Y-115317246D01*
X120813713Y-115350500D01*
X120813714Y-115350500D01*
X121026286Y-115350500D01*
X121026287Y-115350500D01*
X121236243Y-115317246D01*
X121438412Y-115251557D01*
X121627816Y-115155051D01*
X121714138Y-115092335D01*
X121799786Y-115030109D01*
X121799788Y-115030106D01*
X121799792Y-115030104D01*
X121950104Y-114879792D01*
X121950106Y-114879788D01*
X121950109Y-114879786D01*
X122075048Y-114707820D01*
X122075047Y-114707820D01*
X122075051Y-114707816D01*
X122079514Y-114699054D01*
X122127488Y-114648259D01*
X122195308Y-114631463D01*
X122261444Y-114653999D01*
X122300486Y-114699056D01*
X122304951Y-114707820D01*
X122429890Y-114879786D01*
X122580213Y-115030109D01*
X122752179Y-115155048D01*
X122752181Y-115155049D01*
X122752184Y-115155051D01*
X122941588Y-115251557D01*
X123143757Y-115317246D01*
X123353713Y-115350500D01*
X123353714Y-115350500D01*
X123566286Y-115350500D01*
X123566287Y-115350500D01*
X123776243Y-115317246D01*
X123978412Y-115251557D01*
X124167816Y-115155051D01*
X124254138Y-115092335D01*
X124339786Y-115030109D01*
X124339788Y-115030106D01*
X124339792Y-115030104D01*
X124490104Y-114879792D01*
X124490106Y-114879788D01*
X124490109Y-114879786D01*
X124615048Y-114707820D01*
X124615047Y-114707820D01*
X124615051Y-114707816D01*
X124619514Y-114699054D01*
X124667488Y-114648259D01*
X124735308Y-114631463D01*
X124801444Y-114653999D01*
X124840486Y-114699056D01*
X124844951Y-114707820D01*
X124969890Y-114879786D01*
X125120213Y-115030109D01*
X125292179Y-115155048D01*
X125292181Y-115155049D01*
X125292184Y-115155051D01*
X125481588Y-115251557D01*
X125683757Y-115317246D01*
X125893713Y-115350500D01*
X125893714Y-115350500D01*
X126106286Y-115350500D01*
X126106287Y-115350500D01*
X126316243Y-115317246D01*
X126518412Y-115251557D01*
X126707816Y-115155051D01*
X126794138Y-115092335D01*
X126879786Y-115030109D01*
X126879788Y-115030106D01*
X126879792Y-115030104D01*
X127030104Y-114879792D01*
X127030106Y-114879788D01*
X127030109Y-114879786D01*
X127155048Y-114707820D01*
X127155047Y-114707820D01*
X127155051Y-114707816D01*
X127159514Y-114699054D01*
X127207488Y-114648259D01*
X127275308Y-114631463D01*
X127341444Y-114653999D01*
X127380486Y-114699056D01*
X127384951Y-114707820D01*
X127509890Y-114879786D01*
X127660213Y-115030109D01*
X127832179Y-115155048D01*
X127832181Y-115155049D01*
X127832184Y-115155051D01*
X128021588Y-115251557D01*
X128223757Y-115317246D01*
X128433713Y-115350500D01*
X128433714Y-115350500D01*
X128646286Y-115350500D01*
X128646287Y-115350500D01*
X128856243Y-115317246D01*
X129058412Y-115251557D01*
X129247816Y-115155051D01*
X129334138Y-115092335D01*
X129419786Y-115030109D01*
X129419788Y-115030106D01*
X129419792Y-115030104D01*
X129570104Y-114879792D01*
X129570106Y-114879788D01*
X129570109Y-114879786D01*
X129695048Y-114707820D01*
X129695047Y-114707820D01*
X129695051Y-114707816D01*
X129699514Y-114699054D01*
X129747488Y-114648259D01*
X129815308Y-114631463D01*
X129881444Y-114653999D01*
X129920486Y-114699056D01*
X129924951Y-114707820D01*
X130049890Y-114879786D01*
X130200213Y-115030109D01*
X130372179Y-115155048D01*
X130372181Y-115155049D01*
X130372184Y-115155051D01*
X130561588Y-115251557D01*
X130763757Y-115317246D01*
X130973713Y-115350500D01*
X130973714Y-115350500D01*
X131186286Y-115350500D01*
X131186287Y-115350500D01*
X131396243Y-115317246D01*
X131598412Y-115251557D01*
X131787816Y-115155051D01*
X131874138Y-115092335D01*
X131959786Y-115030109D01*
X131959788Y-115030106D01*
X131959792Y-115030104D01*
X132110104Y-114879792D01*
X132110106Y-114879788D01*
X132110109Y-114879786D01*
X132235048Y-114707820D01*
X132235047Y-114707820D01*
X132235051Y-114707816D01*
X132331557Y-114518412D01*
X132397246Y-114316243D01*
X132430500Y-114106287D01*
X132430500Y-113897648D01*
X134699500Y-113897648D01*
X134699500Y-114102351D01*
X134731522Y-114304534D01*
X134794781Y-114499223D01*
X134841442Y-114590798D01*
X134873644Y-114653999D01*
X134887715Y-114681613D01*
X135008028Y-114847213D01*
X135152786Y-114991971D01*
X135290928Y-115092335D01*
X135318390Y-115112287D01*
X135402319Y-115155051D01*
X135500776Y-115205218D01*
X135500778Y-115205218D01*
X135500781Y-115205220D01*
X135605137Y-115239127D01*
X135695465Y-115268477D01*
X135796557Y-115284488D01*
X135897648Y-115300500D01*
X135897649Y-115300500D01*
X136102351Y-115300500D01*
X136102352Y-115300500D01*
X136304534Y-115268477D01*
X136499219Y-115205220D01*
X136681610Y-115112287D01*
X136794726Y-115030104D01*
X136847213Y-114991971D01*
X136847215Y-114991968D01*
X136847219Y-114991966D01*
X136991966Y-114847219D01*
X136991968Y-114847215D01*
X136991971Y-114847213D01*
X137093247Y-114707816D01*
X137112287Y-114681610D01*
X137205220Y-114499219D01*
X137268477Y-114304534D01*
X137300500Y-114102352D01*
X137300500Y-113897648D01*
X137268477Y-113695466D01*
X137264673Y-113683760D01*
X137239127Y-113605137D01*
X137205220Y-113500781D01*
X137205218Y-113500778D01*
X137205218Y-113500776D01*
X137171503Y-113434607D01*
X137112287Y-113318390D01*
X137099613Y-113300946D01*
X136991971Y-113152786D01*
X136847213Y-113008028D01*
X136681613Y-112887715D01*
X136681612Y-112887714D01*
X136681610Y-112887713D01*
X136597681Y-112844949D01*
X136499223Y-112794781D01*
X136304534Y-112731522D01*
X136129995Y-112703878D01*
X136102352Y-112699500D01*
X135897648Y-112699500D01*
X135873329Y-112703351D01*
X135695465Y-112731522D01*
X135500776Y-112794781D01*
X135318386Y-112887715D01*
X135152786Y-113008028D01*
X135008028Y-113152786D01*
X134887715Y-113318386D01*
X134794781Y-113500776D01*
X134731522Y-113695465D01*
X134699500Y-113897648D01*
X132430500Y-113897648D01*
X132430500Y-113893713D01*
X132397246Y-113683757D01*
X132331557Y-113481588D01*
X132235051Y-113292184D01*
X132235049Y-113292181D01*
X132235048Y-113292179D01*
X132110109Y-113120213D01*
X131959786Y-112969890D01*
X131787820Y-112844951D01*
X131598414Y-112748444D01*
X131598413Y-112748443D01*
X131598412Y-112748443D01*
X131396243Y-112682754D01*
X131396241Y-112682753D01*
X131396240Y-112682753D01*
X131234957Y-112657208D01*
X131186287Y-112649500D01*
X130973713Y-112649500D01*
X130925042Y-112657208D01*
X130763760Y-112682753D01*
X130561585Y-112748444D01*
X130372179Y-112844951D01*
X130200213Y-112969890D01*
X130049890Y-113120213D01*
X129924949Y-113292182D01*
X129920484Y-113300946D01*
X129872509Y-113351742D01*
X129804688Y-113368536D01*
X129738553Y-113345998D01*
X129699516Y-113300946D01*
X129695050Y-113292182D01*
X129570109Y-113120213D01*
X129419786Y-112969890D01*
X129247820Y-112844951D01*
X129058414Y-112748444D01*
X129058413Y-112748443D01*
X129058412Y-112748443D01*
X128856243Y-112682754D01*
X128856241Y-112682753D01*
X128856240Y-112682753D01*
X128694957Y-112657208D01*
X128646287Y-112649500D01*
X128433713Y-112649500D01*
X128385042Y-112657208D01*
X128223760Y-112682753D01*
X128021585Y-112748444D01*
X127832179Y-112844951D01*
X127660213Y-112969890D01*
X127509890Y-113120213D01*
X127384949Y-113292182D01*
X127380484Y-113300946D01*
X127332509Y-113351742D01*
X127264688Y-113368536D01*
X127198553Y-113345998D01*
X127159516Y-113300946D01*
X127155050Y-113292182D01*
X127030109Y-113120213D01*
X126879786Y-112969890D01*
X126707820Y-112844951D01*
X126518414Y-112748444D01*
X126518413Y-112748443D01*
X126518412Y-112748443D01*
X126316243Y-112682754D01*
X126316241Y-112682753D01*
X126316240Y-112682753D01*
X126154957Y-112657208D01*
X126106287Y-112649500D01*
X125893713Y-112649500D01*
X125845042Y-112657208D01*
X125683760Y-112682753D01*
X125481585Y-112748444D01*
X125292179Y-112844951D01*
X125120213Y-112969890D01*
X124969890Y-113120213D01*
X124844949Y-113292182D01*
X124840484Y-113300946D01*
X124792509Y-113351742D01*
X124724688Y-113368536D01*
X124658553Y-113345998D01*
X124619516Y-113300946D01*
X124615050Y-113292182D01*
X124490109Y-113120213D01*
X124339786Y-112969890D01*
X124167820Y-112844951D01*
X123978414Y-112748444D01*
X123978413Y-112748443D01*
X123978412Y-112748443D01*
X123776243Y-112682754D01*
X123776241Y-112682753D01*
X123776240Y-112682753D01*
X123614957Y-112657208D01*
X123566287Y-112649500D01*
X123353713Y-112649500D01*
X123305042Y-112657208D01*
X123143760Y-112682753D01*
X122941585Y-112748444D01*
X122752179Y-112844951D01*
X122580213Y-112969890D01*
X122429890Y-113120213D01*
X122304949Y-113292182D01*
X122300484Y-113300946D01*
X122252509Y-113351742D01*
X122184688Y-113368536D01*
X122118553Y-113345998D01*
X122079516Y-113300946D01*
X122075050Y-113292182D01*
X121950109Y-113120213D01*
X121799786Y-112969890D01*
X121627820Y-112844951D01*
X121438414Y-112748444D01*
X121438413Y-112748443D01*
X121438412Y-112748443D01*
X121236243Y-112682754D01*
X121236241Y-112682753D01*
X121236240Y-112682753D01*
X121074957Y-112657208D01*
X121026287Y-112649500D01*
X120813713Y-112649500D01*
X120765042Y-112657208D01*
X120603760Y-112682753D01*
X120401585Y-112748444D01*
X120212179Y-112844951D01*
X120040213Y-112969890D01*
X119889890Y-113120213D01*
X119764949Y-113292182D01*
X119760484Y-113300946D01*
X119712509Y-113351742D01*
X119644688Y-113368536D01*
X119578553Y-113345998D01*
X119539516Y-113300946D01*
X119535050Y-113292182D01*
X119410109Y-113120213D01*
X119259786Y-112969890D01*
X119087820Y-112844951D01*
X118898414Y-112748444D01*
X118898413Y-112748443D01*
X118898412Y-112748443D01*
X118696243Y-112682754D01*
X118696241Y-112682753D01*
X118696240Y-112682753D01*
X118534957Y-112657208D01*
X118486287Y-112649500D01*
X118273713Y-112649500D01*
X118225042Y-112657208D01*
X118063760Y-112682753D01*
X117861585Y-112748444D01*
X117672179Y-112844951D01*
X117500213Y-112969890D01*
X117349890Y-113120213D01*
X117224949Y-113292182D01*
X117220484Y-113300946D01*
X117172509Y-113351742D01*
X117104688Y-113368536D01*
X117038553Y-113345998D01*
X116999516Y-113300946D01*
X116995050Y-113292182D01*
X116870109Y-113120213D01*
X116719786Y-112969890D01*
X116547820Y-112844951D01*
X116358414Y-112748444D01*
X116358413Y-112748443D01*
X116358412Y-112748443D01*
X116156243Y-112682754D01*
X116156241Y-112682753D01*
X116156240Y-112682753D01*
X115994957Y-112657208D01*
X115946287Y-112649500D01*
X115733713Y-112649500D01*
X115685042Y-112657208D01*
X115523760Y-112682753D01*
X115321585Y-112748444D01*
X115132179Y-112844951D01*
X114960213Y-112969890D01*
X114809890Y-113120213D01*
X114684949Y-113292182D01*
X114680484Y-113300946D01*
X114632509Y-113351742D01*
X114564688Y-113368536D01*
X114498553Y-113345998D01*
X114459516Y-113300946D01*
X114455050Y-113292182D01*
X114330109Y-113120213D01*
X114179786Y-112969890D01*
X114007820Y-112844951D01*
X113818414Y-112748444D01*
X113818413Y-112748443D01*
X113818412Y-112748443D01*
X113616243Y-112682754D01*
X113616241Y-112682753D01*
X113616240Y-112682753D01*
X113454957Y-112657208D01*
X113406287Y-112649500D01*
X113193713Y-112649500D01*
X113145042Y-112657208D01*
X112983760Y-112682753D01*
X112781585Y-112748444D01*
X112592179Y-112844951D01*
X112420213Y-112969890D01*
X112269890Y-113120213D01*
X112144949Y-113292182D01*
X112140484Y-113300946D01*
X112092509Y-113351742D01*
X112024688Y-113368536D01*
X111958553Y-113345998D01*
X111919516Y-113300946D01*
X111915050Y-113292182D01*
X111790109Y-113120213D01*
X111639786Y-112969890D01*
X111467820Y-112844951D01*
X111278414Y-112748444D01*
X111278413Y-112748443D01*
X111278412Y-112748443D01*
X111076243Y-112682754D01*
X111076241Y-112682753D01*
X111076240Y-112682753D01*
X110914957Y-112657208D01*
X110866287Y-112649500D01*
X110653713Y-112649500D01*
X110605042Y-112657208D01*
X110443760Y-112682753D01*
X110241585Y-112748444D01*
X110052179Y-112844951D01*
X109880213Y-112969890D01*
X109729890Y-113120213D01*
X109604949Y-113292182D01*
X109600484Y-113300946D01*
X109552509Y-113351742D01*
X109484688Y-113368536D01*
X109418553Y-113345998D01*
X109379516Y-113300946D01*
X109375050Y-113292182D01*
X109250109Y-113120213D01*
X109099786Y-112969890D01*
X108927820Y-112844951D01*
X108738414Y-112748444D01*
X108738413Y-112748443D01*
X108738412Y-112748443D01*
X108536243Y-112682754D01*
X108536241Y-112682753D01*
X108536240Y-112682753D01*
X108374957Y-112657208D01*
X108326287Y-112649500D01*
X108113713Y-112649500D01*
X108065042Y-112657208D01*
X107903760Y-112682753D01*
X107701585Y-112748444D01*
X107512179Y-112844951D01*
X107340213Y-112969890D01*
X107189890Y-113120213D01*
X107064949Y-113292182D01*
X107060484Y-113300946D01*
X107012509Y-113351742D01*
X106944688Y-113368536D01*
X106878553Y-113345998D01*
X106839516Y-113300946D01*
X106835050Y-113292182D01*
X106710109Y-113120213D01*
X106559786Y-112969890D01*
X106387820Y-112844951D01*
X106198414Y-112748444D01*
X106198413Y-112748443D01*
X106198412Y-112748443D01*
X105996243Y-112682754D01*
X105996241Y-112682753D01*
X105996240Y-112682753D01*
X105834957Y-112657208D01*
X105786287Y-112649500D01*
X105573713Y-112649500D01*
X105525042Y-112657208D01*
X105363760Y-112682753D01*
X105161585Y-112748444D01*
X104972179Y-112844951D01*
X104800213Y-112969890D01*
X104649890Y-113120213D01*
X104524949Y-113292182D01*
X104520484Y-113300946D01*
X104472509Y-113351742D01*
X104404688Y-113368536D01*
X104338553Y-113345998D01*
X104299516Y-113300946D01*
X104295050Y-113292182D01*
X104170109Y-113120213D01*
X104019786Y-112969890D01*
X103847820Y-112844951D01*
X103658414Y-112748444D01*
X103658413Y-112748443D01*
X103658412Y-112748443D01*
X103456243Y-112682754D01*
X103456241Y-112682753D01*
X103456240Y-112682753D01*
X103294957Y-112657208D01*
X103246287Y-112649500D01*
X103033713Y-112649500D01*
X102985042Y-112657208D01*
X102823760Y-112682753D01*
X102621585Y-112748444D01*
X102432179Y-112844951D01*
X102260213Y-112969890D01*
X102109890Y-113120213D01*
X101984949Y-113292182D01*
X101980484Y-113300946D01*
X101932509Y-113351742D01*
X101864688Y-113368536D01*
X101798553Y-113345998D01*
X101759516Y-113300946D01*
X101755050Y-113292182D01*
X101630109Y-113120213D01*
X101479786Y-112969890D01*
X101307820Y-112844951D01*
X101118414Y-112748444D01*
X101118413Y-112748443D01*
X101118412Y-112748443D01*
X100916243Y-112682754D01*
X100916241Y-112682753D01*
X100916240Y-112682753D01*
X100754957Y-112657208D01*
X100706287Y-112649500D01*
X100493713Y-112649500D01*
X100445042Y-112657208D01*
X100283760Y-112682753D01*
X100081585Y-112748444D01*
X99892179Y-112844951D01*
X99720213Y-112969890D01*
X99569890Y-113120213D01*
X99444949Y-113292182D01*
X99440484Y-113300946D01*
X99392509Y-113351742D01*
X99324688Y-113368536D01*
X99258553Y-113345998D01*
X99219516Y-113300946D01*
X99215050Y-113292182D01*
X99090109Y-113120213D01*
X98939786Y-112969890D01*
X98767820Y-112844951D01*
X98578414Y-112748444D01*
X98578413Y-112748443D01*
X98578412Y-112748443D01*
X98376243Y-112682754D01*
X98376241Y-112682753D01*
X98376240Y-112682753D01*
X98214957Y-112657208D01*
X98166287Y-112649500D01*
X97953713Y-112649500D01*
X97905042Y-112657208D01*
X97743760Y-112682753D01*
X97541585Y-112748444D01*
X97352179Y-112844951D01*
X97180213Y-112969890D01*
X97029890Y-113120213D01*
X96904949Y-113292182D01*
X96900484Y-113300946D01*
X96852509Y-113351742D01*
X96784688Y-113368536D01*
X96718553Y-113345998D01*
X96679516Y-113300946D01*
X96675050Y-113292182D01*
X96550109Y-113120213D01*
X96399786Y-112969890D01*
X96227820Y-112844951D01*
X96038414Y-112748444D01*
X96038413Y-112748443D01*
X96038412Y-112748443D01*
X95836243Y-112682754D01*
X95836241Y-112682753D01*
X95836240Y-112682753D01*
X95674957Y-112657208D01*
X95626287Y-112649500D01*
X95413713Y-112649500D01*
X95365042Y-112657208D01*
X95203760Y-112682753D01*
X95001585Y-112748444D01*
X94812179Y-112844951D01*
X94640213Y-112969890D01*
X94489890Y-113120213D01*
X94364949Y-113292182D01*
X94360484Y-113300946D01*
X94312509Y-113351742D01*
X94244688Y-113368536D01*
X94178553Y-113345998D01*
X94139516Y-113300946D01*
X94135050Y-113292182D01*
X94010109Y-113120213D01*
X93859786Y-112969890D01*
X93687820Y-112844951D01*
X93498414Y-112748444D01*
X93498413Y-112748443D01*
X93498412Y-112748443D01*
X93296243Y-112682754D01*
X93296241Y-112682753D01*
X93296240Y-112682753D01*
X93134957Y-112657208D01*
X93086287Y-112649500D01*
X92873713Y-112649500D01*
X92825042Y-112657208D01*
X92663760Y-112682753D01*
X92461585Y-112748444D01*
X92272179Y-112844951D01*
X92100213Y-112969890D01*
X91949890Y-113120213D01*
X91824949Y-113292182D01*
X91820484Y-113300946D01*
X91772509Y-113351742D01*
X91704688Y-113368536D01*
X91638553Y-113345998D01*
X91599516Y-113300946D01*
X91595050Y-113292182D01*
X91470109Y-113120213D01*
X91319786Y-112969890D01*
X91147820Y-112844951D01*
X90958414Y-112748444D01*
X90958413Y-112748443D01*
X90958412Y-112748443D01*
X90756243Y-112682754D01*
X90756241Y-112682753D01*
X90756240Y-112682753D01*
X90594957Y-112657208D01*
X90546287Y-112649500D01*
X90333713Y-112649500D01*
X90285042Y-112657208D01*
X90123760Y-112682753D01*
X89921585Y-112748444D01*
X89732179Y-112844951D01*
X89560215Y-112969889D01*
X89446673Y-113083431D01*
X89385350Y-113116915D01*
X89315658Y-113111931D01*
X89259725Y-113070059D01*
X89242810Y-113039082D01*
X89193797Y-112907671D01*
X89193793Y-112907664D01*
X89107547Y-112792455D01*
X89107544Y-112792452D01*
X88992335Y-112706206D01*
X88992328Y-112706202D01*
X88857482Y-112655908D01*
X88857483Y-112655908D01*
X88797883Y-112649501D01*
X88797881Y-112649500D01*
X88797873Y-112649500D01*
X88797864Y-112649500D01*
X87002129Y-112649500D01*
X87002123Y-112649501D01*
X86942516Y-112655908D01*
X86807671Y-112706202D01*
X86807664Y-112706206D01*
X86692455Y-112792452D01*
X86692452Y-112792455D01*
X86606206Y-112907664D01*
X86606202Y-112907671D01*
X86555908Y-113042517D01*
X86549501Y-113102116D01*
X86549500Y-113102135D01*
X83941320Y-113102135D01*
X83847213Y-113008028D01*
X83681613Y-112887715D01*
X83681612Y-112887714D01*
X83681610Y-112887713D01*
X83597681Y-112844949D01*
X83499223Y-112794781D01*
X83304534Y-112731522D01*
X83129995Y-112703878D01*
X83102352Y-112699500D01*
X82897648Y-112699500D01*
X82873329Y-112703351D01*
X82695465Y-112731522D01*
X82500776Y-112794781D01*
X82318386Y-112887715D01*
X82152786Y-113008028D01*
X82008028Y-113152786D01*
X81887715Y-113318386D01*
X81794781Y-113500776D01*
X81731522Y-113695465D01*
X81699500Y-113897648D01*
X80500500Y-113897648D01*
X80500500Y-107766228D01*
X97099500Y-107766228D01*
X97099500Y-107933771D01*
X97132182Y-108098074D01*
X97132184Y-108098082D01*
X97196296Y-108252861D01*
X97199166Y-108258230D01*
X97198344Y-108258668D01*
X97213867Y-108296148D01*
X97228340Y-108368907D01*
X97228343Y-108368917D01*
X97284913Y-108505490D01*
X97284914Y-108505491D01*
X97284916Y-108505495D01*
X97298282Y-108525498D01*
X97298283Y-108525501D01*
X97367046Y-108628414D01*
X97367052Y-108628421D01*
X99517049Y-110778416D01*
X99621584Y-110882951D01*
X99621585Y-110882952D01*
X99744498Y-110965080D01*
X99744511Y-110965087D01*
X99881082Y-111021656D01*
X99881087Y-111021658D01*
X99881091Y-111021658D01*
X99881092Y-111021659D01*
X100026079Y-111050500D01*
X100026082Y-111050500D01*
X105173920Y-111050500D01*
X105271462Y-111031096D01*
X105318913Y-111021658D01*
X105455495Y-110965084D01*
X105530812Y-110914759D01*
X105578416Y-110882952D01*
X105772908Y-110688457D01*
X105813131Y-110661582D01*
X105952863Y-110603703D01*
X106092162Y-110510626D01*
X106210626Y-110392162D01*
X106303703Y-110252863D01*
X106367816Y-110098082D01*
X106400500Y-109933767D01*
X106400500Y-109883551D01*
X131644500Y-109883551D01*
X131644500Y-110076448D01*
X131674675Y-110266969D01*
X131674676Y-110266972D01*
X131734285Y-110450429D01*
X131821859Y-110622302D01*
X131935241Y-110778359D01*
X132071641Y-110914759D01*
X132227698Y-111028141D01*
X132399571Y-111115715D01*
X132583028Y-111175324D01*
X132773551Y-111205500D01*
X132773552Y-111205500D01*
X133516448Y-111205500D01*
X133516449Y-111205500D01*
X133706972Y-111175324D01*
X133890429Y-111115715D01*
X134062302Y-111028141D01*
X134218359Y-110914759D01*
X134354759Y-110778359D01*
X134468141Y-110622302D01*
X134555715Y-110450429D01*
X134615324Y-110266972D01*
X134645500Y-110076449D01*
X134645500Y-109883551D01*
X134615324Y-109693028D01*
X134608060Y-109670675D01*
X134606066Y-109600835D01*
X134642146Y-109541002D01*
X134657097Y-109529258D01*
X134769035Y-109454464D01*
X134894464Y-109329035D01*
X134993013Y-109181547D01*
X135060894Y-109017666D01*
X135064508Y-108999500D01*
X135091723Y-108862678D01*
X135095500Y-108843691D01*
X135095500Y-108666309D01*
X135095500Y-108666306D01*
X135095499Y-108666304D01*
X135060896Y-108492341D01*
X135060893Y-108492332D01*
X134993016Y-108328459D01*
X134993009Y-108328446D01*
X134894464Y-108180965D01*
X134894461Y-108180961D01*
X134769038Y-108055538D01*
X134769034Y-108055535D01*
X134621553Y-107956990D01*
X134621540Y-107956983D01*
X134457667Y-107889106D01*
X134457658Y-107889103D01*
X134283694Y-107854500D01*
X134283691Y-107854500D01*
X134106309Y-107854500D01*
X134106306Y-107854500D01*
X133932341Y-107889103D01*
X133932332Y-107889106D01*
X133768459Y-107956983D01*
X133768446Y-107956990D01*
X133620965Y-108055535D01*
X133620961Y-108055538D01*
X133495538Y-108180961D01*
X133495535Y-108180965D01*
X133396990Y-108328446D01*
X133396983Y-108328459D01*
X133329106Y-108492332D01*
X133329104Y-108492340D01*
X133296810Y-108654692D01*
X133264425Y-108716603D01*
X133203709Y-108751177D01*
X133175193Y-108754500D01*
X132773551Y-108754500D01*
X132737697Y-108760178D01*
X132583030Y-108784675D01*
X132399568Y-108844286D01*
X132227697Y-108931859D01*
X132138661Y-108996547D01*
X132071641Y-109045241D01*
X132071639Y-109045243D01*
X132071638Y-109045243D01*
X131935243Y-109181638D01*
X131935243Y-109181639D01*
X131935241Y-109181641D01*
X131929623Y-109189374D01*
X131821859Y-109337697D01*
X131734286Y-109509568D01*
X131674675Y-109693030D01*
X131644500Y-109883551D01*
X106400500Y-109883551D01*
X106400500Y-109766233D01*
X106367816Y-109601918D01*
X106306738Y-109454464D01*
X106303704Y-109447139D01*
X106210626Y-109307837D01*
X106092162Y-109189373D01*
X105952860Y-109096295D01*
X105798082Y-109032184D01*
X105798074Y-109032182D01*
X105633771Y-108999500D01*
X105633767Y-108999500D01*
X105466233Y-108999500D01*
X105466228Y-108999500D01*
X105301925Y-109032182D01*
X105301917Y-109032184D01*
X105147139Y-109096295D01*
X105007837Y-109189373D01*
X104889373Y-109307837D01*
X104796295Y-109447139D01*
X104796293Y-109447143D01*
X104785602Y-109472954D01*
X104741761Y-109527357D01*
X104675466Y-109549421D01*
X104671042Y-109549500D01*
X100462229Y-109549500D01*
X100395190Y-109529815D01*
X100374548Y-109513181D01*
X99297570Y-108436203D01*
X108629525Y-108436203D01*
X108629525Y-108603746D01*
X108662207Y-108768049D01*
X108662209Y-108768057D01*
X108726320Y-108922835D01*
X108819398Y-109062137D01*
X108937862Y-109180601D01*
X109029200Y-109241631D01*
X109077162Y-109273678D01*
X109231943Y-109337791D01*
X109396253Y-109370474D01*
X109396257Y-109370475D01*
X109396258Y-109370475D01*
X109563793Y-109370475D01*
X109563794Y-109370474D01*
X109728107Y-109337791D01*
X109867833Y-109279913D01*
X109915286Y-109270475D01*
X111003945Y-109270475D01*
X111101487Y-109251071D01*
X111148938Y-109241633D01*
X111285520Y-109185059D01*
X111344760Y-109145476D01*
X111408441Y-109102927D01*
X115095139Y-105416228D01*
X121399500Y-105416228D01*
X121399500Y-105583771D01*
X121432182Y-105748074D01*
X121432184Y-105748082D01*
X121496295Y-105902860D01*
X121589373Y-106042162D01*
X121707837Y-106160626D01*
X121800494Y-106222537D01*
X121847137Y-106253703D01*
X122001918Y-106317816D01*
X122086011Y-106334543D01*
X122147218Y-106346718D01*
X122209129Y-106379102D01*
X122210708Y-106380654D01*
X123544345Y-107714291D01*
X123577830Y-107775614D01*
X123578281Y-107777781D01*
X123607182Y-107923074D01*
X123607184Y-107923082D01*
X123671295Y-108077860D01*
X123764373Y-108217162D01*
X123882837Y-108335626D01*
X123932646Y-108368907D01*
X124022137Y-108428703D01*
X124022138Y-108428703D01*
X124022139Y-108428704D01*
X124057181Y-108443219D01*
X124176918Y-108492816D01*
X124341223Y-108525498D01*
X124341228Y-108525499D01*
X124341232Y-108525500D01*
X124341233Y-108525500D01*
X124508768Y-108525500D01*
X124508769Y-108525499D01*
X124673082Y-108492816D01*
X124827863Y-108428703D01*
X124967162Y-108335626D01*
X125085626Y-108217162D01*
X125178703Y-108077863D01*
X125242816Y-107923082D01*
X125275500Y-107758767D01*
X125275500Y-107591233D01*
X125264031Y-107533573D01*
X125264031Y-107533571D01*
X125260101Y-107513813D01*
X126494500Y-107513813D01*
X126494500Y-108345146D01*
X126498825Y-108411127D01*
X126503050Y-108443219D01*
X126515436Y-108505495D01*
X126515948Y-108508066D01*
X126515949Y-108508069D01*
X126572581Y-108640321D01*
X126572584Y-108640329D01*
X126608947Y-108699987D01*
X126608954Y-108699997D01*
X126700549Y-108810935D01*
X126700552Y-108810938D01*
X126700553Y-108810939D01*
X126823642Y-108922838D01*
X127174494Y-109241795D01*
X127177017Y-109243903D01*
X127206810Y-109268801D01*
X127218510Y-109277778D01*
X127221293Y-109279914D01*
X127223182Y-109281363D01*
X127257603Y-109305567D01*
X127388480Y-109365338D01*
X127455519Y-109385023D01*
X127455523Y-109385024D01*
X127597939Y-109405500D01*
X127597942Y-109405500D01*
X130552412Y-109405500D01*
X130552417Y-109405500D01*
X130593224Y-109403850D01*
X130613177Y-109402234D01*
X130653712Y-109397296D01*
X130790977Y-109354170D01*
X130853976Y-109323954D01*
X130973531Y-109243903D01*
X131397114Y-108862678D01*
X131444087Y-108814359D01*
X131465450Y-108789230D01*
X131505567Y-108735111D01*
X131565338Y-108604234D01*
X131585023Y-108537195D01*
X131585024Y-108537191D01*
X131605500Y-108394775D01*
X131605500Y-107751362D01*
X131602603Y-107697322D01*
X131599769Y-107670964D01*
X131591114Y-107617552D01*
X131540832Y-107482743D01*
X131507347Y-107421420D01*
X131421123Y-107306239D01*
X131421118Y-107306234D01*
X131421113Y-107306228D01*
X130943776Y-106828892D01*
X130943761Y-106828877D01*
X130943737Y-106828855D01*
X130903519Y-106792728D01*
X130903507Y-106792718D01*
X130882856Y-106776076D01*
X130838974Y-106744433D01*
X130708100Y-106684663D01*
X130641055Y-106664976D01*
X130593582Y-106658150D01*
X130498638Y-106644500D01*
X130498636Y-106644500D01*
X130406416Y-106644500D01*
X130395894Y-106641410D01*
X130384999Y-106642636D01*
X130362962Y-106631740D01*
X130339377Y-106624815D01*
X130330555Y-106615717D01*
X130322367Y-106611669D01*
X130300088Y-106584298D01*
X130273170Y-106539435D01*
X130255500Y-106475639D01*
X130255500Y-102433551D01*
X131644500Y-102433551D01*
X131644500Y-102626448D01*
X131674675Y-102816969D01*
X131674676Y-102816972D01*
X131734285Y-103000429D01*
X131821859Y-103172302D01*
X131935241Y-103328359D01*
X132071641Y-103464759D01*
X132227698Y-103578141D01*
X132399571Y-103665715D01*
X132583028Y-103725324D01*
X132773551Y-103755500D01*
X133175193Y-103755500D01*
X133242232Y-103775185D01*
X133287987Y-103827989D01*
X133296810Y-103855308D01*
X133329104Y-104017659D01*
X133329106Y-104017667D01*
X133396983Y-104181540D01*
X133396990Y-104181553D01*
X133495535Y-104329034D01*
X133495538Y-104329038D01*
X133620961Y-104454461D01*
X133620965Y-104454464D01*
X133768446Y-104553009D01*
X133768459Y-104553016D01*
X133891363Y-104603923D01*
X133932334Y-104620894D01*
X133932336Y-104620894D01*
X133932341Y-104620896D01*
X134106304Y-104655499D01*
X134106307Y-104655500D01*
X134106309Y-104655500D01*
X134283693Y-104655500D01*
X134283694Y-104655499D01*
X134341682Y-104643964D01*
X134457658Y-104620896D01*
X134457661Y-104620894D01*
X134457666Y-104620894D01*
X134621547Y-104553013D01*
X134769035Y-104454464D01*
X134894464Y-104329035D01*
X134993013Y-104181547D01*
X135060894Y-104017666D01*
X135060894Y-104017661D01*
X135060896Y-104017658D01*
X135095499Y-103843695D01*
X135095500Y-103843693D01*
X135095500Y-103666306D01*
X135095499Y-103666304D01*
X135060896Y-103492341D01*
X135060893Y-103492332D01*
X134993016Y-103328459D01*
X134993009Y-103328446D01*
X134894464Y-103180965D01*
X134894461Y-103180961D01*
X134769038Y-103055538D01*
X134769034Y-103055535D01*
X134657101Y-102980743D01*
X134612296Y-102927130D01*
X134603589Y-102857805D01*
X134608057Y-102839334D01*
X134615324Y-102816972D01*
X134645500Y-102626449D01*
X134645500Y-102433551D01*
X134615324Y-102243028D01*
X134555715Y-102059571D01*
X134468141Y-101887698D01*
X134354759Y-101731641D01*
X134218359Y-101595241D01*
X134062302Y-101481859D01*
X133890429Y-101394285D01*
X133706972Y-101334676D01*
X133706970Y-101334675D01*
X133706969Y-101334675D01*
X133560614Y-101311495D01*
X133516449Y-101304500D01*
X132773551Y-101304500D01*
X132737697Y-101310178D01*
X132583030Y-101334675D01*
X132399568Y-101394286D01*
X132227697Y-101481859D01*
X132138661Y-101546547D01*
X132071641Y-101595241D01*
X132071639Y-101595243D01*
X132071638Y-101595243D01*
X131935243Y-101731638D01*
X131935243Y-101731639D01*
X131935241Y-101731641D01*
X131886547Y-101798661D01*
X131821859Y-101887697D01*
X131734286Y-102059568D01*
X131674675Y-102243030D01*
X131644500Y-102433551D01*
X130255500Y-102433551D01*
X130255500Y-101045729D01*
X130253803Y-101004347D01*
X130253803Y-101004343D01*
X130252141Y-100984110D01*
X130247064Y-100943015D01*
X130203625Y-100805849D01*
X130176709Y-100750057D01*
X130176399Y-100749293D01*
X130173266Y-100742920D01*
X130173265Y-100742917D01*
X130173262Y-100742913D01*
X130173261Y-100742910D01*
X130092943Y-100623549D01*
X130092938Y-100623543D01*
X130075000Y-100603703D01*
X129666430Y-100151818D01*
X129666418Y-100151806D01*
X129666413Y-100151800D01*
X129618453Y-100105337D01*
X129618447Y-100105332D01*
X129618442Y-100105327D01*
X129593502Y-100084174D01*
X129593497Y-100084170D01*
X129593492Y-100084166D01*
X129539830Y-100044435D01*
X129539826Y-100044433D01*
X129408952Y-99984663D01*
X129341907Y-99964976D01*
X129267512Y-99954280D01*
X129199490Y-99944500D01*
X128664970Y-99944500D01*
X128605600Y-99950367D01*
X128566018Y-99954279D01*
X128566011Y-99954280D01*
X128518415Y-99963781D01*
X128518397Y-99963785D01*
X128423291Y-99992741D01*
X128423287Y-99992742D01*
X128299651Y-100066323D01*
X128245302Y-100110241D01*
X128245299Y-100110244D01*
X128147401Y-100215679D01*
X127756380Y-100780486D01*
X127751467Y-100787719D01*
X127749094Y-100791278D01*
X127744432Y-100798399D01*
X127684663Y-100929271D01*
X127664976Y-100996316D01*
X127644500Y-101138735D01*
X127644500Y-106570500D01*
X127624815Y-106637539D01*
X127572011Y-106683294D01*
X127520500Y-106694500D01*
X127389738Y-106694500D01*
X127381967Y-106694595D01*
X127377335Y-106694652D01*
X127371248Y-106694801D01*
X127358872Y-106695257D01*
X127217632Y-106722690D01*
X127133656Y-106751891D01*
X127124962Y-106759441D01*
X127023846Y-106811756D01*
X126758106Y-107001570D01*
X126685824Y-107064341D01*
X126685821Y-107064344D01*
X126653580Y-107098209D01*
X126653565Y-107098226D01*
X126594437Y-107173470D01*
X126594434Y-107173475D01*
X126534663Y-107304350D01*
X126514976Y-107371395D01*
X126506993Y-107426918D01*
X126494500Y-107513813D01*
X125260101Y-107513813D01*
X125242817Y-107426925D01*
X125242816Y-107426918D01*
X125178703Y-107272137D01*
X125147537Y-107225494D01*
X125085626Y-107132837D01*
X124967162Y-107014373D01*
X124827860Y-106921295D01*
X124673082Y-106857184D01*
X124673074Y-106857182D01*
X124527781Y-106828281D01*
X124465870Y-106795896D01*
X124464291Y-106794345D01*
X123130654Y-105460708D01*
X123097169Y-105399385D01*
X123096718Y-105397218D01*
X123084543Y-105336011D01*
X123067816Y-105251918D01*
X123003703Y-105097137D01*
X122972537Y-105050494D01*
X122910626Y-104957837D01*
X122792162Y-104839373D01*
X122652860Y-104746295D01*
X122498082Y-104682184D01*
X122498074Y-104682182D01*
X122333771Y-104649500D01*
X122333767Y-104649500D01*
X122166233Y-104649500D01*
X122166228Y-104649500D01*
X122001925Y-104682182D01*
X122001917Y-104682184D01*
X121847139Y-104746295D01*
X121707837Y-104839373D01*
X121589373Y-104957837D01*
X121496295Y-105097139D01*
X121432184Y-105251917D01*
X121432182Y-105251925D01*
X121399500Y-105416228D01*
X115095139Y-105416228D01*
X116428414Y-104082952D01*
X116489735Y-104049469D01*
X116491839Y-104049030D01*
X116523082Y-104042816D01*
X116677863Y-103978703D01*
X116817162Y-103885626D01*
X116935626Y-103767162D01*
X117028703Y-103627863D01*
X117092816Y-103473082D01*
X117125500Y-103308767D01*
X117125500Y-103141233D01*
X117092816Y-102976918D01*
X117028703Y-102822137D01*
X116966187Y-102728575D01*
X116935626Y-102682837D01*
X116817162Y-102564373D01*
X116677860Y-102471295D01*
X116523082Y-102407184D01*
X116523074Y-102407182D01*
X116358771Y-102374500D01*
X116358767Y-102374500D01*
X116191233Y-102374500D01*
X116191228Y-102374500D01*
X116026925Y-102407182D01*
X116026917Y-102407184D01*
X115872139Y-102471295D01*
X115732837Y-102564373D01*
X115614373Y-102682837D01*
X115521297Y-102822136D01*
X115498773Y-102876511D01*
X115471894Y-102916736D01*
X110655476Y-107733156D01*
X110594153Y-107766641D01*
X110567795Y-107769475D01*
X109915286Y-107769475D01*
X109867833Y-107760036D01*
X109728107Y-107702159D01*
X109728099Y-107702157D01*
X109563796Y-107669475D01*
X109563792Y-107669475D01*
X109396258Y-107669475D01*
X109396253Y-107669475D01*
X109231950Y-107702157D01*
X109231942Y-107702159D01*
X109077164Y-107766270D01*
X108937862Y-107859348D01*
X108819398Y-107977812D01*
X108726320Y-108117114D01*
X108662209Y-108271892D01*
X108662207Y-108271900D01*
X108629525Y-108436203D01*
X99297570Y-108436203D01*
X98836819Y-107975452D01*
X98803334Y-107914129D01*
X98800500Y-107887771D01*
X98800500Y-107766232D01*
X98800499Y-107766228D01*
X98787755Y-107702159D01*
X98767816Y-107601918D01*
X98703703Y-107447137D01*
X98653092Y-107371393D01*
X98610626Y-107307837D01*
X98492162Y-107189373D01*
X98352860Y-107096295D01*
X98198082Y-107032184D01*
X98198074Y-107032182D01*
X98033771Y-106999500D01*
X98033767Y-106999500D01*
X97866233Y-106999500D01*
X97866228Y-106999500D01*
X97701925Y-107032182D01*
X97701917Y-107032184D01*
X97547139Y-107096295D01*
X97407837Y-107189373D01*
X97289373Y-107307837D01*
X97196295Y-107447139D01*
X97132184Y-107601917D01*
X97132182Y-107601925D01*
X97099500Y-107766228D01*
X80500500Y-107766228D01*
X80500500Y-100466228D01*
X97349500Y-100466228D01*
X97349500Y-100633771D01*
X97382182Y-100798074D01*
X97382184Y-100798082D01*
X97446295Y-100952860D01*
X97539373Y-101092162D01*
X97657837Y-101210626D01*
X97750494Y-101272537D01*
X97797137Y-101303703D01*
X97951918Y-101367816D01*
X98084988Y-101394285D01*
X98116228Y-101400499D01*
X98116232Y-101400500D01*
X98116233Y-101400500D01*
X98283768Y-101400500D01*
X98283769Y-101400499D01*
X98448082Y-101367816D01*
X98602863Y-101303703D01*
X98742162Y-101210626D01*
X98860626Y-101092162D01*
X98953703Y-100952863D01*
X99011582Y-100813130D01*
X99038458Y-100772908D01*
X100045138Y-99766228D01*
X109349500Y-99766228D01*
X109349500Y-99933771D01*
X109382182Y-100098074D01*
X109382184Y-100098082D01*
X109446295Y-100252860D01*
X109539373Y-100392162D01*
X109657837Y-100510626D01*
X109750494Y-100572537D01*
X109797137Y-100603703D01*
X109951918Y-100667816D01*
X110116228Y-100700499D01*
X110116232Y-100700500D01*
X110116233Y-100700500D01*
X110283768Y-100700500D01*
X110283769Y-100700499D01*
X110448082Y-100667816D01*
X110602863Y-100603703D01*
X110742162Y-100510626D01*
X110860626Y-100392162D01*
X110953703Y-100252863D01*
X111017816Y-100098082D01*
X111046718Y-99952781D01*
X111055482Y-99936024D01*
X111059503Y-99917544D01*
X111078243Y-99892511D01*
X111079102Y-99890870D01*
X111080597Y-99889348D01*
X111133128Y-99836818D01*
X111194451Y-99803334D01*
X111220808Y-99800500D01*
X127064071Y-99800500D01*
X127148615Y-99783682D01*
X127189744Y-99775501D01*
X127308127Y-99726465D01*
X127414669Y-99655277D01*
X129150949Y-97918995D01*
X136004499Y-97918995D01*
X136031418Y-98054322D01*
X136031421Y-98054332D01*
X136084221Y-98181804D01*
X136084228Y-98181817D01*
X136160885Y-98296541D01*
X136160888Y-98296545D01*
X136258454Y-98394111D01*
X136258458Y-98394114D01*
X136373182Y-98470771D01*
X136373195Y-98470778D01*
X136500667Y-98523578D01*
X136500672Y-98523580D01*
X136500676Y-98523580D01*
X136500677Y-98523581D01*
X136636004Y-98550500D01*
X136636007Y-98550500D01*
X136773995Y-98550500D01*
X136865041Y-98532389D01*
X136909328Y-98523580D01*
X137036811Y-98470775D01*
X137151542Y-98394114D01*
X137249114Y-98296542D01*
X137325775Y-98181811D01*
X137378580Y-98054328D01*
X137405500Y-97918993D01*
X137405500Y-97781007D01*
X137405500Y-97781004D01*
X137378581Y-97645677D01*
X137378580Y-97645676D01*
X137378580Y-97645672D01*
X137348552Y-97573178D01*
X137325778Y-97518195D01*
X137325771Y-97518182D01*
X137249114Y-97403458D01*
X137249111Y-97403454D01*
X137151545Y-97305888D01*
X137151541Y-97305885D01*
X137036817Y-97229228D01*
X137036804Y-97229221D01*
X136909332Y-97176421D01*
X136909322Y-97176418D01*
X136773995Y-97149500D01*
X136773993Y-97149500D01*
X136636007Y-97149500D01*
X136636005Y-97149500D01*
X136500677Y-97176418D01*
X136500667Y-97176421D01*
X136373195Y-97229221D01*
X136373182Y-97229228D01*
X136258458Y-97305885D01*
X136258454Y-97305888D01*
X136160888Y-97403454D01*
X136160885Y-97403458D01*
X136084228Y-97518182D01*
X136084221Y-97518195D01*
X136031421Y-97645667D01*
X136031418Y-97645677D01*
X136004500Y-97781004D01*
X136004500Y-97781007D01*
X136004500Y-97918993D01*
X136004500Y-97918995D01*
X136004499Y-97918995D01*
X129150949Y-97918995D01*
X129246809Y-97823135D01*
X129308130Y-97789652D01*
X129377821Y-97794636D01*
X129392948Y-97801464D01*
X129397135Y-97803702D01*
X129397136Y-97803702D01*
X129397137Y-97803703D01*
X129551918Y-97867816D01*
X129674863Y-97892271D01*
X129716228Y-97900499D01*
X129716232Y-97900500D01*
X129716233Y-97900500D01*
X129883768Y-97900500D01*
X129883769Y-97900499D01*
X130048082Y-97867816D01*
X130202863Y-97803703D01*
X130342162Y-97710626D01*
X130342165Y-97710623D01*
X130365555Y-97687234D01*
X130460623Y-97592165D01*
X130460626Y-97592162D01*
X130510058Y-97518182D01*
X130553703Y-97452863D01*
X130617816Y-97298082D01*
X130650500Y-97133767D01*
X130650500Y-96966233D01*
X130617816Y-96801918D01*
X130553703Y-96647137D01*
X130522537Y-96600494D01*
X130460626Y-96507837D01*
X130342162Y-96389373D01*
X130202860Y-96296295D01*
X130048082Y-96232184D01*
X130048074Y-96232182D01*
X129883771Y-96199500D01*
X129883767Y-96199500D01*
X129716233Y-96199500D01*
X129716228Y-96199500D01*
X129551925Y-96232182D01*
X129551917Y-96232184D01*
X129397139Y-96296295D01*
X129273959Y-96378602D01*
X129207281Y-96399480D01*
X129205068Y-96399500D01*
X129035929Y-96399500D01*
X128910261Y-96424497D01*
X128910255Y-96424499D01*
X128791870Y-96473535D01*
X128685331Y-96544722D01*
X128685324Y-96544728D01*
X126766873Y-98463181D01*
X126705550Y-98496666D01*
X126679192Y-98499500D01*
X110835929Y-98499500D01*
X110714886Y-98523578D01*
X110714876Y-98523580D01*
X110713934Y-98523767D01*
X110710257Y-98524498D01*
X110710255Y-98524499D01*
X110591870Y-98573535D01*
X110485331Y-98644722D01*
X110485324Y-98644728D01*
X110160708Y-98969345D01*
X110099385Y-99002830D01*
X110097219Y-99003281D01*
X109951923Y-99032182D01*
X109951917Y-99032184D01*
X109797139Y-99096295D01*
X109657837Y-99189373D01*
X109539373Y-99307837D01*
X109446295Y-99447139D01*
X109382184Y-99601917D01*
X109382182Y-99601925D01*
X109349500Y-99766228D01*
X100045138Y-99766228D01*
X101483497Y-98327869D01*
X101523719Y-98300993D01*
X101663452Y-98243114D01*
X101802751Y-98150037D01*
X101921215Y-98031573D01*
X102014292Y-97892274D01*
X102078405Y-97737493D01*
X102111089Y-97573178D01*
X102111089Y-97405644D01*
X102078405Y-97241329D01*
X102014292Y-97086548D01*
X101933900Y-96966233D01*
X101921215Y-96947248D01*
X101802751Y-96828784D01*
X101663449Y-96735706D01*
X101508671Y-96671595D01*
X101508663Y-96671593D01*
X101344360Y-96638911D01*
X101344356Y-96638911D01*
X101176822Y-96638911D01*
X101176817Y-96638911D01*
X101012514Y-96671593D01*
X101012506Y-96671595D01*
X100857728Y-96735706D01*
X100718426Y-96828784D01*
X100599962Y-96947248D01*
X100506885Y-97086548D01*
X100449008Y-97226275D01*
X100422128Y-97266502D01*
X97977090Y-99711540D01*
X97936862Y-99738420D01*
X97797139Y-99796295D01*
X97657837Y-99889373D01*
X97539373Y-100007837D01*
X97446295Y-100147139D01*
X97382184Y-100301917D01*
X97382182Y-100301925D01*
X97349500Y-100466228D01*
X80500500Y-100466228D01*
X80500500Y-93541228D01*
X105374500Y-93541228D01*
X105374500Y-93708771D01*
X105407182Y-93873074D01*
X105407184Y-93873082D01*
X105471295Y-94027860D01*
X105564373Y-94167162D01*
X105682837Y-94285626D01*
X105767447Y-94342160D01*
X105822137Y-94378703D01*
X105976918Y-94442816D01*
X106141228Y-94475499D01*
X106141232Y-94475500D01*
X106141233Y-94475500D01*
X106154192Y-94475500D01*
X106221231Y-94495185D01*
X106241873Y-94511819D01*
X108069345Y-96339291D01*
X108102830Y-96400614D01*
X108103281Y-96402781D01*
X108132182Y-96548074D01*
X108132184Y-96548082D01*
X108196295Y-96702860D01*
X108289373Y-96842162D01*
X108407837Y-96960626D01*
X108416229Y-96966233D01*
X108547137Y-97053703D01*
X108701918Y-97117816D01*
X108861206Y-97149500D01*
X108866228Y-97150499D01*
X108866232Y-97150500D01*
X108866233Y-97150500D01*
X109033768Y-97150500D01*
X109033769Y-97150499D01*
X109198082Y-97117816D01*
X109352863Y-97053703D01*
X109492162Y-96960626D01*
X109610626Y-96842162D01*
X109703703Y-96702863D01*
X109767816Y-96548082D01*
X109800500Y-96383767D01*
X109800500Y-96216233D01*
X109767816Y-96051918D01*
X109703703Y-95897137D01*
X109672537Y-95850494D01*
X109610626Y-95757837D01*
X109492162Y-95639373D01*
X109352860Y-95546295D01*
X109198082Y-95482184D01*
X109198074Y-95482182D01*
X109052781Y-95453281D01*
X108990870Y-95420896D01*
X108989291Y-95419345D01*
X108488941Y-94918995D01*
X136004499Y-94918995D01*
X136031418Y-95054322D01*
X136031421Y-95054332D01*
X136084221Y-95181804D01*
X136084228Y-95181817D01*
X136160885Y-95296541D01*
X136160888Y-95296545D01*
X136258454Y-95394111D01*
X136258458Y-95394114D01*
X136373182Y-95470771D01*
X136373195Y-95470778D01*
X136500667Y-95523578D01*
X136500672Y-95523580D01*
X136500676Y-95523580D01*
X136500677Y-95523581D01*
X136636004Y-95550500D01*
X136636007Y-95550500D01*
X136773995Y-95550500D01*
X136865041Y-95532389D01*
X136909328Y-95523580D01*
X137036811Y-95470775D01*
X137151542Y-95394114D01*
X137249114Y-95296542D01*
X137325775Y-95181811D01*
X137378580Y-95054328D01*
X137405500Y-94918993D01*
X137405500Y-94781007D01*
X137405500Y-94781004D01*
X137378581Y-94645677D01*
X137378580Y-94645676D01*
X137378580Y-94645672D01*
X137340486Y-94553704D01*
X137325778Y-94518195D01*
X137325771Y-94518182D01*
X137249114Y-94403458D01*
X137249111Y-94403454D01*
X137151545Y-94305888D01*
X137151541Y-94305885D01*
X137036817Y-94229228D01*
X137036804Y-94229221D01*
X136909332Y-94176421D01*
X136909322Y-94176418D01*
X136773995Y-94149500D01*
X136773993Y-94149500D01*
X136636007Y-94149500D01*
X136636005Y-94149500D01*
X136500677Y-94176418D01*
X136500667Y-94176421D01*
X136373195Y-94229221D01*
X136373182Y-94229228D01*
X136258458Y-94305885D01*
X136258454Y-94305888D01*
X136160888Y-94403454D01*
X136160885Y-94403458D01*
X136084228Y-94518182D01*
X136084221Y-94518195D01*
X136031421Y-94645667D01*
X136031418Y-94645677D01*
X136004500Y-94781004D01*
X136004500Y-94781007D01*
X136004500Y-94918993D01*
X136004500Y-94918995D01*
X136004499Y-94918995D01*
X108488941Y-94918995D01*
X107093238Y-93523292D01*
X107059753Y-93461969D01*
X107059318Y-93459885D01*
X107042816Y-93376918D01*
X106990544Y-93250725D01*
X106978704Y-93222139D01*
X106916492Y-93129032D01*
X106916491Y-93129030D01*
X106885629Y-93082842D01*
X106885623Y-93082834D01*
X106869017Y-93066228D01*
X109849500Y-93066228D01*
X109849500Y-93233771D01*
X109882182Y-93398074D01*
X109882184Y-93398082D01*
X109946295Y-93552860D01*
X110039373Y-93692162D01*
X110157837Y-93810626D01*
X110250494Y-93872537D01*
X110297137Y-93903703D01*
X110451918Y-93967816D01*
X110616228Y-94000499D01*
X110616232Y-94000500D01*
X110616233Y-94000500D01*
X110783768Y-94000500D01*
X110783769Y-94000499D01*
X110948082Y-93967816D01*
X111087808Y-93909938D01*
X111135261Y-93900500D01*
X120879621Y-93900500D01*
X120946660Y-93920185D01*
X120992415Y-93972989D01*
X120994182Y-93977047D01*
X121046295Y-94102860D01*
X121139373Y-94242162D01*
X121257837Y-94360626D01*
X121321934Y-94403454D01*
X121397137Y-94453703D01*
X121551918Y-94517816D01*
X121716228Y-94550499D01*
X121716232Y-94550500D01*
X121716233Y-94550500D01*
X121883768Y-94550500D01*
X121883769Y-94550499D01*
X122048082Y-94517816D01*
X122202863Y-94453703D01*
X122342162Y-94360626D01*
X122460626Y-94242162D01*
X122553703Y-94102863D01*
X122617816Y-93948082D01*
X122650500Y-93783767D01*
X122650500Y-93616233D01*
X122617816Y-93451918D01*
X122553703Y-93297137D01*
X122527444Y-93257838D01*
X122460626Y-93157837D01*
X122342162Y-93039373D01*
X122202860Y-92946295D01*
X122063134Y-92888419D01*
X122022908Y-92861541D01*
X121728416Y-92567048D01*
X121728415Y-92567047D01*
X121728414Y-92567046D01*
X121654729Y-92517812D01*
X121654729Y-92517813D01*
X121605491Y-92484913D01*
X121468917Y-92428343D01*
X121468907Y-92428340D01*
X121323920Y-92399500D01*
X121323918Y-92399500D01*
X111135261Y-92399500D01*
X111087808Y-92390061D01*
X110948082Y-92332184D01*
X110948074Y-92332182D01*
X110783771Y-92299500D01*
X110783767Y-92299500D01*
X110616233Y-92299500D01*
X110616228Y-92299500D01*
X110451925Y-92332182D01*
X110451917Y-92332184D01*
X110297139Y-92396295D01*
X110157837Y-92489373D01*
X110039373Y-92607837D01*
X109946295Y-92747139D01*
X109882184Y-92901917D01*
X109882182Y-92901925D01*
X109849500Y-93066228D01*
X106869017Y-93066228D01*
X106767162Y-92964373D01*
X106627860Y-92871295D01*
X106473082Y-92807184D01*
X106473074Y-92807182D01*
X106308771Y-92774500D01*
X106308767Y-92774500D01*
X106141233Y-92774500D01*
X106141228Y-92774500D01*
X105976925Y-92807182D01*
X105976917Y-92807184D01*
X105822139Y-92871295D01*
X105682837Y-92964373D01*
X105564373Y-93082837D01*
X105471295Y-93222139D01*
X105407184Y-93376917D01*
X105407182Y-93376925D01*
X105374500Y-93541228D01*
X80500500Y-93541228D01*
X80500500Y-89003750D01*
X80500726Y-88996263D01*
X80506691Y-88897648D01*
X81699500Y-88897648D01*
X81699500Y-89102351D01*
X81731522Y-89304534D01*
X81794781Y-89499223D01*
X81858691Y-89624653D01*
X81873644Y-89653999D01*
X81887715Y-89681613D01*
X82008028Y-89847213D01*
X82152786Y-89991971D01*
X82290928Y-90092335D01*
X82318390Y-90112287D01*
X82402319Y-90155051D01*
X82500776Y-90205218D01*
X82500778Y-90205218D01*
X82500781Y-90205220D01*
X82605137Y-90239127D01*
X82695465Y-90268477D01*
X82796557Y-90284488D01*
X82897648Y-90300500D01*
X82897649Y-90300500D01*
X83102351Y-90300500D01*
X83102352Y-90300500D01*
X83304534Y-90268477D01*
X83499219Y-90205220D01*
X83681610Y-90112287D01*
X83795251Y-90029723D01*
X83847213Y-89991971D01*
X83847215Y-89991968D01*
X83847219Y-89991966D01*
X83991966Y-89847219D01*
X83991968Y-89847215D01*
X83991971Y-89847213D01*
X84093244Y-89707820D01*
X84112287Y-89681610D01*
X84205220Y-89499219D01*
X84268477Y-89304534D01*
X84300500Y-89102352D01*
X84300500Y-88897648D01*
X84299877Y-88893713D01*
X84268477Y-88695465D01*
X84237426Y-88599901D01*
X84205220Y-88500781D01*
X84205218Y-88500778D01*
X84205218Y-88500776D01*
X84112287Y-88318390D01*
X84005705Y-88171691D01*
X84005704Y-88171690D01*
X83991967Y-88152782D01*
X83941320Y-88102135D01*
X86549500Y-88102135D01*
X86549500Y-89897870D01*
X86549501Y-89897876D01*
X86555908Y-89957483D01*
X86606202Y-90092328D01*
X86606206Y-90092335D01*
X86692452Y-90207544D01*
X86692455Y-90207547D01*
X86807664Y-90293793D01*
X86807671Y-90293797D01*
X86942517Y-90344091D01*
X86942516Y-90344091D01*
X86949444Y-90344835D01*
X87002127Y-90350500D01*
X88797872Y-90350499D01*
X88857483Y-90344091D01*
X88992331Y-90293796D01*
X89107546Y-90207546D01*
X89193796Y-90092331D01*
X89242810Y-89960916D01*
X89284681Y-89904984D01*
X89350145Y-89880566D01*
X89418418Y-89895417D01*
X89446673Y-89916569D01*
X89560213Y-90030109D01*
X89732179Y-90155048D01*
X89732181Y-90155049D01*
X89732184Y-90155051D01*
X89921588Y-90251557D01*
X90123757Y-90317246D01*
X90333713Y-90350500D01*
X90333714Y-90350500D01*
X90546286Y-90350500D01*
X90546287Y-90350500D01*
X90756243Y-90317246D01*
X90958412Y-90251557D01*
X91147816Y-90155051D01*
X91234138Y-90092335D01*
X91319786Y-90030109D01*
X91319788Y-90030106D01*
X91319792Y-90030104D01*
X91470104Y-89879792D01*
X91470106Y-89879788D01*
X91470109Y-89879786D01*
X91595048Y-89707820D01*
X91595047Y-89707820D01*
X91595051Y-89707816D01*
X91599514Y-89699054D01*
X91647488Y-89648259D01*
X91715308Y-89631463D01*
X91781444Y-89653999D01*
X91820486Y-89699056D01*
X91824951Y-89707820D01*
X91949890Y-89879786D01*
X92100213Y-90030109D01*
X92272179Y-90155048D01*
X92272181Y-90155049D01*
X92272184Y-90155051D01*
X92461588Y-90251557D01*
X92663757Y-90317246D01*
X92873713Y-90350500D01*
X92873714Y-90350500D01*
X93086286Y-90350500D01*
X93086287Y-90350500D01*
X93296243Y-90317246D01*
X93498412Y-90251557D01*
X93687816Y-90155051D01*
X93774138Y-90092335D01*
X93859786Y-90030109D01*
X93859788Y-90030106D01*
X93859792Y-90030104D01*
X94010104Y-89879792D01*
X94010106Y-89879788D01*
X94010109Y-89879786D01*
X94135048Y-89707820D01*
X94135047Y-89707820D01*
X94135051Y-89707816D01*
X94139514Y-89699054D01*
X94187488Y-89648259D01*
X94255308Y-89631463D01*
X94321444Y-89653999D01*
X94360486Y-89699056D01*
X94364951Y-89707820D01*
X94489890Y-89879786D01*
X94640213Y-90030109D01*
X94812179Y-90155048D01*
X94812181Y-90155049D01*
X94812184Y-90155051D01*
X95001588Y-90251557D01*
X95203757Y-90317246D01*
X95413713Y-90350500D01*
X95413714Y-90350500D01*
X95626286Y-90350500D01*
X95626287Y-90350500D01*
X95836243Y-90317246D01*
X96038412Y-90251557D01*
X96227816Y-90155051D01*
X96314138Y-90092335D01*
X96399786Y-90030109D01*
X96399788Y-90030106D01*
X96399792Y-90030104D01*
X96550104Y-89879792D01*
X96550106Y-89879788D01*
X96550109Y-89879786D01*
X96675048Y-89707820D01*
X96675047Y-89707820D01*
X96675051Y-89707816D01*
X96679514Y-89699054D01*
X96727488Y-89648259D01*
X96795308Y-89631463D01*
X96861444Y-89653999D01*
X96900486Y-89699056D01*
X96904951Y-89707820D01*
X97029890Y-89879786D01*
X97180213Y-90030109D01*
X97352179Y-90155048D01*
X97352181Y-90155049D01*
X97352184Y-90155051D01*
X97541588Y-90251557D01*
X97743757Y-90317246D01*
X97953713Y-90350500D01*
X97953714Y-90350500D01*
X98166286Y-90350500D01*
X98166287Y-90350500D01*
X98376243Y-90317246D01*
X98578412Y-90251557D01*
X98767816Y-90155051D01*
X98854138Y-90092335D01*
X98939786Y-90030109D01*
X98939788Y-90030106D01*
X98939792Y-90030104D01*
X99090104Y-89879792D01*
X99090106Y-89879788D01*
X99090109Y-89879786D01*
X99215048Y-89707820D01*
X99215047Y-89707820D01*
X99215051Y-89707816D01*
X99219514Y-89699054D01*
X99267488Y-89648259D01*
X99335308Y-89631463D01*
X99401444Y-89653999D01*
X99440486Y-89699056D01*
X99444951Y-89707820D01*
X99569890Y-89879786D01*
X99720213Y-90030109D01*
X99892179Y-90155048D01*
X99892181Y-90155049D01*
X99892184Y-90155051D01*
X100081588Y-90251557D01*
X100283757Y-90317246D01*
X100493713Y-90350500D01*
X100493714Y-90350500D01*
X100706286Y-90350500D01*
X100706287Y-90350500D01*
X100916243Y-90317246D01*
X101118412Y-90251557D01*
X101307816Y-90155051D01*
X101394138Y-90092335D01*
X101479786Y-90030109D01*
X101479788Y-90030106D01*
X101479792Y-90030104D01*
X101630104Y-89879792D01*
X101630106Y-89879788D01*
X101630109Y-89879786D01*
X101755048Y-89707820D01*
X101755047Y-89707820D01*
X101755051Y-89707816D01*
X101759514Y-89699054D01*
X101807488Y-89648259D01*
X101875308Y-89631463D01*
X101941444Y-89653999D01*
X101980486Y-89699056D01*
X101984951Y-89707820D01*
X102109890Y-89879786D01*
X102260213Y-90030109D01*
X102432179Y-90155048D01*
X102432181Y-90155049D01*
X102432184Y-90155051D01*
X102621588Y-90251557D01*
X102823757Y-90317246D01*
X103033713Y-90350500D01*
X103033714Y-90350500D01*
X103246286Y-90350500D01*
X103246287Y-90350500D01*
X103456243Y-90317246D01*
X103658412Y-90251557D01*
X103847816Y-90155051D01*
X103934138Y-90092335D01*
X104019786Y-90030109D01*
X104019788Y-90030106D01*
X104019792Y-90030104D01*
X104170104Y-89879792D01*
X104170106Y-89879788D01*
X104170109Y-89879786D01*
X104295048Y-89707820D01*
X104295047Y-89707820D01*
X104295051Y-89707816D01*
X104299514Y-89699054D01*
X104347488Y-89648259D01*
X104415308Y-89631463D01*
X104481444Y-89653999D01*
X104520486Y-89699056D01*
X104524951Y-89707820D01*
X104649890Y-89879786D01*
X104800213Y-90030109D01*
X104972179Y-90155048D01*
X104972181Y-90155049D01*
X104972184Y-90155051D01*
X105161588Y-90251557D01*
X105363757Y-90317246D01*
X105573713Y-90350500D01*
X105573714Y-90350500D01*
X105786286Y-90350500D01*
X105786287Y-90350500D01*
X105996243Y-90317246D01*
X106198412Y-90251557D01*
X106387816Y-90155051D01*
X106474138Y-90092335D01*
X106559786Y-90030109D01*
X106559788Y-90030106D01*
X106559792Y-90030104D01*
X106710104Y-89879792D01*
X106710106Y-89879788D01*
X106710109Y-89879786D01*
X106835048Y-89707820D01*
X106835047Y-89707820D01*
X106835051Y-89707816D01*
X106839514Y-89699054D01*
X106887488Y-89648259D01*
X106955308Y-89631463D01*
X107021444Y-89653999D01*
X107060486Y-89699056D01*
X107064951Y-89707820D01*
X107189890Y-89879786D01*
X107340213Y-90030109D01*
X107512179Y-90155048D01*
X107512181Y-90155049D01*
X107512184Y-90155051D01*
X107701588Y-90251557D01*
X107903757Y-90317246D01*
X108113713Y-90350500D01*
X108113714Y-90350500D01*
X108326286Y-90350500D01*
X108326287Y-90350500D01*
X108536243Y-90317246D01*
X108738412Y-90251557D01*
X108927816Y-90155051D01*
X109014138Y-90092335D01*
X109099786Y-90030109D01*
X109099788Y-90030106D01*
X109099792Y-90030104D01*
X109250104Y-89879792D01*
X109250106Y-89879788D01*
X109250109Y-89879786D01*
X109375048Y-89707820D01*
X109375047Y-89707820D01*
X109375051Y-89707816D01*
X109379514Y-89699054D01*
X109427488Y-89648259D01*
X109495308Y-89631463D01*
X109561444Y-89653999D01*
X109600486Y-89699056D01*
X109604951Y-89707820D01*
X109729890Y-89879786D01*
X109880213Y-90030109D01*
X110052179Y-90155048D01*
X110052181Y-90155049D01*
X110052184Y-90155051D01*
X110241588Y-90251557D01*
X110443757Y-90317246D01*
X110653713Y-90350500D01*
X110653714Y-90350500D01*
X110866286Y-90350500D01*
X110866287Y-90350500D01*
X111076243Y-90317246D01*
X111278412Y-90251557D01*
X111467816Y-90155051D01*
X111554138Y-90092335D01*
X111639786Y-90030109D01*
X111639788Y-90030106D01*
X111639792Y-90030104D01*
X111790104Y-89879792D01*
X111790106Y-89879788D01*
X111790109Y-89879786D01*
X111915048Y-89707820D01*
X111915047Y-89707820D01*
X111915051Y-89707816D01*
X111919514Y-89699054D01*
X111967488Y-89648259D01*
X112035308Y-89631463D01*
X112101444Y-89653999D01*
X112140486Y-89699056D01*
X112144951Y-89707820D01*
X112269890Y-89879786D01*
X112420213Y-90030109D01*
X112592179Y-90155048D01*
X112592181Y-90155049D01*
X112592184Y-90155051D01*
X112781588Y-90251557D01*
X112983757Y-90317246D01*
X113193713Y-90350500D01*
X113193714Y-90350500D01*
X113406286Y-90350500D01*
X113406287Y-90350500D01*
X113616243Y-90317246D01*
X113818412Y-90251557D01*
X114007816Y-90155051D01*
X114094138Y-90092335D01*
X114179786Y-90030109D01*
X114179788Y-90030106D01*
X114179792Y-90030104D01*
X114330104Y-89879792D01*
X114330106Y-89879788D01*
X114330109Y-89879786D01*
X114455048Y-89707820D01*
X114455047Y-89707820D01*
X114455051Y-89707816D01*
X114459514Y-89699054D01*
X114507488Y-89648259D01*
X114575308Y-89631463D01*
X114641444Y-89653999D01*
X114680486Y-89699056D01*
X114684951Y-89707820D01*
X114809890Y-89879786D01*
X114960213Y-90030109D01*
X115132179Y-90155048D01*
X115132181Y-90155049D01*
X115132184Y-90155051D01*
X115321588Y-90251557D01*
X115523757Y-90317246D01*
X115733713Y-90350500D01*
X115733714Y-90350500D01*
X115946286Y-90350500D01*
X115946287Y-90350500D01*
X116156243Y-90317246D01*
X116358412Y-90251557D01*
X116547816Y-90155051D01*
X116634138Y-90092335D01*
X116719786Y-90030109D01*
X116719788Y-90030106D01*
X116719792Y-90030104D01*
X116870104Y-89879792D01*
X116870106Y-89879788D01*
X116870109Y-89879786D01*
X116995048Y-89707820D01*
X116995047Y-89707820D01*
X116995051Y-89707816D01*
X116999514Y-89699054D01*
X117047488Y-89648259D01*
X117115308Y-89631463D01*
X117181444Y-89653999D01*
X117220486Y-89699056D01*
X117224951Y-89707820D01*
X117349890Y-89879786D01*
X117500213Y-90030109D01*
X117672179Y-90155048D01*
X117672181Y-90155049D01*
X117672184Y-90155051D01*
X117861588Y-90251557D01*
X118063757Y-90317246D01*
X118273713Y-90350500D01*
X118273714Y-90350500D01*
X118486286Y-90350500D01*
X118486287Y-90350500D01*
X118696243Y-90317246D01*
X118898412Y-90251557D01*
X119087816Y-90155051D01*
X119174138Y-90092335D01*
X119259786Y-90030109D01*
X119259788Y-90030106D01*
X119259792Y-90030104D01*
X119410104Y-89879792D01*
X119410106Y-89879788D01*
X119410109Y-89879786D01*
X119535048Y-89707820D01*
X119535047Y-89707820D01*
X119535051Y-89707816D01*
X119539514Y-89699054D01*
X119587488Y-89648259D01*
X119655308Y-89631463D01*
X119721444Y-89653999D01*
X119760486Y-89699056D01*
X119764951Y-89707820D01*
X119889890Y-89879786D01*
X120040213Y-90030109D01*
X120212179Y-90155048D01*
X120212181Y-90155049D01*
X120212184Y-90155051D01*
X120401588Y-90251557D01*
X120603757Y-90317246D01*
X120813713Y-90350500D01*
X120813714Y-90350500D01*
X121026286Y-90350500D01*
X121026287Y-90350500D01*
X121236243Y-90317246D01*
X121438412Y-90251557D01*
X121627816Y-90155051D01*
X121714138Y-90092335D01*
X121799786Y-90030109D01*
X121799788Y-90030106D01*
X121799792Y-90030104D01*
X121950104Y-89879792D01*
X121950106Y-89879788D01*
X121950109Y-89879786D01*
X122075048Y-89707820D01*
X122075047Y-89707820D01*
X122075051Y-89707816D01*
X122079514Y-89699054D01*
X122127488Y-89648259D01*
X122195308Y-89631463D01*
X122261444Y-89653999D01*
X122300486Y-89699056D01*
X122304951Y-89707820D01*
X122429890Y-89879786D01*
X122580213Y-90030109D01*
X122752179Y-90155048D01*
X122752181Y-90155049D01*
X122752184Y-90155051D01*
X122941588Y-90251557D01*
X123143757Y-90317246D01*
X123353713Y-90350500D01*
X123353714Y-90350500D01*
X123566286Y-90350500D01*
X123566287Y-90350500D01*
X123776243Y-90317246D01*
X123978412Y-90251557D01*
X124167816Y-90155051D01*
X124254138Y-90092335D01*
X124339786Y-90030109D01*
X124339788Y-90030106D01*
X124339792Y-90030104D01*
X124490104Y-89879792D01*
X124490106Y-89879788D01*
X124490109Y-89879786D01*
X124615048Y-89707820D01*
X124615047Y-89707820D01*
X124615051Y-89707816D01*
X124619514Y-89699054D01*
X124667488Y-89648259D01*
X124735308Y-89631463D01*
X124801444Y-89653999D01*
X124840486Y-89699056D01*
X124844951Y-89707820D01*
X124969890Y-89879786D01*
X125120213Y-90030109D01*
X125292179Y-90155048D01*
X125292181Y-90155049D01*
X125292184Y-90155051D01*
X125481588Y-90251557D01*
X125683757Y-90317246D01*
X125893713Y-90350500D01*
X125893714Y-90350500D01*
X126106286Y-90350500D01*
X126106287Y-90350500D01*
X126316243Y-90317246D01*
X126518412Y-90251557D01*
X126707816Y-90155051D01*
X126794138Y-90092335D01*
X126879786Y-90030109D01*
X126879788Y-90030106D01*
X126879792Y-90030104D01*
X127030104Y-89879792D01*
X127030106Y-89879788D01*
X127030109Y-89879786D01*
X127155048Y-89707820D01*
X127155051Y-89707816D01*
X127159793Y-89698508D01*
X127207763Y-89647711D01*
X127275583Y-89630911D01*
X127341719Y-89653445D01*
X127380763Y-89698500D01*
X127385377Y-89707555D01*
X127510272Y-89879459D01*
X127510276Y-89879464D01*
X127660535Y-90029723D01*
X127660540Y-90029727D01*
X127832442Y-90154620D01*
X128021782Y-90251095D01*
X128223871Y-90316757D01*
X128290000Y-90327231D01*
X128290000Y-89433012D01*
X128347007Y-89465925D01*
X128474174Y-89500000D01*
X128605826Y-89500000D01*
X128732993Y-89465925D01*
X128790000Y-89433012D01*
X128790000Y-90327230D01*
X128856126Y-90316757D01*
X128856129Y-90316757D01*
X129058217Y-90251095D01*
X129247557Y-90154620D01*
X129419459Y-90029727D01*
X129419464Y-90029723D01*
X129569723Y-89879464D01*
X129569727Y-89879459D01*
X129694620Y-89707558D01*
X129699232Y-89698507D01*
X129747205Y-89647709D01*
X129815025Y-89630912D01*
X129881161Y-89653447D01*
X129920204Y-89698504D01*
X129924949Y-89707817D01*
X130049890Y-89879786D01*
X130049896Y-89879792D01*
X130200208Y-90030104D01*
X130278384Y-90086902D01*
X130321051Y-90142231D01*
X130329500Y-90187220D01*
X130329500Y-92657770D01*
X130309815Y-92724809D01*
X130293181Y-92745451D01*
X130109000Y-92929631D01*
X130047677Y-92963116D01*
X130045510Y-92963567D01*
X129951925Y-92982182D01*
X129951917Y-92982184D01*
X129797139Y-93046295D01*
X129657837Y-93139373D01*
X129539373Y-93257837D01*
X129446295Y-93397139D01*
X129382184Y-93551917D01*
X129382182Y-93551925D01*
X129349500Y-93716228D01*
X129349500Y-93883771D01*
X129382182Y-94048074D01*
X129382184Y-94048082D01*
X129446295Y-94202860D01*
X129539373Y-94342162D01*
X129657837Y-94460626D01*
X129743430Y-94517817D01*
X129797137Y-94553703D01*
X129951918Y-94617816D01*
X130091936Y-94645667D01*
X130116228Y-94650499D01*
X130116232Y-94650500D01*
X130116233Y-94650500D01*
X130283768Y-94650500D01*
X130283769Y-94650499D01*
X130448082Y-94617816D01*
X130602863Y-94553703D01*
X130742162Y-94460626D01*
X130860626Y-94342162D01*
X130937251Y-94227483D01*
X130952663Y-94208703D01*
X131662952Y-93498415D01*
X131705153Y-93435256D01*
X131745084Y-93375495D01*
X131777541Y-93297137D01*
X131801659Y-93238912D01*
X131830500Y-93093917D01*
X131830500Y-92946082D01*
X131830500Y-90187220D01*
X131850185Y-90120181D01*
X131881614Y-90086902D01*
X131959792Y-90030104D01*
X132110104Y-89879792D01*
X132110106Y-89879788D01*
X132110109Y-89879786D01*
X132235048Y-89707820D01*
X132235047Y-89707820D01*
X132235051Y-89707816D01*
X132331557Y-89518412D01*
X132397246Y-89316243D01*
X132430500Y-89106287D01*
X132430500Y-88897648D01*
X134699500Y-88897648D01*
X134699500Y-89102351D01*
X134731522Y-89304534D01*
X134794781Y-89499223D01*
X134858691Y-89624653D01*
X134873644Y-89653999D01*
X134887715Y-89681613D01*
X135008028Y-89847213D01*
X135152786Y-89991971D01*
X135290928Y-90092335D01*
X135318390Y-90112287D01*
X135402319Y-90155051D01*
X135500776Y-90205218D01*
X135500778Y-90205218D01*
X135500781Y-90205220D01*
X135605137Y-90239127D01*
X135695465Y-90268477D01*
X135796557Y-90284488D01*
X135897648Y-90300500D01*
X135897649Y-90300500D01*
X136102351Y-90300500D01*
X136102352Y-90300500D01*
X136304534Y-90268477D01*
X136499219Y-90205220D01*
X136681610Y-90112287D01*
X136795251Y-90029723D01*
X136847213Y-89991971D01*
X136847215Y-89991968D01*
X136847219Y-89991966D01*
X136991966Y-89847219D01*
X136991968Y-89847215D01*
X136991971Y-89847213D01*
X137093244Y-89707820D01*
X137112287Y-89681610D01*
X137205220Y-89499219D01*
X137268477Y-89304534D01*
X137300500Y-89102352D01*
X137300500Y-88897648D01*
X137299877Y-88893713D01*
X137268477Y-88695465D01*
X137237426Y-88599901D01*
X137205220Y-88500781D01*
X137205218Y-88500778D01*
X137205218Y-88500776D01*
X137171503Y-88434607D01*
X137112287Y-88318390D01*
X137093436Y-88292443D01*
X136991971Y-88152786D01*
X136847213Y-88008028D01*
X136681613Y-87887715D01*
X136681612Y-87887714D01*
X136681610Y-87887713D01*
X136598525Y-87845379D01*
X136499223Y-87794781D01*
X136304534Y-87731522D01*
X136129995Y-87703878D01*
X136102352Y-87699500D01*
X135897648Y-87699500D01*
X135873329Y-87703351D01*
X135695465Y-87731522D01*
X135500776Y-87794781D01*
X135318386Y-87887715D01*
X135152786Y-88008028D01*
X135008028Y-88152786D01*
X134887715Y-88318386D01*
X134794781Y-88500776D01*
X134731522Y-88695465D01*
X134699500Y-88897648D01*
X132430500Y-88897648D01*
X132430500Y-88893713D01*
X132397246Y-88683757D01*
X132331557Y-88481588D01*
X132235051Y-88292184D01*
X132235049Y-88292181D01*
X132235048Y-88292179D01*
X132110109Y-88120213D01*
X131959786Y-87969890D01*
X131787820Y-87844951D01*
X131598414Y-87748444D01*
X131598413Y-87748443D01*
X131598412Y-87748443D01*
X131396243Y-87682754D01*
X131396241Y-87682753D01*
X131396240Y-87682753D01*
X131234957Y-87657208D01*
X131186287Y-87649500D01*
X130973713Y-87649500D01*
X130925042Y-87657208D01*
X130763760Y-87682753D01*
X130561585Y-87748444D01*
X130372179Y-87844951D01*
X130200213Y-87969890D01*
X130049890Y-88120213D01*
X129924949Y-88292182D01*
X129920202Y-88301499D01*
X129872227Y-88352293D01*
X129804405Y-88369087D01*
X129738271Y-88346548D01*
X129699234Y-88301495D01*
X129694622Y-88292444D01*
X129569727Y-88120540D01*
X129569723Y-88120535D01*
X129419464Y-87970276D01*
X129419459Y-87970272D01*
X129247557Y-87845379D01*
X129058215Y-87748903D01*
X128856124Y-87683241D01*
X128790000Y-87672768D01*
X128790000Y-88566988D01*
X128732993Y-88534075D01*
X128605826Y-88500000D01*
X128474174Y-88500000D01*
X128347007Y-88534075D01*
X128290000Y-88566988D01*
X128290000Y-87672768D01*
X128289999Y-87672768D01*
X128223875Y-87683241D01*
X128021784Y-87748903D01*
X127832442Y-87845379D01*
X127660540Y-87970272D01*
X127660535Y-87970276D01*
X127510276Y-88120535D01*
X127510272Y-88120540D01*
X127385378Y-88292443D01*
X127380762Y-88301502D01*
X127332784Y-88352295D01*
X127264963Y-88369087D01*
X127198829Y-88346546D01*
X127159794Y-88301493D01*
X127155051Y-88292184D01*
X127155049Y-88292181D01*
X127155048Y-88292179D01*
X127030109Y-88120213D01*
X126879786Y-87969890D01*
X126707820Y-87844951D01*
X126518414Y-87748444D01*
X126518413Y-87748443D01*
X126518412Y-87748443D01*
X126316243Y-87682754D01*
X126316241Y-87682753D01*
X126316240Y-87682753D01*
X126154957Y-87657208D01*
X126106287Y-87649500D01*
X125893713Y-87649500D01*
X125845042Y-87657208D01*
X125683760Y-87682753D01*
X125481585Y-87748444D01*
X125292179Y-87844951D01*
X125120213Y-87969890D01*
X124969890Y-88120213D01*
X124844949Y-88292182D01*
X124840484Y-88300946D01*
X124792509Y-88351742D01*
X124724688Y-88368536D01*
X124658553Y-88345998D01*
X124619516Y-88300946D01*
X124615050Y-88292182D01*
X124490109Y-88120213D01*
X124339786Y-87969890D01*
X124167820Y-87844951D01*
X123978414Y-87748444D01*
X123978413Y-87748443D01*
X123978412Y-87748443D01*
X123776243Y-87682754D01*
X123776241Y-87682753D01*
X123776240Y-87682753D01*
X123614957Y-87657208D01*
X123566287Y-87649500D01*
X123353713Y-87649500D01*
X123305042Y-87657208D01*
X123143760Y-87682753D01*
X122941585Y-87748444D01*
X122752179Y-87844951D01*
X122580213Y-87969890D01*
X122429890Y-88120213D01*
X122304949Y-88292182D01*
X122300484Y-88300946D01*
X122252509Y-88351742D01*
X122184688Y-88368536D01*
X122118553Y-88345998D01*
X122079516Y-88300946D01*
X122075050Y-88292182D01*
X121950109Y-88120213D01*
X121799786Y-87969890D01*
X121627820Y-87844951D01*
X121438414Y-87748444D01*
X121438413Y-87748443D01*
X121438412Y-87748443D01*
X121236243Y-87682754D01*
X121236241Y-87682753D01*
X121236240Y-87682753D01*
X121074957Y-87657208D01*
X121026287Y-87649500D01*
X120813713Y-87649500D01*
X120765042Y-87657208D01*
X120603760Y-87682753D01*
X120401585Y-87748444D01*
X120212179Y-87844951D01*
X120040213Y-87969890D01*
X119889890Y-88120213D01*
X119764949Y-88292182D01*
X119760484Y-88300946D01*
X119712509Y-88351742D01*
X119644688Y-88368536D01*
X119578553Y-88345998D01*
X119539516Y-88300946D01*
X119535050Y-88292182D01*
X119410109Y-88120213D01*
X119259786Y-87969890D01*
X119087820Y-87844951D01*
X118898414Y-87748444D01*
X118898413Y-87748443D01*
X118898412Y-87748443D01*
X118696243Y-87682754D01*
X118696241Y-87682753D01*
X118696240Y-87682753D01*
X118534957Y-87657208D01*
X118486287Y-87649500D01*
X118273713Y-87649500D01*
X118225042Y-87657208D01*
X118063760Y-87682753D01*
X117861585Y-87748444D01*
X117672179Y-87844951D01*
X117500213Y-87969890D01*
X117349890Y-88120213D01*
X117224949Y-88292182D01*
X117220484Y-88300946D01*
X117172509Y-88351742D01*
X117104688Y-88368536D01*
X117038553Y-88345998D01*
X116999516Y-88300946D01*
X116995050Y-88292182D01*
X116870109Y-88120213D01*
X116719786Y-87969890D01*
X116547820Y-87844951D01*
X116358414Y-87748444D01*
X116358413Y-87748443D01*
X116358412Y-87748443D01*
X116156243Y-87682754D01*
X116156241Y-87682753D01*
X116156240Y-87682753D01*
X115994957Y-87657208D01*
X115946287Y-87649500D01*
X115733713Y-87649500D01*
X115685042Y-87657208D01*
X115523760Y-87682753D01*
X115321585Y-87748444D01*
X115132179Y-87844951D01*
X114960213Y-87969890D01*
X114809890Y-88120213D01*
X114684949Y-88292182D01*
X114680484Y-88300946D01*
X114632509Y-88351742D01*
X114564688Y-88368536D01*
X114498553Y-88345998D01*
X114459516Y-88300946D01*
X114455050Y-88292182D01*
X114330109Y-88120213D01*
X114179786Y-87969890D01*
X114007820Y-87844951D01*
X113818414Y-87748444D01*
X113818413Y-87748443D01*
X113818412Y-87748443D01*
X113616243Y-87682754D01*
X113616241Y-87682753D01*
X113616240Y-87682753D01*
X113454957Y-87657208D01*
X113406287Y-87649500D01*
X113193713Y-87649500D01*
X113145042Y-87657208D01*
X112983760Y-87682753D01*
X112781585Y-87748444D01*
X112592179Y-87844951D01*
X112420213Y-87969890D01*
X112269890Y-88120213D01*
X112144949Y-88292182D01*
X112140484Y-88300946D01*
X112092509Y-88351742D01*
X112024688Y-88368536D01*
X111958553Y-88345998D01*
X111919516Y-88300946D01*
X111915050Y-88292182D01*
X111790109Y-88120213D01*
X111639786Y-87969890D01*
X111467820Y-87844951D01*
X111278414Y-87748444D01*
X111278413Y-87748443D01*
X111278412Y-87748443D01*
X111076243Y-87682754D01*
X111076241Y-87682753D01*
X111076240Y-87682753D01*
X110914957Y-87657208D01*
X110866287Y-87649500D01*
X110653713Y-87649500D01*
X110605042Y-87657208D01*
X110443760Y-87682753D01*
X110241585Y-87748444D01*
X110052179Y-87844951D01*
X109880213Y-87969890D01*
X109729890Y-88120213D01*
X109604949Y-88292182D01*
X109600484Y-88300946D01*
X109552509Y-88351742D01*
X109484688Y-88368536D01*
X109418553Y-88345998D01*
X109379516Y-88300946D01*
X109375050Y-88292182D01*
X109250109Y-88120213D01*
X109099786Y-87969890D01*
X108927820Y-87844951D01*
X108738414Y-87748444D01*
X108738413Y-87748443D01*
X108738412Y-87748443D01*
X108536243Y-87682754D01*
X108536241Y-87682753D01*
X108536240Y-87682753D01*
X108374957Y-87657208D01*
X108326287Y-87649500D01*
X108113713Y-87649500D01*
X108065042Y-87657208D01*
X107903760Y-87682753D01*
X107701585Y-87748444D01*
X107512179Y-87844951D01*
X107340213Y-87969890D01*
X107189890Y-88120213D01*
X107064949Y-88292182D01*
X107060484Y-88300946D01*
X107012509Y-88351742D01*
X106944688Y-88368536D01*
X106878553Y-88345998D01*
X106839516Y-88300946D01*
X106835050Y-88292182D01*
X106710109Y-88120213D01*
X106559786Y-87969890D01*
X106387820Y-87844951D01*
X106198414Y-87748444D01*
X106198413Y-87748443D01*
X106198412Y-87748443D01*
X105996243Y-87682754D01*
X105996241Y-87682753D01*
X105996240Y-87682753D01*
X105834957Y-87657208D01*
X105786287Y-87649500D01*
X105573713Y-87649500D01*
X105525042Y-87657208D01*
X105363760Y-87682753D01*
X105161585Y-87748444D01*
X104972179Y-87844951D01*
X104800213Y-87969890D01*
X104649890Y-88120213D01*
X104524949Y-88292182D01*
X104520484Y-88300946D01*
X104472509Y-88351742D01*
X104404688Y-88368536D01*
X104338553Y-88345998D01*
X104299516Y-88300946D01*
X104295050Y-88292182D01*
X104170109Y-88120213D01*
X104019786Y-87969890D01*
X103847820Y-87844951D01*
X103658414Y-87748444D01*
X103658413Y-87748443D01*
X103658412Y-87748443D01*
X103456243Y-87682754D01*
X103456241Y-87682753D01*
X103456240Y-87682753D01*
X103294957Y-87657208D01*
X103246287Y-87649500D01*
X103033713Y-87649500D01*
X102985042Y-87657208D01*
X102823760Y-87682753D01*
X102621585Y-87748444D01*
X102432179Y-87844951D01*
X102260213Y-87969890D01*
X102109890Y-88120213D01*
X101984949Y-88292182D01*
X101980484Y-88300946D01*
X101932509Y-88351742D01*
X101864688Y-88368536D01*
X101798553Y-88345998D01*
X101759516Y-88300946D01*
X101755050Y-88292182D01*
X101630109Y-88120213D01*
X101479786Y-87969890D01*
X101307820Y-87844951D01*
X101118414Y-87748444D01*
X101118413Y-87748443D01*
X101118412Y-87748443D01*
X100916243Y-87682754D01*
X100916241Y-87682753D01*
X100916240Y-87682753D01*
X100754957Y-87657208D01*
X100706287Y-87649500D01*
X100493713Y-87649500D01*
X100445042Y-87657208D01*
X100283760Y-87682753D01*
X100081585Y-87748444D01*
X99892179Y-87844951D01*
X99720213Y-87969890D01*
X99569890Y-88120213D01*
X99444949Y-88292182D01*
X99440484Y-88300946D01*
X99392509Y-88351742D01*
X99324688Y-88368536D01*
X99258553Y-88345998D01*
X99219516Y-88300946D01*
X99215050Y-88292182D01*
X99090109Y-88120213D01*
X98939786Y-87969890D01*
X98767820Y-87844951D01*
X98578414Y-87748444D01*
X98578413Y-87748443D01*
X98578412Y-87748443D01*
X98376243Y-87682754D01*
X98376241Y-87682753D01*
X98376240Y-87682753D01*
X98214957Y-87657208D01*
X98166287Y-87649500D01*
X97953713Y-87649500D01*
X97905042Y-87657208D01*
X97743760Y-87682753D01*
X97541585Y-87748444D01*
X97352179Y-87844951D01*
X97180213Y-87969890D01*
X97029890Y-88120213D01*
X96904949Y-88292182D01*
X96900484Y-88300946D01*
X96852509Y-88351742D01*
X96784688Y-88368536D01*
X96718553Y-88345998D01*
X96679516Y-88300946D01*
X96675050Y-88292182D01*
X96550109Y-88120213D01*
X96399786Y-87969890D01*
X96227820Y-87844951D01*
X96038414Y-87748444D01*
X96038413Y-87748443D01*
X96038412Y-87748443D01*
X95836243Y-87682754D01*
X95836241Y-87682753D01*
X95836240Y-87682753D01*
X95674957Y-87657208D01*
X95626287Y-87649500D01*
X95413713Y-87649500D01*
X95365042Y-87657208D01*
X95203760Y-87682753D01*
X95001585Y-87748444D01*
X94812179Y-87844951D01*
X94640213Y-87969890D01*
X94489890Y-88120213D01*
X94364949Y-88292182D01*
X94360484Y-88300946D01*
X94312509Y-88351742D01*
X94244688Y-88368536D01*
X94178553Y-88345998D01*
X94139516Y-88300946D01*
X94135050Y-88292182D01*
X94010109Y-88120213D01*
X93859786Y-87969890D01*
X93687820Y-87844951D01*
X93498414Y-87748444D01*
X93498413Y-87748443D01*
X93498412Y-87748443D01*
X93296243Y-87682754D01*
X93296241Y-87682753D01*
X93296240Y-87682753D01*
X93134957Y-87657208D01*
X93086287Y-87649500D01*
X92873713Y-87649500D01*
X92825042Y-87657208D01*
X92663760Y-87682753D01*
X92461585Y-87748444D01*
X92272179Y-87844951D01*
X92100213Y-87969890D01*
X91949890Y-88120213D01*
X91824949Y-88292182D01*
X91820484Y-88300946D01*
X91772509Y-88351742D01*
X91704688Y-88368536D01*
X91638553Y-88345998D01*
X91599516Y-88300946D01*
X91595050Y-88292182D01*
X91470109Y-88120213D01*
X91319786Y-87969890D01*
X91147820Y-87844951D01*
X90958414Y-87748444D01*
X90958413Y-87748443D01*
X90958412Y-87748443D01*
X90756243Y-87682754D01*
X90756241Y-87682753D01*
X90756240Y-87682753D01*
X90594957Y-87657208D01*
X90546287Y-87649500D01*
X90333713Y-87649500D01*
X90285042Y-87657208D01*
X90123760Y-87682753D01*
X89921585Y-87748444D01*
X89732179Y-87844951D01*
X89560215Y-87969889D01*
X89446673Y-88083431D01*
X89385350Y-88116915D01*
X89315658Y-88111931D01*
X89259725Y-88070059D01*
X89242810Y-88039082D01*
X89193797Y-87907671D01*
X89193793Y-87907664D01*
X89107547Y-87792455D01*
X89107544Y-87792452D01*
X88992335Y-87706206D01*
X88992328Y-87706202D01*
X88857482Y-87655908D01*
X88857483Y-87655908D01*
X88797883Y-87649501D01*
X88797881Y-87649500D01*
X88797873Y-87649500D01*
X88797864Y-87649500D01*
X87002129Y-87649500D01*
X87002123Y-87649501D01*
X86942516Y-87655908D01*
X86807671Y-87706202D01*
X86807664Y-87706206D01*
X86692455Y-87792452D01*
X86692452Y-87792455D01*
X86606206Y-87907664D01*
X86606202Y-87907671D01*
X86555908Y-88042517D01*
X86549501Y-88102116D01*
X86549500Y-88102135D01*
X83941320Y-88102135D01*
X83847213Y-88008028D01*
X83681613Y-87887715D01*
X83681612Y-87887714D01*
X83681610Y-87887713D01*
X83598525Y-87845379D01*
X83499223Y-87794781D01*
X83304534Y-87731522D01*
X83129995Y-87703878D01*
X83102352Y-87699500D01*
X82897648Y-87699500D01*
X82873329Y-87703351D01*
X82695465Y-87731522D01*
X82500776Y-87794781D01*
X82318386Y-87887715D01*
X82152786Y-88008028D01*
X82008028Y-88152786D01*
X81887715Y-88318386D01*
X81794781Y-88500776D01*
X81731522Y-88695465D01*
X81699500Y-88897648D01*
X80506691Y-88897648D01*
X80507439Y-88885289D01*
X80518271Y-88706205D01*
X80520076Y-88691340D01*
X80554998Y-88500781D01*
X80571780Y-88409197D01*
X80575364Y-88394663D01*
X80583334Y-88369087D01*
X80660696Y-88120822D01*
X80665998Y-88106841D01*
X80783731Y-87845249D01*
X80790676Y-87832016D01*
X80939080Y-87586526D01*
X80947567Y-87574230D01*
X81124480Y-87348417D01*
X81134395Y-87337226D01*
X81337226Y-87134395D01*
X81348417Y-87124480D01*
X81574230Y-86947567D01*
X81586526Y-86939080D01*
X81832016Y-86790676D01*
X81845249Y-86783731D01*
X82106841Y-86665998D01*
X82120822Y-86660696D01*
X82394668Y-86575362D01*
X82409197Y-86571780D01*
X82691344Y-86520075D01*
X82706201Y-86518271D01*
X82996264Y-86500726D01*
X83003751Y-86500500D01*
X83065892Y-86500500D01*
X135934108Y-86500500D01*
X135996249Y-86500500D01*
X136003736Y-86500726D01*
G37*
%TD.AperFunction*%
%TD*%
%TA.AperFunction,Conductor*%
%TO.N,VBUS*%
G36*
X129266529Y-100469685D02*
G01*
X129291469Y-100490838D01*
X129717979Y-100962565D01*
X129748338Y-101025494D01*
X129750000Y-101045727D01*
X129750000Y-106650000D01*
X130049999Y-107149999D01*
X130049999Y-107150000D01*
X130050000Y-107150000D01*
X130498638Y-107150000D01*
X130565677Y-107169685D01*
X130586319Y-107186319D01*
X131063681Y-107663681D01*
X131097166Y-107725004D01*
X131100000Y-107751362D01*
X131100000Y-108394775D01*
X131080315Y-108461814D01*
X131058952Y-108486943D01*
X130635369Y-108868168D01*
X130572370Y-108898384D01*
X130552417Y-108900000D01*
X127597939Y-108900000D01*
X127530900Y-108880315D01*
X127514528Y-108867753D01*
X127040589Y-108436899D01*
X127004225Y-108377238D01*
X127000000Y-108345146D01*
X127000000Y-107513813D01*
X127019685Y-107446774D01*
X127051926Y-107412910D01*
X127317664Y-107223097D01*
X127383658Y-107200149D01*
X127389738Y-107200000D01*
X127749999Y-107200000D01*
X127750000Y-107200000D01*
X128150000Y-106950000D01*
X128150000Y-101138734D01*
X128169685Y-101071695D01*
X128172031Y-101068176D01*
X128563018Y-100503417D01*
X128617362Y-100459503D01*
X128664970Y-100450000D01*
X129199490Y-100450000D01*
X129266529Y-100469685D01*
G37*
%TD.AperFunction*%
%TD*%
M02*
