%TF.GenerationSoftware,KiCad,Pcbnew,9.0.1*%
%TF.CreationDate,2025-04-04T14:44:14+02:00*%
%TF.ProjectId,stm32_red_pill,73746d33-325f-4726-9564-5f70696c6c2e,rev?*%
%TF.SameCoordinates,Original*%
%TF.FileFunction,Legend,Top*%
%TF.FilePolarity,Positive*%
%FSLAX46Y46*%
G04 Gerber Fmt 4.6, Leading zero omitted, Abs format (unit mm)*
G04 Created by KiCad (PCBNEW 9.0.1) date 2025-04-04 14:44:14*
%MOMM*%
%LPD*%
G01*
G04 APERTURE LIST*
%ADD10C,0.150000*%
%ADD11C,0.120000*%
G04 APERTURE END LIST*
D10*
X125083333Y-106104819D02*
X124750000Y-105628628D01*
X124511905Y-106104819D02*
X124511905Y-105104819D01*
X124511905Y-105104819D02*
X124892857Y-105104819D01*
X124892857Y-105104819D02*
X124988095Y-105152438D01*
X124988095Y-105152438D02*
X125035714Y-105200057D01*
X125035714Y-105200057D02*
X125083333Y-105295295D01*
X125083333Y-105295295D02*
X125083333Y-105438152D01*
X125083333Y-105438152D02*
X125035714Y-105533390D01*
X125035714Y-105533390D02*
X124988095Y-105581009D01*
X124988095Y-105581009D02*
X124892857Y-105628628D01*
X124892857Y-105628628D02*
X124511905Y-105628628D01*
X125464286Y-105200057D02*
X125511905Y-105152438D01*
X125511905Y-105152438D02*
X125607143Y-105104819D01*
X125607143Y-105104819D02*
X125845238Y-105104819D01*
X125845238Y-105104819D02*
X125940476Y-105152438D01*
X125940476Y-105152438D02*
X125988095Y-105200057D01*
X125988095Y-105200057D02*
X126035714Y-105295295D01*
X126035714Y-105295295D02*
X126035714Y-105390533D01*
X126035714Y-105390533D02*
X125988095Y-105533390D01*
X125988095Y-105533390D02*
X125416667Y-106104819D01*
X125416667Y-106104819D02*
X126035714Y-106104819D01*
X113938476Y-97025822D02*
X113871132Y-97025822D01*
X113871132Y-97025822D02*
X113736445Y-96958478D01*
X113736445Y-96958478D02*
X113669102Y-96891135D01*
X113669102Y-96891135D02*
X113601758Y-96756448D01*
X113601758Y-96756448D02*
X113601758Y-96621761D01*
X113601758Y-96621761D02*
X113635430Y-96520746D01*
X113635430Y-96520746D02*
X113736445Y-96352387D01*
X113736445Y-96352387D02*
X113837460Y-96251372D01*
X113837460Y-96251372D02*
X114005819Y-96150356D01*
X114005819Y-96150356D02*
X114106834Y-96116685D01*
X114106834Y-96116685D02*
X114241521Y-96116685D01*
X114241521Y-96116685D02*
X114376208Y-96184028D01*
X114376208Y-96184028D02*
X114443552Y-96251372D01*
X114443552Y-96251372D02*
X114510895Y-96386059D01*
X114510895Y-96386059D02*
X114510895Y-96453402D01*
X115218002Y-97025822D02*
X114881285Y-96689104D01*
X114881285Y-96689104D02*
X114510895Y-96992150D01*
X114510895Y-96992150D02*
X114578239Y-96992150D01*
X114578239Y-96992150D02*
X114679254Y-97025822D01*
X114679254Y-97025822D02*
X114847613Y-97194181D01*
X114847613Y-97194181D02*
X114881285Y-97295196D01*
X114881285Y-97295196D02*
X114881285Y-97362539D01*
X114881285Y-97362539D02*
X114847613Y-97463555D01*
X114847613Y-97463555D02*
X114679254Y-97631913D01*
X114679254Y-97631913D02*
X114578239Y-97665585D01*
X114578239Y-97665585D02*
X114510895Y-97665585D01*
X114510895Y-97665585D02*
X114409880Y-97631913D01*
X114409880Y-97631913D02*
X114241521Y-97463555D01*
X114241521Y-97463555D02*
X114207850Y-97362539D01*
X114207850Y-97362539D02*
X114207850Y-97295196D01*
X99233333Y-102559580D02*
X99185714Y-102607200D01*
X99185714Y-102607200D02*
X99042857Y-102654819D01*
X99042857Y-102654819D02*
X98947619Y-102654819D01*
X98947619Y-102654819D02*
X98804762Y-102607200D01*
X98804762Y-102607200D02*
X98709524Y-102511961D01*
X98709524Y-102511961D02*
X98661905Y-102416723D01*
X98661905Y-102416723D02*
X98614286Y-102226247D01*
X98614286Y-102226247D02*
X98614286Y-102083390D01*
X98614286Y-102083390D02*
X98661905Y-101892914D01*
X98661905Y-101892914D02*
X98709524Y-101797676D01*
X98709524Y-101797676D02*
X98804762Y-101702438D01*
X98804762Y-101702438D02*
X98947619Y-101654819D01*
X98947619Y-101654819D02*
X99042857Y-101654819D01*
X99042857Y-101654819D02*
X99185714Y-101702438D01*
X99185714Y-101702438D02*
X99233333Y-101750057D01*
X99566667Y-101654819D02*
X100233333Y-101654819D01*
X100233333Y-101654819D02*
X99804762Y-102654819D01*
X87566666Y-90954819D02*
X87566666Y-91669104D01*
X87566666Y-91669104D02*
X87519047Y-91811961D01*
X87519047Y-91811961D02*
X87423809Y-91907200D01*
X87423809Y-91907200D02*
X87280952Y-91954819D01*
X87280952Y-91954819D02*
X87185714Y-91954819D01*
X87995238Y-91050057D02*
X88042857Y-91002438D01*
X88042857Y-91002438D02*
X88138095Y-90954819D01*
X88138095Y-90954819D02*
X88376190Y-90954819D01*
X88376190Y-90954819D02*
X88471428Y-91002438D01*
X88471428Y-91002438D02*
X88519047Y-91050057D01*
X88519047Y-91050057D02*
X88566666Y-91145295D01*
X88566666Y-91145295D02*
X88566666Y-91240533D01*
X88566666Y-91240533D02*
X88519047Y-91383390D01*
X88519047Y-91383390D02*
X87947619Y-91954819D01*
X87947619Y-91954819D02*
X88566666Y-91954819D01*
X115057342Y-101265161D02*
X114484922Y-101837581D01*
X114484922Y-101837581D02*
X114451250Y-101938596D01*
X114451250Y-101938596D02*
X114451250Y-102005940D01*
X114451250Y-102005940D02*
X114484922Y-102106955D01*
X114484922Y-102106955D02*
X114619609Y-102241642D01*
X114619609Y-102241642D02*
X114720624Y-102275314D01*
X114720624Y-102275314D02*
X114787968Y-102275314D01*
X114787968Y-102275314D02*
X114888983Y-102241642D01*
X114888983Y-102241642D02*
X115461403Y-101669222D01*
X115461403Y-103083436D02*
X115057342Y-102679375D01*
X115259372Y-102881405D02*
X115966479Y-102174299D01*
X115966479Y-102174299D02*
X115798120Y-102207970D01*
X115798120Y-102207970D02*
X115663433Y-102207970D01*
X115663433Y-102207970D02*
X115562418Y-102174299D01*
X130404819Y-104133333D02*
X131119104Y-104133333D01*
X131119104Y-104133333D02*
X131261961Y-104180952D01*
X131261961Y-104180952D02*
X131357200Y-104276190D01*
X131357200Y-104276190D02*
X131404819Y-104419047D01*
X131404819Y-104419047D02*
X131404819Y-104514285D01*
X131404819Y-103133333D02*
X131404819Y-103704761D01*
X131404819Y-103419047D02*
X130404819Y-103419047D01*
X130404819Y-103419047D02*
X130547676Y-103514285D01*
X130547676Y-103514285D02*
X130642914Y-103609523D01*
X130642914Y-103609523D02*
X130690533Y-103704761D01*
X98357142Y-98359580D02*
X98309523Y-98407200D01*
X98309523Y-98407200D02*
X98166666Y-98454819D01*
X98166666Y-98454819D02*
X98071428Y-98454819D01*
X98071428Y-98454819D02*
X97928571Y-98407200D01*
X97928571Y-98407200D02*
X97833333Y-98311961D01*
X97833333Y-98311961D02*
X97785714Y-98216723D01*
X97785714Y-98216723D02*
X97738095Y-98026247D01*
X97738095Y-98026247D02*
X97738095Y-97883390D01*
X97738095Y-97883390D02*
X97785714Y-97692914D01*
X97785714Y-97692914D02*
X97833333Y-97597676D01*
X97833333Y-97597676D02*
X97928571Y-97502438D01*
X97928571Y-97502438D02*
X98071428Y-97454819D01*
X98071428Y-97454819D02*
X98166666Y-97454819D01*
X98166666Y-97454819D02*
X98309523Y-97502438D01*
X98309523Y-97502438D02*
X98357142Y-97550057D01*
X99309523Y-98454819D02*
X98738095Y-98454819D01*
X99023809Y-98454819D02*
X99023809Y-97454819D01*
X99023809Y-97454819D02*
X98928571Y-97597676D01*
X98928571Y-97597676D02*
X98833333Y-97692914D01*
X98833333Y-97692914D02*
X98738095Y-97740533D01*
X100261904Y-98454819D02*
X99690476Y-98454819D01*
X99976190Y-98454819D02*
X99976190Y-97454819D01*
X99976190Y-97454819D02*
X99880952Y-97597676D01*
X99880952Y-97597676D02*
X99785714Y-97692914D01*
X99785714Y-97692914D02*
X99690476Y-97740533D01*
X87616666Y-110954819D02*
X87616666Y-111669104D01*
X87616666Y-111669104D02*
X87569047Y-111811961D01*
X87569047Y-111811961D02*
X87473809Y-111907200D01*
X87473809Y-111907200D02*
X87330952Y-111954819D01*
X87330952Y-111954819D02*
X87235714Y-111954819D01*
X87997619Y-110954819D02*
X88616666Y-110954819D01*
X88616666Y-110954819D02*
X88283333Y-111335771D01*
X88283333Y-111335771D02*
X88426190Y-111335771D01*
X88426190Y-111335771D02*
X88521428Y-111383390D01*
X88521428Y-111383390D02*
X88569047Y-111431009D01*
X88569047Y-111431009D02*
X88616666Y-111526247D01*
X88616666Y-111526247D02*
X88616666Y-111764342D01*
X88616666Y-111764342D02*
X88569047Y-111859580D01*
X88569047Y-111859580D02*
X88521428Y-111907200D01*
X88521428Y-111907200D02*
X88426190Y-111954819D01*
X88426190Y-111954819D02*
X88140476Y-111954819D01*
X88140476Y-111954819D02*
X88045238Y-111907200D01*
X88045238Y-111907200D02*
X87997619Y-111859580D01*
X133607200Y-94633332D02*
X133654819Y-94490475D01*
X133654819Y-94490475D02*
X133654819Y-94252380D01*
X133654819Y-94252380D02*
X133607200Y-94157142D01*
X133607200Y-94157142D02*
X133559580Y-94109523D01*
X133559580Y-94109523D02*
X133464342Y-94061904D01*
X133464342Y-94061904D02*
X133369104Y-94061904D01*
X133369104Y-94061904D02*
X133273866Y-94109523D01*
X133273866Y-94109523D02*
X133226247Y-94157142D01*
X133226247Y-94157142D02*
X133178628Y-94252380D01*
X133178628Y-94252380D02*
X133131009Y-94442856D01*
X133131009Y-94442856D02*
X133083390Y-94538094D01*
X133083390Y-94538094D02*
X133035771Y-94585713D01*
X133035771Y-94585713D02*
X132940533Y-94633332D01*
X132940533Y-94633332D02*
X132845295Y-94633332D01*
X132845295Y-94633332D02*
X132750057Y-94585713D01*
X132750057Y-94585713D02*
X132702438Y-94538094D01*
X132702438Y-94538094D02*
X132654819Y-94442856D01*
X132654819Y-94442856D02*
X132654819Y-94204761D01*
X132654819Y-94204761D02*
X132702438Y-94061904D01*
X132654819Y-93728570D02*
X133654819Y-93490475D01*
X133654819Y-93490475D02*
X132940533Y-93299999D01*
X132940533Y-93299999D02*
X133654819Y-93109523D01*
X133654819Y-93109523D02*
X132654819Y-92871428D01*
X133654819Y-91966666D02*
X133654819Y-92538094D01*
X133654819Y-92252380D02*
X132654819Y-92252380D01*
X132654819Y-92252380D02*
X132797676Y-92347618D01*
X132797676Y-92347618D02*
X132892914Y-92442856D01*
X132892914Y-92442856D02*
X132940533Y-92538094D01*
X101943922Y-103648991D02*
X101896303Y-103696611D01*
X101896303Y-103696611D02*
X101753446Y-103744230D01*
X101753446Y-103744230D02*
X101658208Y-103744230D01*
X101658208Y-103744230D02*
X101515351Y-103696611D01*
X101515351Y-103696611D02*
X101420113Y-103601372D01*
X101420113Y-103601372D02*
X101372494Y-103506134D01*
X101372494Y-103506134D02*
X101324875Y-103315658D01*
X101324875Y-103315658D02*
X101324875Y-103172801D01*
X101324875Y-103172801D02*
X101372494Y-102982325D01*
X101372494Y-102982325D02*
X101420113Y-102887087D01*
X101420113Y-102887087D02*
X101515351Y-102791849D01*
X101515351Y-102791849D02*
X101658208Y-102744230D01*
X101658208Y-102744230D02*
X101753446Y-102744230D01*
X101753446Y-102744230D02*
X101896303Y-102791849D01*
X101896303Y-102791849D02*
X101943922Y-102839468D01*
X102420113Y-103744230D02*
X102610589Y-103744230D01*
X102610589Y-103744230D02*
X102705827Y-103696611D01*
X102705827Y-103696611D02*
X102753446Y-103648991D01*
X102753446Y-103648991D02*
X102848684Y-103506134D01*
X102848684Y-103506134D02*
X102896303Y-103315658D01*
X102896303Y-103315658D02*
X102896303Y-102934706D01*
X102896303Y-102934706D02*
X102848684Y-102839468D01*
X102848684Y-102839468D02*
X102801065Y-102791849D01*
X102801065Y-102791849D02*
X102705827Y-102744230D01*
X102705827Y-102744230D02*
X102515351Y-102744230D01*
X102515351Y-102744230D02*
X102420113Y-102791849D01*
X102420113Y-102791849D02*
X102372494Y-102839468D01*
X102372494Y-102839468D02*
X102324875Y-102934706D01*
X102324875Y-102934706D02*
X102324875Y-103172801D01*
X102324875Y-103172801D02*
X102372494Y-103268039D01*
X102372494Y-103268039D02*
X102420113Y-103315658D01*
X102420113Y-103315658D02*
X102515351Y-103363277D01*
X102515351Y-103363277D02*
X102705827Y-103363277D01*
X102705827Y-103363277D02*
X102801065Y-103315658D01*
X102801065Y-103315658D02*
X102848684Y-103268039D01*
X102848684Y-103268039D02*
X102896303Y-103172801D01*
X112938476Y-98025822D02*
X112871132Y-98025822D01*
X112871132Y-98025822D02*
X112736445Y-97958478D01*
X112736445Y-97958478D02*
X112669102Y-97891135D01*
X112669102Y-97891135D02*
X112601758Y-97756448D01*
X112601758Y-97756448D02*
X112601758Y-97621761D01*
X112601758Y-97621761D02*
X112635430Y-97520746D01*
X112635430Y-97520746D02*
X112736445Y-97352387D01*
X112736445Y-97352387D02*
X112837460Y-97251372D01*
X112837460Y-97251372D02*
X113005819Y-97150356D01*
X113005819Y-97150356D02*
X113106834Y-97116685D01*
X113106834Y-97116685D02*
X113241521Y-97116685D01*
X113241521Y-97116685D02*
X113376208Y-97184028D01*
X113376208Y-97184028D02*
X113443552Y-97251372D01*
X113443552Y-97251372D02*
X113510895Y-97386059D01*
X113510895Y-97386059D02*
X113510895Y-97453402D01*
X113780269Y-97722776D02*
X113847613Y-97722776D01*
X113847613Y-97722776D02*
X113948628Y-97756448D01*
X113948628Y-97756448D02*
X114116987Y-97924807D01*
X114116987Y-97924807D02*
X114150659Y-98025822D01*
X114150659Y-98025822D02*
X114150659Y-98093165D01*
X114150659Y-98093165D02*
X114116987Y-98194181D01*
X114116987Y-98194181D02*
X114049643Y-98261524D01*
X114049643Y-98261524D02*
X113914956Y-98328868D01*
X113914956Y-98328868D02*
X113106834Y-98328868D01*
X113106834Y-98328868D02*
X113544567Y-98766600D01*
X107577887Y-109636411D02*
X107510543Y-109636411D01*
X107510543Y-109636411D02*
X107375856Y-109569067D01*
X107375856Y-109569067D02*
X107308513Y-109501724D01*
X107308513Y-109501724D02*
X107241169Y-109367037D01*
X107241169Y-109367037D02*
X107241169Y-109232350D01*
X107241169Y-109232350D02*
X107274841Y-109131335D01*
X107274841Y-109131335D02*
X107375856Y-108962976D01*
X107375856Y-108962976D02*
X107476871Y-108861961D01*
X107476871Y-108861961D02*
X107645230Y-108760945D01*
X107645230Y-108760945D02*
X107746245Y-108727274D01*
X107746245Y-108727274D02*
X107880932Y-108727274D01*
X107880932Y-108727274D02*
X108015619Y-108794617D01*
X108015619Y-108794617D02*
X108082963Y-108861961D01*
X108082963Y-108861961D02*
X108150306Y-108996648D01*
X108150306Y-108996648D02*
X108150306Y-109063991D01*
X108588039Y-109838441D02*
X108116635Y-110309846D01*
X108689054Y-109400709D02*
X108015619Y-109737426D01*
X108015619Y-109737426D02*
X108453352Y-110175159D01*
X100357142Y-94409580D02*
X100309523Y-94457200D01*
X100309523Y-94457200D02*
X100166666Y-94504819D01*
X100166666Y-94504819D02*
X100071428Y-94504819D01*
X100071428Y-94504819D02*
X99928571Y-94457200D01*
X99928571Y-94457200D02*
X99833333Y-94361961D01*
X99833333Y-94361961D02*
X99785714Y-94266723D01*
X99785714Y-94266723D02*
X99738095Y-94076247D01*
X99738095Y-94076247D02*
X99738095Y-93933390D01*
X99738095Y-93933390D02*
X99785714Y-93742914D01*
X99785714Y-93742914D02*
X99833333Y-93647676D01*
X99833333Y-93647676D02*
X99928571Y-93552438D01*
X99928571Y-93552438D02*
X100071428Y-93504819D01*
X100071428Y-93504819D02*
X100166666Y-93504819D01*
X100166666Y-93504819D02*
X100309523Y-93552438D01*
X100309523Y-93552438D02*
X100357142Y-93600057D01*
X101309523Y-94504819D02*
X100738095Y-94504819D01*
X101023809Y-94504819D02*
X101023809Y-93504819D01*
X101023809Y-93504819D02*
X100928571Y-93647676D01*
X100928571Y-93647676D02*
X100833333Y-93742914D01*
X100833333Y-93742914D02*
X100738095Y-93790533D01*
X101928571Y-93504819D02*
X102023809Y-93504819D01*
X102023809Y-93504819D02*
X102119047Y-93552438D01*
X102119047Y-93552438D02*
X102166666Y-93600057D01*
X102166666Y-93600057D02*
X102214285Y-93695295D01*
X102214285Y-93695295D02*
X102261904Y-93885771D01*
X102261904Y-93885771D02*
X102261904Y-94123866D01*
X102261904Y-94123866D02*
X102214285Y-94314342D01*
X102214285Y-94314342D02*
X102166666Y-94409580D01*
X102166666Y-94409580D02*
X102119047Y-94457200D01*
X102119047Y-94457200D02*
X102023809Y-94504819D01*
X102023809Y-94504819D02*
X101928571Y-94504819D01*
X101928571Y-94504819D02*
X101833333Y-94457200D01*
X101833333Y-94457200D02*
X101785714Y-94409580D01*
X101785714Y-94409580D02*
X101738095Y-94314342D01*
X101738095Y-94314342D02*
X101690476Y-94123866D01*
X101690476Y-94123866D02*
X101690476Y-93885771D01*
X101690476Y-93885771D02*
X101738095Y-93695295D01*
X101738095Y-93695295D02*
X101785714Y-93600057D01*
X101785714Y-93600057D02*
X101833333Y-93552438D01*
X101833333Y-93552438D02*
X101928571Y-93504819D01*
X119453755Y-104889456D02*
X118881336Y-104788441D01*
X119049694Y-105293517D02*
X118342588Y-104586410D01*
X118342588Y-104586410D02*
X118611962Y-104317036D01*
X118611962Y-104317036D02*
X118712977Y-104283364D01*
X118712977Y-104283364D02*
X118780320Y-104283364D01*
X118780320Y-104283364D02*
X118881336Y-104317036D01*
X118881336Y-104317036D02*
X118982351Y-104418051D01*
X118982351Y-104418051D02*
X119016023Y-104519067D01*
X119016023Y-104519067D02*
X119016023Y-104586410D01*
X119016023Y-104586410D02*
X118982351Y-104687425D01*
X118982351Y-104687425D02*
X118712977Y-104956799D01*
X118982351Y-103946647D02*
X119420084Y-103508914D01*
X119420084Y-103508914D02*
X119453755Y-104013990D01*
X119453755Y-104013990D02*
X119554771Y-103912975D01*
X119554771Y-103912975D02*
X119655786Y-103879303D01*
X119655786Y-103879303D02*
X119723129Y-103879303D01*
X119723129Y-103879303D02*
X119824145Y-103912975D01*
X119824145Y-103912975D02*
X119992503Y-104081334D01*
X119992503Y-104081334D02*
X120026175Y-104182349D01*
X120026175Y-104182349D02*
X120026175Y-104249693D01*
X120026175Y-104249693D02*
X119992503Y-104350708D01*
X119992503Y-104350708D02*
X119790473Y-104552738D01*
X119790473Y-104552738D02*
X119689458Y-104586410D01*
X119689458Y-104586410D02*
X119622114Y-104586410D01*
X122699230Y-93521477D02*
X123508753Y-93521477D01*
X123508753Y-93521477D02*
X123603991Y-93473858D01*
X123603991Y-93473858D02*
X123651611Y-93426239D01*
X123651611Y-93426239D02*
X123699230Y-93331001D01*
X123699230Y-93331001D02*
X123699230Y-93140525D01*
X123699230Y-93140525D02*
X123651611Y-93045287D01*
X123651611Y-93045287D02*
X123603991Y-92997668D01*
X123603991Y-92997668D02*
X123508753Y-92950049D01*
X123508753Y-92950049D02*
X122699230Y-92950049D01*
X122794468Y-92521477D02*
X122746849Y-92473858D01*
X122746849Y-92473858D02*
X122699230Y-92378620D01*
X122699230Y-92378620D02*
X122699230Y-92140525D01*
X122699230Y-92140525D02*
X122746849Y-92045287D01*
X122746849Y-92045287D02*
X122794468Y-91997668D01*
X122794468Y-91997668D02*
X122889706Y-91950049D01*
X122889706Y-91950049D02*
X122984944Y-91950049D01*
X122984944Y-91950049D02*
X123127801Y-91997668D01*
X123127801Y-91997668D02*
X123699230Y-92569096D01*
X123699230Y-92569096D02*
X123699230Y-91950049D01*
X96431009Y-105183333D02*
X96431009Y-105516666D01*
X96954819Y-105516666D02*
X95954819Y-105516666D01*
X95954819Y-105516666D02*
X95954819Y-105040476D01*
X96431009Y-104326190D02*
X96478628Y-104183333D01*
X96478628Y-104183333D02*
X96526247Y-104135714D01*
X96526247Y-104135714D02*
X96621485Y-104088095D01*
X96621485Y-104088095D02*
X96764342Y-104088095D01*
X96764342Y-104088095D02*
X96859580Y-104135714D01*
X96859580Y-104135714D02*
X96907200Y-104183333D01*
X96907200Y-104183333D02*
X96954819Y-104278571D01*
X96954819Y-104278571D02*
X96954819Y-104659523D01*
X96954819Y-104659523D02*
X95954819Y-104659523D01*
X95954819Y-104659523D02*
X95954819Y-104326190D01*
X95954819Y-104326190D02*
X96002438Y-104230952D01*
X96002438Y-104230952D02*
X96050057Y-104183333D01*
X96050057Y-104183333D02*
X96145295Y-104135714D01*
X96145295Y-104135714D02*
X96240533Y-104135714D01*
X96240533Y-104135714D02*
X96335771Y-104183333D01*
X96335771Y-104183333D02*
X96383390Y-104230952D01*
X96383390Y-104230952D02*
X96431009Y-104326190D01*
X96431009Y-104326190D02*
X96431009Y-104659523D01*
X96954819Y-103135714D02*
X96954819Y-103707142D01*
X96954819Y-103421428D02*
X95954819Y-103421428D01*
X95954819Y-103421428D02*
X96097676Y-103516666D01*
X96097676Y-103516666D02*
X96192914Y-103611904D01*
X96192914Y-103611904D02*
X96240533Y-103707142D01*
X132783333Y-97404819D02*
X132450000Y-96928628D01*
X132211905Y-97404819D02*
X132211905Y-96404819D01*
X132211905Y-96404819D02*
X132592857Y-96404819D01*
X132592857Y-96404819D02*
X132688095Y-96452438D01*
X132688095Y-96452438D02*
X132735714Y-96500057D01*
X132735714Y-96500057D02*
X132783333Y-96595295D01*
X132783333Y-96595295D02*
X132783333Y-96738152D01*
X132783333Y-96738152D02*
X132735714Y-96833390D01*
X132735714Y-96833390D02*
X132688095Y-96881009D01*
X132688095Y-96881009D02*
X132592857Y-96928628D01*
X132592857Y-96928628D02*
X132211905Y-96928628D01*
X133735714Y-97404819D02*
X133164286Y-97404819D01*
X133450000Y-97404819D02*
X133450000Y-96404819D01*
X133450000Y-96404819D02*
X133354762Y-96547676D01*
X133354762Y-96547676D02*
X133259524Y-96642914D01*
X133259524Y-96642914D02*
X133164286Y-96690533D01*
X113986411Y-106222112D02*
X113986411Y-106289456D01*
X113986411Y-106289456D02*
X113919067Y-106424143D01*
X113919067Y-106424143D02*
X113851724Y-106491486D01*
X113851724Y-106491486D02*
X113717037Y-106558830D01*
X113717037Y-106558830D02*
X113582350Y-106558830D01*
X113582350Y-106558830D02*
X113481335Y-106525158D01*
X113481335Y-106525158D02*
X113312976Y-106424143D01*
X113312976Y-106424143D02*
X113211961Y-106323128D01*
X113211961Y-106323128D02*
X113110945Y-106154769D01*
X113110945Y-106154769D02*
X113077274Y-106053754D01*
X113077274Y-106053754D02*
X113077274Y-105919067D01*
X113077274Y-105919067D02*
X113144617Y-105784380D01*
X113144617Y-105784380D02*
X113211961Y-105717036D01*
X113211961Y-105717036D02*
X113346648Y-105649693D01*
X113346648Y-105649693D02*
X113413991Y-105649693D01*
X113582350Y-105346647D02*
X114020083Y-104908914D01*
X114020083Y-104908914D02*
X114053754Y-105413990D01*
X114053754Y-105413990D02*
X114154770Y-105312975D01*
X114154770Y-105312975D02*
X114255785Y-105279303D01*
X114255785Y-105279303D02*
X114323128Y-105279303D01*
X114323128Y-105279303D02*
X114424144Y-105312975D01*
X114424144Y-105312975D02*
X114592502Y-105481334D01*
X114592502Y-105481334D02*
X114626174Y-105582349D01*
X114626174Y-105582349D02*
X114626174Y-105649693D01*
X114626174Y-105649693D02*
X114592502Y-105750708D01*
X114592502Y-105750708D02*
X114390472Y-105952738D01*
X114390472Y-105952738D02*
X114289457Y-105986410D01*
X114289457Y-105986410D02*
X114222113Y-105986410D01*
X120209580Y-96742857D02*
X120257200Y-96790476D01*
X120257200Y-96790476D02*
X120304819Y-96933333D01*
X120304819Y-96933333D02*
X120304819Y-97028571D01*
X120304819Y-97028571D02*
X120257200Y-97171428D01*
X120257200Y-97171428D02*
X120161961Y-97266666D01*
X120161961Y-97266666D02*
X120066723Y-97314285D01*
X120066723Y-97314285D02*
X119876247Y-97361904D01*
X119876247Y-97361904D02*
X119733390Y-97361904D01*
X119733390Y-97361904D02*
X119542914Y-97314285D01*
X119542914Y-97314285D02*
X119447676Y-97266666D01*
X119447676Y-97266666D02*
X119352438Y-97171428D01*
X119352438Y-97171428D02*
X119304819Y-97028571D01*
X119304819Y-97028571D02*
X119304819Y-96933333D01*
X119304819Y-96933333D02*
X119352438Y-96790476D01*
X119352438Y-96790476D02*
X119400057Y-96742857D01*
X120304819Y-95790476D02*
X120304819Y-96361904D01*
X120304819Y-96076190D02*
X119304819Y-96076190D01*
X119304819Y-96076190D02*
X119447676Y-96171428D01*
X119447676Y-96171428D02*
X119542914Y-96266666D01*
X119542914Y-96266666D02*
X119590533Y-96361904D01*
X119400057Y-95409523D02*
X119352438Y-95361904D01*
X119352438Y-95361904D02*
X119304819Y-95266666D01*
X119304819Y-95266666D02*
X119304819Y-95028571D01*
X119304819Y-95028571D02*
X119352438Y-94933333D01*
X119352438Y-94933333D02*
X119400057Y-94885714D01*
X119400057Y-94885714D02*
X119495295Y-94838095D01*
X119495295Y-94838095D02*
X119590533Y-94838095D01*
X119590533Y-94838095D02*
X119733390Y-94885714D01*
X119733390Y-94885714D02*
X120304819Y-95457142D01*
X120304819Y-95457142D02*
X120304819Y-94838095D01*
X125907142Y-103959580D02*
X125859523Y-104007200D01*
X125859523Y-104007200D02*
X125716666Y-104054819D01*
X125716666Y-104054819D02*
X125621428Y-104054819D01*
X125621428Y-104054819D02*
X125478571Y-104007200D01*
X125478571Y-104007200D02*
X125383333Y-103911961D01*
X125383333Y-103911961D02*
X125335714Y-103816723D01*
X125335714Y-103816723D02*
X125288095Y-103626247D01*
X125288095Y-103626247D02*
X125288095Y-103483390D01*
X125288095Y-103483390D02*
X125335714Y-103292914D01*
X125335714Y-103292914D02*
X125383333Y-103197676D01*
X125383333Y-103197676D02*
X125478571Y-103102438D01*
X125478571Y-103102438D02*
X125621428Y-103054819D01*
X125621428Y-103054819D02*
X125716666Y-103054819D01*
X125716666Y-103054819D02*
X125859523Y-103102438D01*
X125859523Y-103102438D02*
X125907142Y-103150057D01*
X126859523Y-104054819D02*
X126288095Y-104054819D01*
X126573809Y-104054819D02*
X126573809Y-103054819D01*
X126573809Y-103054819D02*
X126478571Y-103197676D01*
X126478571Y-103197676D02*
X126383333Y-103292914D01*
X126383333Y-103292914D02*
X126288095Y-103340533D01*
X127192857Y-103054819D02*
X127811904Y-103054819D01*
X127811904Y-103054819D02*
X127478571Y-103435771D01*
X127478571Y-103435771D02*
X127621428Y-103435771D01*
X127621428Y-103435771D02*
X127716666Y-103483390D01*
X127716666Y-103483390D02*
X127764285Y-103531009D01*
X127764285Y-103531009D02*
X127811904Y-103626247D01*
X127811904Y-103626247D02*
X127811904Y-103864342D01*
X127811904Y-103864342D02*
X127764285Y-103959580D01*
X127764285Y-103959580D02*
X127716666Y-104007200D01*
X127716666Y-104007200D02*
X127621428Y-104054819D01*
X127621428Y-104054819D02*
X127335714Y-104054819D01*
X127335714Y-104054819D02*
X127240476Y-104007200D01*
X127240476Y-104007200D02*
X127192857Y-103959580D01*
X93978628Y-94076190D02*
X94454819Y-94076190D01*
X93454819Y-94409523D02*
X93978628Y-94076190D01*
X93978628Y-94076190D02*
X93454819Y-93742857D01*
X94454819Y-92885714D02*
X94454819Y-93457142D01*
X94454819Y-93171428D02*
X93454819Y-93171428D01*
X93454819Y-93171428D02*
X93597676Y-93266666D01*
X93597676Y-93266666D02*
X93692914Y-93361904D01*
X93692914Y-93361904D02*
X93740533Y-93457142D01*
X119256482Y-100149693D02*
X119963589Y-99442587D01*
X119963589Y-99442587D02*
X120131948Y-99610945D01*
X120131948Y-99610945D02*
X120199291Y-99745632D01*
X120199291Y-99745632D02*
X120199291Y-99880319D01*
X120199291Y-99880319D02*
X120165619Y-99981335D01*
X120165619Y-99981335D02*
X120064604Y-100149693D01*
X120064604Y-100149693D02*
X119963589Y-100250709D01*
X119963589Y-100250709D02*
X119795230Y-100351724D01*
X119795230Y-100351724D02*
X119694215Y-100385396D01*
X119694215Y-100385396D02*
X119559528Y-100385396D01*
X119559528Y-100385396D02*
X119424841Y-100318052D01*
X119424841Y-100318052D02*
X119256482Y-100149693D01*
X120333978Y-101227189D02*
X119929917Y-100823128D01*
X120131948Y-101025159D02*
X120839054Y-100318052D01*
X120839054Y-100318052D02*
X120670696Y-100351724D01*
X120670696Y-100351724D02*
X120536009Y-100351724D01*
X120536009Y-100351724D02*
X120434993Y-100318052D01*
X106646999Y-95161523D02*
X106646999Y-95228867D01*
X106646999Y-95228867D02*
X106579655Y-95363554D01*
X106579655Y-95363554D02*
X106512312Y-95430897D01*
X106512312Y-95430897D02*
X106377625Y-95498241D01*
X106377625Y-95498241D02*
X106242938Y-95498241D01*
X106242938Y-95498241D02*
X106141923Y-95464569D01*
X106141923Y-95464569D02*
X105973564Y-95363554D01*
X105973564Y-95363554D02*
X105872549Y-95262539D01*
X105872549Y-95262539D02*
X105771533Y-95094180D01*
X105771533Y-95094180D02*
X105737862Y-94993165D01*
X105737862Y-94993165D02*
X105737862Y-94858478D01*
X105737862Y-94858478D02*
X105805205Y-94723791D01*
X105805205Y-94723791D02*
X105872549Y-94656447D01*
X105872549Y-94656447D02*
X106007236Y-94589104D01*
X106007236Y-94589104D02*
X106074579Y-94589104D01*
X107387777Y-94555432D02*
X106983716Y-94959493D01*
X107185747Y-94757462D02*
X106478640Y-94050356D01*
X106478640Y-94050356D02*
X106512312Y-94218714D01*
X106512312Y-94218714D02*
X106512312Y-94353401D01*
X106512312Y-94353401D02*
X106478640Y-94454417D01*
X102736411Y-100272112D02*
X102736411Y-100339456D01*
X102736411Y-100339456D02*
X102669067Y-100474143D01*
X102669067Y-100474143D02*
X102601724Y-100541486D01*
X102601724Y-100541486D02*
X102467037Y-100608830D01*
X102467037Y-100608830D02*
X102332350Y-100608830D01*
X102332350Y-100608830D02*
X102231335Y-100575158D01*
X102231335Y-100575158D02*
X102062976Y-100474143D01*
X102062976Y-100474143D02*
X101961961Y-100373128D01*
X101961961Y-100373128D02*
X101860945Y-100204769D01*
X101860945Y-100204769D02*
X101827274Y-100103754D01*
X101827274Y-100103754D02*
X101827274Y-99969067D01*
X101827274Y-99969067D02*
X101894617Y-99834380D01*
X101894617Y-99834380D02*
X101961961Y-99767036D01*
X101961961Y-99767036D02*
X102096648Y-99699693D01*
X102096648Y-99699693D02*
X102163991Y-99699693D01*
X102702739Y-99026258D02*
X102568052Y-99160945D01*
X102568052Y-99160945D02*
X102534380Y-99261960D01*
X102534380Y-99261960D02*
X102534380Y-99329303D01*
X102534380Y-99329303D02*
X102568052Y-99497662D01*
X102568052Y-99497662D02*
X102669067Y-99666021D01*
X102669067Y-99666021D02*
X102938441Y-99935395D01*
X102938441Y-99935395D02*
X103039457Y-99969067D01*
X103039457Y-99969067D02*
X103106800Y-99969067D01*
X103106800Y-99969067D02*
X103207815Y-99935395D01*
X103207815Y-99935395D02*
X103342502Y-99800708D01*
X103342502Y-99800708D02*
X103376174Y-99699693D01*
X103376174Y-99699693D02*
X103376174Y-99632349D01*
X103376174Y-99632349D02*
X103342502Y-99531334D01*
X103342502Y-99531334D02*
X103174144Y-99362975D01*
X103174144Y-99362975D02*
X103073128Y-99329303D01*
X103073128Y-99329303D02*
X103005785Y-99329303D01*
X103005785Y-99329303D02*
X102904770Y-99362975D01*
X102904770Y-99362975D02*
X102770083Y-99497662D01*
X102770083Y-99497662D02*
X102736411Y-99598677D01*
X102736411Y-99598677D02*
X102736411Y-99666021D01*
X102736411Y-99666021D02*
X102770083Y-99767036D01*
X99333333Y-107022079D02*
X99285714Y-107069699D01*
X99285714Y-107069699D02*
X99142857Y-107117318D01*
X99142857Y-107117318D02*
X99047619Y-107117318D01*
X99047619Y-107117318D02*
X98904762Y-107069699D01*
X98904762Y-107069699D02*
X98809524Y-106974460D01*
X98809524Y-106974460D02*
X98761905Y-106879222D01*
X98761905Y-106879222D02*
X98714286Y-106688746D01*
X98714286Y-106688746D02*
X98714286Y-106545889D01*
X98714286Y-106545889D02*
X98761905Y-106355413D01*
X98761905Y-106355413D02*
X98809524Y-106260175D01*
X98809524Y-106260175D02*
X98904762Y-106164937D01*
X98904762Y-106164937D02*
X99047619Y-106117318D01*
X99047619Y-106117318D02*
X99142857Y-106117318D01*
X99142857Y-106117318D02*
X99285714Y-106164937D01*
X99285714Y-106164937D02*
X99333333Y-106212556D01*
X99904762Y-106545889D02*
X99809524Y-106498270D01*
X99809524Y-106498270D02*
X99761905Y-106450651D01*
X99761905Y-106450651D02*
X99714286Y-106355413D01*
X99714286Y-106355413D02*
X99714286Y-106307794D01*
X99714286Y-106307794D02*
X99761905Y-106212556D01*
X99761905Y-106212556D02*
X99809524Y-106164937D01*
X99809524Y-106164937D02*
X99904762Y-106117318D01*
X99904762Y-106117318D02*
X100095238Y-106117318D01*
X100095238Y-106117318D02*
X100190476Y-106164937D01*
X100190476Y-106164937D02*
X100238095Y-106212556D01*
X100238095Y-106212556D02*
X100285714Y-106307794D01*
X100285714Y-106307794D02*
X100285714Y-106355413D01*
X100285714Y-106355413D02*
X100238095Y-106450651D01*
X100238095Y-106450651D02*
X100190476Y-106498270D01*
X100190476Y-106498270D02*
X100095238Y-106545889D01*
X100095238Y-106545889D02*
X99904762Y-106545889D01*
X99904762Y-106545889D02*
X99809524Y-106593508D01*
X99809524Y-106593508D02*
X99761905Y-106641127D01*
X99761905Y-106641127D02*
X99714286Y-106736365D01*
X99714286Y-106736365D02*
X99714286Y-106926841D01*
X99714286Y-106926841D02*
X99761905Y-107022079D01*
X99761905Y-107022079D02*
X99809524Y-107069699D01*
X99809524Y-107069699D02*
X99904762Y-107117318D01*
X99904762Y-107117318D02*
X100095238Y-107117318D01*
X100095238Y-107117318D02*
X100190476Y-107069699D01*
X100190476Y-107069699D02*
X100238095Y-107022079D01*
X100238095Y-107022079D02*
X100285714Y-106926841D01*
X100285714Y-106926841D02*
X100285714Y-106736365D01*
X100285714Y-106736365D02*
X100238095Y-106641127D01*
X100238095Y-106641127D02*
X100190476Y-106593508D01*
X100190476Y-106593508D02*
X100095238Y-106545889D01*
D11*
%TO.C,R2*%
X123320000Y-105596359D02*
X123320000Y-105903641D01*
X124080000Y-105596359D02*
X124080000Y-105903641D01*
%TO.C,C5*%
X112011219Y-95293128D02*
X112210030Y-95491939D01*
X112732468Y-94571879D02*
X112931279Y-94770690D01*
%TO.C,C7*%
X97507836Y-101752499D02*
X97292164Y-101752499D01*
X97507836Y-102472499D02*
X97292164Y-102472499D01*
%TO.C,J2*%
X86570000Y-90330000D02*
X86570000Y-89000000D01*
X87900000Y-90330000D02*
X86570000Y-90330000D01*
X89170000Y-87670000D02*
X132410000Y-87670000D01*
X89170000Y-90330000D02*
X89170000Y-87670000D01*
X89170000Y-90330000D02*
X132410000Y-90330000D01*
X132410000Y-90330000D02*
X132410000Y-87670000D01*
%TO.C,U1*%
X103844689Y-102150000D02*
X104162887Y-101831802D01*
X104162887Y-102468198D02*
X103844689Y-102150000D01*
X108631802Y-106937113D02*
X108950000Y-107255311D01*
X108950000Y-97044689D02*
X108631802Y-97362887D01*
X108950000Y-107255311D02*
X109268198Y-106937113D01*
X109268198Y-97362887D02*
X108950000Y-97044689D01*
X113737113Y-101831802D02*
X114055311Y-102150000D01*
X114055311Y-102150000D02*
X113737113Y-102468198D01*
X108787365Y-96853770D02*
X108214609Y-96945694D01*
X108306533Y-96372938D01*
X108787365Y-96853770D01*
G36*
X108787365Y-96853770D02*
G01*
X108214609Y-96945694D01*
X108306533Y-96372938D01*
X108787365Y-96853770D01*
G37*
D10*
%TO.C,J1*%
X132170000Y-107330000D02*
X132170000Y-108055000D01*
X132170000Y-108055000D02*
X132595000Y-108055000D01*
X132595000Y-104455000D02*
X132595000Y-103455000D01*
X132595000Y-108055000D02*
X132595000Y-109055000D01*
X134345000Y-110405000D02*
X135745000Y-110405000D01*
X135745000Y-102105000D02*
X134345000Y-102105000D01*
X138145000Y-110405000D02*
X138295000Y-110405000D01*
X138295000Y-102105000D02*
X138145000Y-102105000D01*
X138295000Y-102405000D02*
X138295000Y-102105000D01*
X138295000Y-110105000D02*
X138745000Y-110105000D01*
X138295000Y-110405000D02*
X138295000Y-110105000D01*
X138745000Y-102405000D02*
X138295000Y-102405000D01*
D11*
%TO.C,C11*%
X98590000Y-96287836D02*
X98590000Y-96072164D01*
X99310000Y-96287836D02*
X99310000Y-96072164D01*
%TO.C,J3*%
X86570000Y-115330000D02*
X86570000Y-114000000D01*
X87900000Y-115330000D02*
X86570000Y-115330000D01*
X89170000Y-112670000D02*
X132410000Y-112670000D01*
X89170000Y-115330000D02*
X89170000Y-112670000D01*
X89170000Y-115330000D02*
X132410000Y-115330000D01*
X132410000Y-115330000D02*
X132410000Y-112670000D01*
%TO.C,SW1*%
X135255000Y-94950000D02*
X135255000Y-94750000D01*
X135255000Y-97950000D02*
X135255000Y-96250000D01*
X136305000Y-99800000D02*
X137094999Y-99800000D01*
X137094999Y-92900000D02*
X136305000Y-92900000D01*
X138105000Y-99200000D02*
X138105000Y-93500000D01*
%TO.C,C9*%
X102318425Y-101729411D02*
X102102753Y-101729411D01*
X102318425Y-102449411D02*
X102102753Y-102449411D01*
%TO.C,C2*%
X111079779Y-96270876D02*
X111232282Y-96423379D01*
X111588896Y-95761759D02*
X111741399Y-95914262D01*
%TO.C,C4*%
X106482282Y-108370221D02*
X106329779Y-108217718D01*
X106991399Y-107861104D02*
X106838896Y-107708601D01*
%TO.C,C10*%
X98590000Y-94267836D02*
X98590000Y-94052164D01*
X99310000Y-94267836D02*
X99310000Y-94052164D01*
%TO.C,R3*%
X117889940Y-103122659D02*
X117672659Y-103339940D01*
X118427341Y-103660060D02*
X118210060Y-103877341D01*
%TO.C,U2*%
X123089999Y-97850000D02*
X123090000Y-94090000D01*
X123090000Y-94090000D02*
X124349999Y-94090000D01*
X129910000Y-94090000D02*
X128650001Y-94090000D01*
X129910001Y-97850000D02*
X129910000Y-94090000D01*
X123190000Y-99130000D02*
X122860000Y-99370000D01*
X122860000Y-98890000D01*
X123190000Y-99130000D01*
G36*
X123190000Y-99130000D02*
G01*
X122860000Y-99370000D01*
X122860000Y-98890000D01*
X123190000Y-99130000D01*
G37*
%TO.C,FB1*%
X97390000Y-104137220D02*
X97390000Y-104462780D01*
X98410000Y-104137220D02*
X98410000Y-104462780D01*
%TO.C,R1*%
X133053641Y-95270000D02*
X132746359Y-95270000D01*
X133053641Y-96030000D02*
X132746359Y-96030000D01*
%TO.C,C3*%
X115032282Y-103958601D02*
X114879779Y-104111104D01*
X115541399Y-104467718D02*
X115388896Y-104620221D01*
%TO.C,C12*%
X120915000Y-95738747D02*
X120915000Y-96261253D01*
X122385000Y-95738747D02*
X122385000Y-96261253D01*
%TO.C,C13*%
X126761253Y-101165000D02*
X126238747Y-101165000D01*
X126761253Y-102635000D02*
X126238747Y-102635000D01*
%TO.C,Y1*%
X94800000Y-92940000D02*
X94800000Y-96940000D01*
X98100000Y-92940000D02*
X94800000Y-92940000D01*
%TO.C,D1*%
X117914591Y-101604038D02*
X119530330Y-103219777D01*
X119530330Y-103219777D02*
X120569777Y-102180330D01*
X120569777Y-102180330D02*
X118954038Y-100564591D01*
%TO.C,C1*%
X107079779Y-95411104D02*
X107232282Y-95258601D01*
X107588896Y-95920221D02*
X107741399Y-95767718D01*
%TO.C,C6*%
X103679779Y-98311104D02*
X103832282Y-98158601D01*
X104188896Y-98820221D02*
X104341399Y-98667718D01*
%TO.C,C8*%
X97507836Y-106302499D02*
X97292164Y-106302499D01*
X97507836Y-107022499D02*
X97292164Y-107022499D01*
%TD*%
M02*
