M48
; DRILL file {KiCad 9.0.1} date 2025-04-04T14:44:13+0200
; FORMAT={-:-/ absolute / metric / decimal}
; #@! TF.CreationDate,2025-04-04T14:44:13+02:00
; #@! TF.GenerationSoftware,Kicad,Pcbnew,9.0.1
; #@! TF.FileFunction,MixedPlating,1,2
FMAT,2
METRIC
; #@! TA.AperFunction,Plated,PTH,ViaDrill
T1C0.300
; #@! TA.AperFunction,Plated,PTH,ComponentDrill
T2C0.550
; #@! TA.AperFunction,Plated,PTH,ComponentDrill
T3C0.850
; #@! TA.AperFunction,Plated,PTH,ComponentDrill
T4C1.000
; #@! TA.AperFunction,NonPlated,NPTH,ComponentDrill
T5C0.800
; #@! TA.AperFunction,NonPlated,NPTH,ComponentDrill
T6C0.900
; #@! TA.AperFunction,NonPlated,NPTH,ComponentDrill
T7C2.100
%
G90
G05
T1
X94.1Y-96.0
X95.75Y-102.112
X95.9Y-106.662
X97.3Y-92.05
X97.95Y-107.85
X98.2Y-100.55
X100.26Y-95.7
X100.711Y-102.089
X101.261Y-97.489
X103.362Y-97.388
X105.45Y-108.55
X105.55Y-109.85
X106.225Y-93.625
X108.703Y-94.353
X108.95Y-96.3
X109.48Y-108.52
X110.2Y-99.85
X110.7Y-93.15
X113.65Y-94.4
X116.275Y-103.225
X116.7Y-104.789
X121.4Y-98.1
X121.8Y-93.7
X122.2Y-98.1
X122.25Y-105.5
X123.6Y-100.8
X123.8Y-97.3
X124.35Y-100.8
X124.35Y-101.75
X124.35Y-102.4
X124.425Y-107.675
X127.95Y-108.05
X128.95Y-100.9
X128.95Y-101.65
X128.95Y-102.4
X129.15Y-108.05
X129.8Y-97.05
X130.2Y-93.8
X130.25Y-108.05
X130.95Y-104.955
X133.35Y-98.6
T4
X87.9Y-89.0
X87.9Y-114.0
X90.44Y-89.0
X90.44Y-114.0
X92.98Y-89.0
X92.98Y-114.0
X95.52Y-89.0
X95.52Y-114.0
X98.06Y-89.0
X98.06Y-114.0
X100.6Y-89.0
X100.6Y-114.0
X103.14Y-89.0
X103.14Y-114.0
X105.68Y-89.0
X105.68Y-114.0
X108.22Y-89.0
X108.22Y-114.0
X110.76Y-89.0
X110.76Y-114.0
X113.3Y-89.0
X113.3Y-114.0
X115.84Y-89.0
X115.84Y-114.0
X118.38Y-89.0
X118.38Y-114.0
X120.92Y-89.0
X120.92Y-114.0
X123.46Y-89.0
X123.46Y-114.0
X126.0Y-89.0
X126.0Y-114.0
X128.54Y-89.0
X128.54Y-114.0
X131.08Y-89.0
X131.08Y-114.0
T5
X134.195Y-103.755
X134.195Y-108.755
T6
X136.705Y-94.85
X136.705Y-97.85
T7
X83.0Y-89.0
X83.0Y-114.0
X136.0Y-89.0
X136.0Y-114.0
T2
G00X136.62Y-102.38
M15
G01X137.27Y-102.38
M16
G05
G00X136.62Y-110.13
M15
G01X137.27Y-110.13
M16
G05
T3
G00X132.87Y-102.53
M15
G01X133.42Y-102.53
M16
G05
G00X132.87Y-109.98
M15
G01X133.42Y-109.98
M16
G05
M30
