%TF.GenerationSoftware,KiCad,Pcbnew,8.0.8*%
%TF.CreationDate,2025-03-25T21:44:27+01:00*%
%TF.ProjectId,stm32_red_pill,73746d33-325f-4726-9564-5f70696c6c2e,rev?*%
%TF.SameCoordinates,Original*%
%TF.FileFunction,Copper,L2,Bot*%
%TF.FilePolarity,Positive*%
%FSLAX46Y46*%
G04 Gerber Fmt 4.6, Leading zero omitted, Abs format (unit mm)*
G04 Created by KiCad (PCBNEW 8.0.8) date 2025-03-25 21:44:27*
%MOMM*%
%LPD*%
G01*
G04 APERTURE LIST*
%TA.AperFunction,ComponentPad*%
%ADD10O,1.700000X1.700000*%
%TD*%
%TA.AperFunction,ComponentPad*%
%ADD11R,1.700000X1.700000*%
%TD*%
%TA.AperFunction,HeatsinkPad*%
%ADD12O,1.800000X1.150000*%
%TD*%
%TA.AperFunction,HeatsinkPad*%
%ADD13O,2.000000X1.450000*%
%TD*%
%TA.AperFunction,ViaPad*%
%ADD14C,0.700000*%
%TD*%
%TA.AperFunction,Conductor*%
%ADD15C,0.300000*%
%TD*%
%TA.AperFunction,Conductor*%
%ADD16C,0.500000*%
%TD*%
G04 APERTURE END LIST*
D10*
%TO.P,J2,18,Pin_18*%
%TO.N,VBUS*%
X131080000Y-89000000D03*
%TO.P,J2,17,Pin_17*%
%TO.N,GND*%
X128540000Y-89000000D03*
%TO.P,J2,16,Pin_16*%
%TO.N,+3.3V*%
X126000000Y-89000000D03*
%TO.P,J2,15,Pin_15*%
%TO.N,/PA14*%
X123460000Y-89000000D03*
%TO.P,J2,14,Pin_14*%
%TO.N,/PA15*%
X120920000Y-89000000D03*
%TO.P,J2,13,Pin_13*%
%TO.N,/PB3*%
X118380000Y-89000000D03*
%TO.P,J2,12,Pin_12*%
%TO.N,/PB4*%
X115840000Y-89000000D03*
%TO.P,J2,11,Pin_11*%
%TO.N,/PB5*%
X113300000Y-89000000D03*
%TO.P,J2,10,Pin_10*%
%TO.N,/PB6*%
X110760000Y-89000000D03*
%TO.P,J2,9,Pin_9*%
%TO.N,/PB7*%
X108220000Y-89000000D03*
%TO.P,J2,8,Pin_8*%
%TO.N,/PB8*%
X105680000Y-89000000D03*
%TO.P,J2,7,Pin_7*%
%TO.N,/PB9*%
X103140000Y-89000000D03*
%TO.P,J2,6,Pin_6*%
%TO.N,/PC13*%
X100600000Y-89000000D03*
%TO.P,J2,5,Pin_5*%
%TO.N,/PC14*%
X98060000Y-89000000D03*
%TO.P,J2,4,Pin_4*%
%TO.N,/PC15*%
X95520000Y-89000000D03*
%TO.P,J2,3,Pin_3*%
%TO.N,/PA0*%
X92980000Y-89000000D03*
%TO.P,J2,2,Pin_2*%
%TO.N,/PA1*%
X90440000Y-89000000D03*
D11*
%TO.P,J2,1,Pin_1*%
%TO.N,/PA2*%
X87900000Y-89000000D03*
%TD*%
D12*
%TO.P,J1,6,Shield*%
%TO.N,unconnected-(J1-Shield-Pad6)_2*%
X136945000Y-109880000D03*
D13*
%TO.N,unconnected-(J1-Shield-Pad6)_3*%
X133145000Y-109730000D03*
%TO.N,unconnected-(J1-Shield-Pad6)*%
X133145000Y-102280000D03*
D12*
%TO.N,unconnected-(J1-Shield-Pad6)_1*%
X136945000Y-102130000D03*
%TD*%
D11*
%TO.P,J3,1,Pin_1*%
%TO.N,/PA3*%
X87900000Y-114000000D03*
D10*
%TO.P,J3,2,Pin_2*%
%TO.N,/PA4*%
X90440000Y-114000000D03*
%TO.P,J3,3,Pin_3*%
%TO.N,/PA5*%
X92980000Y-114000000D03*
%TO.P,J3,4,Pin_4*%
%TO.N,/PA6*%
X95520000Y-114000000D03*
%TO.P,J3,5,Pin_5*%
%TO.N,/PA7*%
X98060000Y-114000000D03*
%TO.P,J3,6,Pin_6*%
%TO.N,/PB0*%
X100600000Y-114000000D03*
%TO.P,J3,7,Pin_7*%
%TO.N,/PB1*%
X103140000Y-114000000D03*
%TO.P,J3,8,Pin_8*%
%TO.N,/PB2*%
X105680000Y-114000000D03*
%TO.P,J3,9,Pin_9*%
%TO.N,/PB10*%
X108220000Y-114000000D03*
%TO.P,J3,10,Pin_10*%
%TO.N,/PB11*%
X110760000Y-114000000D03*
%TO.P,J3,11,Pin_11*%
%TO.N,/PB12*%
X113300000Y-114000000D03*
%TO.P,J3,12,Pin_12*%
%TO.N,/PB13*%
X115840000Y-114000000D03*
%TO.P,J3,13,Pin_13*%
%TO.N,/PB14*%
X118380000Y-114000000D03*
%TO.P,J3,14,Pin_14*%
%TO.N,/PB15*%
X120920000Y-114000000D03*
%TO.P,J3,15,Pin_15*%
%TO.N,/PA8*%
X123460000Y-114000000D03*
%TO.P,J3,16,Pin_16*%
%TO.N,/PA9*%
X126000000Y-114000000D03*
%TO.P,J3,17,Pin_17*%
%TO.N,/PA10*%
X128540000Y-114000000D03*
%TO.P,J3,18,Pin_18*%
%TO.N,/PA13*%
X131080000Y-114000000D03*
%TD*%
D14*
%TO.N,+3.3V*%
X124200000Y-95850000D03*
X120950000Y-102650000D03*
X110300000Y-95500000D03*
%TO.N,GND*%
X100450000Y-93175000D03*
X135650000Y-105575000D03*
%TO.N,+3.3V*%
X126775000Y-105100000D03*
X126800000Y-97225000D03*
X114100000Y-94400000D03*
X121825000Y-95025000D03*
%TO.N,/PB5*%
X112775000Y-94275000D03*
X115100000Y-101200000D03*
X113175000Y-96325000D03*
%TO.N,GND*%
X99800000Y-106050000D03*
%TO.N,+3.3VA*%
X95175000Y-104550000D03*
X97775000Y-96700000D03*
X107325000Y-98225000D03*
X95200000Y-96700000D03*
%TO.N,/PB9*%
X109100000Y-94000000D03*
X112375000Y-100475000D03*
%TO.N,GND*%
X110850000Y-94275000D03*
%TO.N,/PC15*%
X99875000Y-95625000D03*
X111425000Y-100075000D03*
%TO.N,/PC14*%
X103150000Y-92825000D03*
X108050000Y-95125000D03*
%TO.N,GND*%
X110125000Y-101300000D03*
X86100000Y-97700000D03*
%TO.N,+3.3V*%
X110950000Y-110550000D03*
X104425000Y-105075000D03*
%TO.N,/BOOT0*%
X99625000Y-102625000D03*
X110550000Y-103550000D03*
%TO.N,/PA13*%
X123600000Y-107400000D03*
X115250000Y-103575000D03*
%TO.N,GND*%
X129375000Y-95025000D03*
%TO.N,VBUS*%
X129725000Y-101700000D03*
X129550000Y-102700000D03*
X130500000Y-107425000D03*
X129750000Y-108000000D03*
%TO.N,GND*%
X124600000Y-102700000D03*
X124600000Y-101600000D03*
X125300000Y-97600000D03*
X124500000Y-97600000D03*
X121300000Y-99300000D03*
X122100000Y-99300000D03*
X116300000Y-102700000D03*
X112600000Y-105800000D03*
X106900000Y-96700000D03*
X106900000Y-94700000D03*
X105300000Y-103800000D03*
X113100000Y-98900000D03*
%TO.N,+3.3V*%
X122325000Y-105175000D03*
%TD*%
D15*
%TO.N,/PB5*%
X115100000Y-98250000D02*
X113175000Y-96325000D01*
X115100000Y-101200000D02*
X115100000Y-98250000D01*
D16*
%TO.N,+3.3VA*%
X99543629Y-94825000D02*
X97775000Y-96593629D01*
X100206371Y-94825000D02*
X99543629Y-94825000D01*
X97775000Y-96593629D02*
X97775000Y-96700000D01*
X100675000Y-95293629D02*
X100206371Y-94825000D01*
X100675000Y-97450000D02*
X100675000Y-95293629D01*
X101450000Y-98225000D02*
X100675000Y-97450000D01*
X107325000Y-98225000D02*
X101450000Y-98225000D01*
%TO.N,+3.3V*%
X113060661Y-95439339D02*
X114100000Y-94400000D01*
X113060661Y-95500000D02*
X113060661Y-95439339D01*
D15*
%TO.N,/PB5*%
X113300000Y-93750000D02*
X113300000Y-89100000D01*
X112775000Y-94275000D02*
X113300000Y-93750000D01*
%TO.N,/BOOT0*%
X109625000Y-102625000D02*
X99625000Y-102625000D01*
X110550000Y-103550000D02*
X109625000Y-102625000D01*
%TO.N,/PB9*%
X112375000Y-100035050D02*
X112375000Y-100475000D01*
X109100000Y-96760050D02*
X112375000Y-100035050D01*
X109100000Y-94000000D02*
X109100000Y-96760050D01*
D16*
%TO.N,+3.3V*%
X122700000Y-110550000D02*
X110950000Y-110550000D01*
X125100000Y-108150000D02*
X122700000Y-110550000D01*
X123475000Y-105175000D02*
X125100000Y-106800000D01*
X125100000Y-106800000D02*
X125100000Y-108150000D01*
X122325000Y-105175000D02*
X123475000Y-105175000D01*
X123300000Y-96750000D02*
X124200000Y-95850000D01*
X123300000Y-100300000D02*
X123300000Y-96750000D01*
X120950000Y-102650000D02*
X123300000Y-100300000D01*
X113060661Y-95500000D02*
X110300000Y-95500000D01*
X114100000Y-94400000D02*
X114100000Y-94460661D01*
D15*
X126775000Y-97250000D02*
X126800000Y-97225000D01*
X126775000Y-105100000D02*
X126775000Y-97250000D01*
D16*
X121200000Y-94400000D02*
X121825000Y-95025000D01*
X114100000Y-94400000D02*
X121200000Y-94400000D01*
%TO.N,+3.3VA*%
X95200000Y-104525000D02*
X95200000Y-96700000D01*
X95175000Y-104550000D02*
X95200000Y-104525000D01*
D15*
%TO.N,/PC15*%
X99875000Y-97700000D02*
X99875000Y-95625000D01*
X111425000Y-100075000D02*
X109800000Y-100075000D01*
X109800000Y-100075000D02*
X109275000Y-99550000D01*
X109275000Y-99550000D02*
X101725000Y-99550000D01*
X101725000Y-99550000D02*
X99875000Y-97700000D01*
%TO.N,/PC14*%
X103175000Y-92800000D02*
X103150000Y-92825000D01*
X107025000Y-92800000D02*
X103175000Y-92800000D01*
X107350000Y-92800000D02*
X107025000Y-92800000D01*
X108050000Y-95125000D02*
X108050000Y-93500000D01*
X108050000Y-93500000D02*
X107350000Y-92800000D01*
D16*
%TO.N,GND*%
X86100000Y-97700000D02*
X86125000Y-97675000D01*
%TO.N,+3.3V*%
X109900000Y-110550000D02*
X110950000Y-110550000D01*
X104425000Y-105075000D02*
X109900000Y-110550000D01*
D15*
%TO.N,/PA13*%
X119075000Y-107400000D02*
X123600000Y-107400000D01*
X115250000Y-103575000D02*
X119075000Y-107400000D01*
D16*
%TO.N,VBUS*%
X131080000Y-100345000D02*
X129725000Y-101700000D01*
X131080000Y-89100000D02*
X131080000Y-100345000D01*
%TD*%
%TA.AperFunction,Conductor*%
%TO.N,GND*%
G36*
X136003736Y-86500726D02*
G01*
X136293796Y-86518271D01*
X136308659Y-86520076D01*
X136590798Y-86571780D01*
X136605335Y-86575363D01*
X136879172Y-86660695D01*
X136893163Y-86666000D01*
X137154743Y-86783727D01*
X137167989Y-86790680D01*
X137413465Y-86939075D01*
X137425776Y-86947573D01*
X137651573Y-87124473D01*
X137662781Y-87134403D01*
X137865596Y-87337218D01*
X137875526Y-87348426D01*
X137995481Y-87501538D01*
X138052422Y-87574217D01*
X138060926Y-87586537D01*
X138205928Y-87826399D01*
X138209316Y-87832004D01*
X138216275Y-87845263D01*
X138333997Y-88106831D01*
X138339306Y-88120832D01*
X138424635Y-88394663D01*
X138428219Y-88409201D01*
X138479923Y-88691340D01*
X138481728Y-88706205D01*
X138499274Y-88996263D01*
X138499500Y-89003750D01*
X138499500Y-101657538D01*
X138479815Y-101724577D01*
X138427011Y-101770332D01*
X138357853Y-101780276D01*
X138294297Y-101751251D01*
X138265015Y-101713833D01*
X138235836Y-101656569D01*
X138189850Y-101566315D01*
X138128329Y-101481638D01*
X138090351Y-101429365D01*
X138090347Y-101429360D01*
X137970639Y-101309652D01*
X137970634Y-101309648D01*
X137833688Y-101210152D01*
X137833687Y-101210151D01*
X137833685Y-101210150D01*
X137786582Y-101186150D01*
X137682853Y-101133296D01*
X137521847Y-101080981D01*
X137354649Y-101054500D01*
X137354644Y-101054500D01*
X136535356Y-101054500D01*
X136535351Y-101054500D01*
X136368152Y-101080981D01*
X136207146Y-101133296D01*
X136056311Y-101210152D01*
X135919365Y-101309648D01*
X135919360Y-101309652D01*
X135799652Y-101429360D01*
X135799648Y-101429365D01*
X135700152Y-101566311D01*
X135623296Y-101717146D01*
X135570981Y-101878152D01*
X135544500Y-102045350D01*
X135544500Y-102214649D01*
X135570981Y-102381847D01*
X135623296Y-102542853D01*
X135700152Y-102693688D01*
X135799648Y-102830634D01*
X135799652Y-102830639D01*
X135919360Y-102950347D01*
X135919365Y-102950351D01*
X136038817Y-103037137D01*
X136056315Y-103049850D01*
X136152425Y-103098820D01*
X136207146Y-103126703D01*
X136207148Y-103126703D01*
X136207151Y-103126705D01*
X136287041Y-103152663D01*
X136368152Y-103179018D01*
X136535351Y-103205500D01*
X136535356Y-103205500D01*
X137354649Y-103205500D01*
X137521847Y-103179018D01*
X137682849Y-103126705D01*
X137833685Y-103049850D01*
X137970641Y-102950346D01*
X138090346Y-102830641D01*
X138189850Y-102693685D01*
X138265015Y-102546166D01*
X138312990Y-102495370D01*
X138380811Y-102478575D01*
X138446946Y-102501113D01*
X138490397Y-102555828D01*
X138499500Y-102602461D01*
X138499500Y-109407538D01*
X138479815Y-109474577D01*
X138427011Y-109520332D01*
X138357853Y-109530276D01*
X138294297Y-109501251D01*
X138265015Y-109463833D01*
X138208760Y-109353428D01*
X138189850Y-109316315D01*
X138148621Y-109259568D01*
X138090351Y-109179365D01*
X138090347Y-109179360D01*
X137970639Y-109059652D01*
X137970634Y-109059648D01*
X137833688Y-108960152D01*
X137833687Y-108960151D01*
X137833685Y-108960150D01*
X137777727Y-108931638D01*
X137682853Y-108883296D01*
X137521847Y-108830981D01*
X137354649Y-108804500D01*
X137354644Y-108804500D01*
X136535356Y-108804500D01*
X136535351Y-108804500D01*
X136368152Y-108830981D01*
X136207146Y-108883296D01*
X136056311Y-108960152D01*
X135919365Y-109059648D01*
X135919360Y-109059652D01*
X135799652Y-109179360D01*
X135799648Y-109179365D01*
X135700152Y-109316311D01*
X135623296Y-109467146D01*
X135570981Y-109628152D01*
X135544500Y-109795350D01*
X135544500Y-109964649D01*
X135570981Y-110131847D01*
X135623296Y-110292853D01*
X135700152Y-110443688D01*
X135799648Y-110580634D01*
X135799652Y-110580639D01*
X135919360Y-110700347D01*
X135919365Y-110700351D01*
X136026434Y-110778140D01*
X136056315Y-110799850D01*
X136152425Y-110848820D01*
X136207146Y-110876703D01*
X136207148Y-110876703D01*
X136207151Y-110876705D01*
X136293450Y-110904745D01*
X136368152Y-110929018D01*
X136535351Y-110955500D01*
X136535356Y-110955500D01*
X137354649Y-110955500D01*
X137521847Y-110929018D01*
X137533216Y-110925324D01*
X137682849Y-110876705D01*
X137833685Y-110799850D01*
X137970641Y-110700346D01*
X138090346Y-110580641D01*
X138189850Y-110443685D01*
X138265015Y-110296166D01*
X138312990Y-110245370D01*
X138380811Y-110228575D01*
X138446946Y-110251113D01*
X138490397Y-110305828D01*
X138499500Y-110352461D01*
X138499500Y-113996249D01*
X138499274Y-114003736D01*
X138481728Y-114293794D01*
X138479923Y-114308659D01*
X138428219Y-114590798D01*
X138424635Y-114605336D01*
X138339306Y-114879167D01*
X138333997Y-114893168D01*
X138216275Y-115154736D01*
X138209316Y-115167995D01*
X138060928Y-115413459D01*
X138052422Y-115425782D01*
X137875526Y-115651573D01*
X137865596Y-115662781D01*
X137662781Y-115865596D01*
X137651573Y-115875526D01*
X137425782Y-116052422D01*
X137413459Y-116060928D01*
X137167995Y-116209316D01*
X137154736Y-116216275D01*
X136893168Y-116333997D01*
X136879167Y-116339306D01*
X136605336Y-116424635D01*
X136590798Y-116428219D01*
X136308659Y-116479923D01*
X136293794Y-116481728D01*
X136003736Y-116499274D01*
X135996249Y-116499500D01*
X83003751Y-116499500D01*
X82996264Y-116499274D01*
X82706205Y-116481728D01*
X82691340Y-116479923D01*
X82409201Y-116428219D01*
X82394663Y-116424635D01*
X82120832Y-116339306D01*
X82106831Y-116333997D01*
X81845263Y-116216275D01*
X81832004Y-116209316D01*
X81586540Y-116060928D01*
X81574217Y-116052422D01*
X81348426Y-115875526D01*
X81337218Y-115865596D01*
X81134403Y-115662781D01*
X81124473Y-115651573D01*
X80947573Y-115425776D01*
X80939075Y-115413465D01*
X80790680Y-115167989D01*
X80783727Y-115154743D01*
X80666000Y-114893163D01*
X80660693Y-114879167D01*
X80658273Y-114871402D01*
X80575363Y-114605335D01*
X80571780Y-114590798D01*
X80554998Y-114499223D01*
X80520075Y-114308657D01*
X80518271Y-114293794D01*
X80500726Y-114003736D01*
X80500500Y-113996249D01*
X80500500Y-113897648D01*
X81699500Y-113897648D01*
X81699500Y-114102351D01*
X81731522Y-114304534D01*
X81794781Y-114499223D01*
X81841442Y-114590798D01*
X81880037Y-114666546D01*
X81887715Y-114681613D01*
X82008028Y-114847213D01*
X82152786Y-114991971D01*
X82290928Y-115092335D01*
X82318390Y-115112287D01*
X82401701Y-115154736D01*
X82500776Y-115205218D01*
X82500778Y-115205218D01*
X82500781Y-115205220D01*
X82605137Y-115239127D01*
X82695465Y-115268477D01*
X82729736Y-115273905D01*
X82897648Y-115300500D01*
X82897649Y-115300500D01*
X83102351Y-115300500D01*
X83102352Y-115300500D01*
X83304534Y-115268477D01*
X83499219Y-115205220D01*
X83681610Y-115112287D01*
X83783180Y-115038493D01*
X83847213Y-114991971D01*
X83847215Y-114991968D01*
X83847219Y-114991966D01*
X83991966Y-114847219D01*
X83991968Y-114847215D01*
X83991971Y-114847213D01*
X84109212Y-114685842D01*
X84112287Y-114681610D01*
X84205220Y-114499219D01*
X84268477Y-114304534D01*
X84300500Y-114102352D01*
X84300500Y-113897648D01*
X84268477Y-113695466D01*
X84205220Y-113500781D01*
X84205218Y-113500778D01*
X84205218Y-113500776D01*
X84136024Y-113364977D01*
X84112287Y-113318390D01*
X84104556Y-113307749D01*
X83991971Y-113152786D01*
X83941320Y-113102135D01*
X86549500Y-113102135D01*
X86549500Y-114897870D01*
X86549501Y-114897876D01*
X86555908Y-114957483D01*
X86606202Y-115092328D01*
X86606206Y-115092335D01*
X86692452Y-115207544D01*
X86692455Y-115207547D01*
X86807664Y-115293793D01*
X86807671Y-115293797D01*
X86942517Y-115344091D01*
X86942516Y-115344091D01*
X86949444Y-115344835D01*
X87002127Y-115350500D01*
X88797872Y-115350499D01*
X88857483Y-115344091D01*
X88992331Y-115293796D01*
X89107546Y-115207546D01*
X89193796Y-115092331D01*
X89242810Y-114960916D01*
X89284681Y-114904984D01*
X89350145Y-114880566D01*
X89418418Y-114895417D01*
X89446673Y-114916569D01*
X89568599Y-115038495D01*
X89665384Y-115106265D01*
X89762165Y-115174032D01*
X89762167Y-115174033D01*
X89762170Y-115174035D01*
X89976337Y-115273903D01*
X90204592Y-115335063D01*
X90381034Y-115350500D01*
X90439999Y-115355659D01*
X90440000Y-115355659D01*
X90440001Y-115355659D01*
X90498966Y-115350500D01*
X90675408Y-115335063D01*
X90903663Y-115273903D01*
X91117830Y-115174035D01*
X91311401Y-115038495D01*
X91478495Y-114871401D01*
X91608425Y-114685842D01*
X91663002Y-114642217D01*
X91732500Y-114635023D01*
X91794855Y-114666546D01*
X91811575Y-114685842D01*
X91941500Y-114871395D01*
X91941505Y-114871401D01*
X92108599Y-115038495D01*
X92205384Y-115106265D01*
X92302165Y-115174032D01*
X92302167Y-115174033D01*
X92302170Y-115174035D01*
X92516337Y-115273903D01*
X92744592Y-115335063D01*
X92921034Y-115350500D01*
X92979999Y-115355659D01*
X92980000Y-115355659D01*
X92980001Y-115355659D01*
X93038966Y-115350500D01*
X93215408Y-115335063D01*
X93443663Y-115273903D01*
X93657830Y-115174035D01*
X93851401Y-115038495D01*
X94018495Y-114871401D01*
X94148425Y-114685842D01*
X94203002Y-114642217D01*
X94272500Y-114635023D01*
X94334855Y-114666546D01*
X94351575Y-114685842D01*
X94481500Y-114871395D01*
X94481505Y-114871401D01*
X94648599Y-115038495D01*
X94745384Y-115106265D01*
X94842165Y-115174032D01*
X94842167Y-115174033D01*
X94842170Y-115174035D01*
X95056337Y-115273903D01*
X95284592Y-115335063D01*
X95461034Y-115350500D01*
X95519999Y-115355659D01*
X95520000Y-115355659D01*
X95520001Y-115355659D01*
X95578966Y-115350500D01*
X95755408Y-115335063D01*
X95983663Y-115273903D01*
X96197830Y-115174035D01*
X96391401Y-115038495D01*
X96558495Y-114871401D01*
X96688425Y-114685842D01*
X96743002Y-114642217D01*
X96812500Y-114635023D01*
X96874855Y-114666546D01*
X96891575Y-114685842D01*
X97021500Y-114871395D01*
X97021505Y-114871401D01*
X97188599Y-115038495D01*
X97285384Y-115106265D01*
X97382165Y-115174032D01*
X97382167Y-115174033D01*
X97382170Y-115174035D01*
X97596337Y-115273903D01*
X97824592Y-115335063D01*
X98001034Y-115350500D01*
X98059999Y-115355659D01*
X98060000Y-115355659D01*
X98060001Y-115355659D01*
X98118966Y-115350500D01*
X98295408Y-115335063D01*
X98523663Y-115273903D01*
X98737830Y-115174035D01*
X98931401Y-115038495D01*
X99098495Y-114871401D01*
X99228425Y-114685842D01*
X99283002Y-114642217D01*
X99352500Y-114635023D01*
X99414855Y-114666546D01*
X99431575Y-114685842D01*
X99561500Y-114871395D01*
X99561505Y-114871401D01*
X99728599Y-115038495D01*
X99825384Y-115106265D01*
X99922165Y-115174032D01*
X99922167Y-115174033D01*
X99922170Y-115174035D01*
X100136337Y-115273903D01*
X100364592Y-115335063D01*
X100541034Y-115350500D01*
X100599999Y-115355659D01*
X100600000Y-115355659D01*
X100600001Y-115355659D01*
X100658966Y-115350500D01*
X100835408Y-115335063D01*
X101063663Y-115273903D01*
X101277830Y-115174035D01*
X101471401Y-115038495D01*
X101638495Y-114871401D01*
X101768425Y-114685842D01*
X101823002Y-114642217D01*
X101892500Y-114635023D01*
X101954855Y-114666546D01*
X101971575Y-114685842D01*
X102101500Y-114871395D01*
X102101505Y-114871401D01*
X102268599Y-115038495D01*
X102365384Y-115106265D01*
X102462165Y-115174032D01*
X102462167Y-115174033D01*
X102462170Y-115174035D01*
X102676337Y-115273903D01*
X102904592Y-115335063D01*
X103081034Y-115350500D01*
X103139999Y-115355659D01*
X103140000Y-115355659D01*
X103140001Y-115355659D01*
X103198966Y-115350500D01*
X103375408Y-115335063D01*
X103603663Y-115273903D01*
X103817830Y-115174035D01*
X104011401Y-115038495D01*
X104178495Y-114871401D01*
X104308425Y-114685842D01*
X104363002Y-114642217D01*
X104432500Y-114635023D01*
X104494855Y-114666546D01*
X104511575Y-114685842D01*
X104641500Y-114871395D01*
X104641505Y-114871401D01*
X104808599Y-115038495D01*
X104905384Y-115106265D01*
X105002165Y-115174032D01*
X105002167Y-115174033D01*
X105002170Y-115174035D01*
X105216337Y-115273903D01*
X105444592Y-115335063D01*
X105621034Y-115350500D01*
X105679999Y-115355659D01*
X105680000Y-115355659D01*
X105680001Y-115355659D01*
X105738966Y-115350500D01*
X105915408Y-115335063D01*
X106143663Y-115273903D01*
X106357830Y-115174035D01*
X106551401Y-115038495D01*
X106718495Y-114871401D01*
X106848425Y-114685842D01*
X106903002Y-114642217D01*
X106972500Y-114635023D01*
X107034855Y-114666546D01*
X107051575Y-114685842D01*
X107181500Y-114871395D01*
X107181505Y-114871401D01*
X107348599Y-115038495D01*
X107445384Y-115106265D01*
X107542165Y-115174032D01*
X107542167Y-115174033D01*
X107542170Y-115174035D01*
X107756337Y-115273903D01*
X107984592Y-115335063D01*
X108161034Y-115350500D01*
X108219999Y-115355659D01*
X108220000Y-115355659D01*
X108220001Y-115355659D01*
X108278966Y-115350500D01*
X108455408Y-115335063D01*
X108683663Y-115273903D01*
X108897830Y-115174035D01*
X109091401Y-115038495D01*
X109258495Y-114871401D01*
X109388425Y-114685842D01*
X109443002Y-114642217D01*
X109512500Y-114635023D01*
X109574855Y-114666546D01*
X109591575Y-114685842D01*
X109721500Y-114871395D01*
X109721505Y-114871401D01*
X109888599Y-115038495D01*
X109985384Y-115106265D01*
X110082165Y-115174032D01*
X110082167Y-115174033D01*
X110082170Y-115174035D01*
X110296337Y-115273903D01*
X110524592Y-115335063D01*
X110701034Y-115350500D01*
X110759999Y-115355659D01*
X110760000Y-115355659D01*
X110760001Y-115355659D01*
X110818966Y-115350500D01*
X110995408Y-115335063D01*
X111223663Y-115273903D01*
X111437830Y-115174035D01*
X111631401Y-115038495D01*
X111798495Y-114871401D01*
X111928425Y-114685842D01*
X111983002Y-114642217D01*
X112052500Y-114635023D01*
X112114855Y-114666546D01*
X112131575Y-114685842D01*
X112261500Y-114871395D01*
X112261505Y-114871401D01*
X112428599Y-115038495D01*
X112525384Y-115106265D01*
X112622165Y-115174032D01*
X112622167Y-115174033D01*
X112622170Y-115174035D01*
X112836337Y-115273903D01*
X113064592Y-115335063D01*
X113241034Y-115350500D01*
X113299999Y-115355659D01*
X113300000Y-115355659D01*
X113300001Y-115355659D01*
X113358966Y-115350500D01*
X113535408Y-115335063D01*
X113763663Y-115273903D01*
X113977830Y-115174035D01*
X114171401Y-115038495D01*
X114338495Y-114871401D01*
X114468425Y-114685842D01*
X114523002Y-114642217D01*
X114592500Y-114635023D01*
X114654855Y-114666546D01*
X114671575Y-114685842D01*
X114801500Y-114871395D01*
X114801505Y-114871401D01*
X114968599Y-115038495D01*
X115065384Y-115106265D01*
X115162165Y-115174032D01*
X115162167Y-115174033D01*
X115162170Y-115174035D01*
X115376337Y-115273903D01*
X115604592Y-115335063D01*
X115781034Y-115350500D01*
X115839999Y-115355659D01*
X115840000Y-115355659D01*
X115840001Y-115355659D01*
X115898966Y-115350500D01*
X116075408Y-115335063D01*
X116303663Y-115273903D01*
X116517830Y-115174035D01*
X116711401Y-115038495D01*
X116878495Y-114871401D01*
X117008425Y-114685842D01*
X117063002Y-114642217D01*
X117132500Y-114635023D01*
X117194855Y-114666546D01*
X117211575Y-114685842D01*
X117341500Y-114871395D01*
X117341505Y-114871401D01*
X117508599Y-115038495D01*
X117605384Y-115106265D01*
X117702165Y-115174032D01*
X117702167Y-115174033D01*
X117702170Y-115174035D01*
X117916337Y-115273903D01*
X118144592Y-115335063D01*
X118321034Y-115350500D01*
X118379999Y-115355659D01*
X118380000Y-115355659D01*
X118380001Y-115355659D01*
X118438966Y-115350500D01*
X118615408Y-115335063D01*
X118843663Y-115273903D01*
X119057830Y-115174035D01*
X119251401Y-115038495D01*
X119418495Y-114871401D01*
X119548425Y-114685842D01*
X119603002Y-114642217D01*
X119672500Y-114635023D01*
X119734855Y-114666546D01*
X119751575Y-114685842D01*
X119881500Y-114871395D01*
X119881505Y-114871401D01*
X120048599Y-115038495D01*
X120145384Y-115106265D01*
X120242165Y-115174032D01*
X120242167Y-115174033D01*
X120242170Y-115174035D01*
X120456337Y-115273903D01*
X120684592Y-115335063D01*
X120861034Y-115350500D01*
X120919999Y-115355659D01*
X120920000Y-115355659D01*
X120920001Y-115355659D01*
X120978966Y-115350500D01*
X121155408Y-115335063D01*
X121383663Y-115273903D01*
X121597830Y-115174035D01*
X121791401Y-115038495D01*
X121958495Y-114871401D01*
X122088425Y-114685842D01*
X122143002Y-114642217D01*
X122212500Y-114635023D01*
X122274855Y-114666546D01*
X122291575Y-114685842D01*
X122421500Y-114871395D01*
X122421505Y-114871401D01*
X122588599Y-115038495D01*
X122685384Y-115106265D01*
X122782165Y-115174032D01*
X122782167Y-115174033D01*
X122782170Y-115174035D01*
X122996337Y-115273903D01*
X123224592Y-115335063D01*
X123401034Y-115350500D01*
X123459999Y-115355659D01*
X123460000Y-115355659D01*
X123460001Y-115355659D01*
X123518966Y-115350500D01*
X123695408Y-115335063D01*
X123923663Y-115273903D01*
X124137830Y-115174035D01*
X124331401Y-115038495D01*
X124498495Y-114871401D01*
X124628425Y-114685842D01*
X124683002Y-114642217D01*
X124752500Y-114635023D01*
X124814855Y-114666546D01*
X124831575Y-114685842D01*
X124961500Y-114871395D01*
X124961505Y-114871401D01*
X125128599Y-115038495D01*
X125225384Y-115106265D01*
X125322165Y-115174032D01*
X125322167Y-115174033D01*
X125322170Y-115174035D01*
X125536337Y-115273903D01*
X125764592Y-115335063D01*
X125941034Y-115350500D01*
X125999999Y-115355659D01*
X126000000Y-115355659D01*
X126000001Y-115355659D01*
X126058966Y-115350500D01*
X126235408Y-115335063D01*
X126463663Y-115273903D01*
X126677830Y-115174035D01*
X126871401Y-115038495D01*
X127038495Y-114871401D01*
X127168425Y-114685842D01*
X127223002Y-114642217D01*
X127292500Y-114635023D01*
X127354855Y-114666546D01*
X127371575Y-114685842D01*
X127501500Y-114871395D01*
X127501505Y-114871401D01*
X127668599Y-115038495D01*
X127765384Y-115106265D01*
X127862165Y-115174032D01*
X127862167Y-115174033D01*
X127862170Y-115174035D01*
X128076337Y-115273903D01*
X128304592Y-115335063D01*
X128481034Y-115350500D01*
X128539999Y-115355659D01*
X128540000Y-115355659D01*
X128540001Y-115355659D01*
X128598966Y-115350500D01*
X128775408Y-115335063D01*
X129003663Y-115273903D01*
X129217830Y-115174035D01*
X129411401Y-115038495D01*
X129578495Y-114871401D01*
X129708425Y-114685842D01*
X129763002Y-114642217D01*
X129832500Y-114635023D01*
X129894855Y-114666546D01*
X129911575Y-114685842D01*
X130041500Y-114871395D01*
X130041505Y-114871401D01*
X130208599Y-115038495D01*
X130305384Y-115106265D01*
X130402165Y-115174032D01*
X130402167Y-115174033D01*
X130402170Y-115174035D01*
X130616337Y-115273903D01*
X130844592Y-115335063D01*
X131021034Y-115350500D01*
X131079999Y-115355659D01*
X131080000Y-115355659D01*
X131080001Y-115355659D01*
X131138966Y-115350500D01*
X131315408Y-115335063D01*
X131543663Y-115273903D01*
X131757830Y-115174035D01*
X131951401Y-115038495D01*
X132118495Y-114871401D01*
X132254035Y-114677830D01*
X132353903Y-114463663D01*
X132415063Y-114235408D01*
X132435659Y-114000000D01*
X132426704Y-113897648D01*
X134699500Y-113897648D01*
X134699500Y-114102351D01*
X134731522Y-114304534D01*
X134794781Y-114499223D01*
X134841442Y-114590798D01*
X134880037Y-114666546D01*
X134887715Y-114681613D01*
X135008028Y-114847213D01*
X135152786Y-114991971D01*
X135290928Y-115092335D01*
X135318390Y-115112287D01*
X135401701Y-115154736D01*
X135500776Y-115205218D01*
X135500778Y-115205218D01*
X135500781Y-115205220D01*
X135605137Y-115239127D01*
X135695465Y-115268477D01*
X135729736Y-115273905D01*
X135897648Y-115300500D01*
X135897649Y-115300500D01*
X136102351Y-115300500D01*
X136102352Y-115300500D01*
X136304534Y-115268477D01*
X136499219Y-115205220D01*
X136681610Y-115112287D01*
X136783180Y-115038493D01*
X136847213Y-114991971D01*
X136847215Y-114991968D01*
X136847219Y-114991966D01*
X136991966Y-114847219D01*
X136991968Y-114847215D01*
X136991971Y-114847213D01*
X137109212Y-114685842D01*
X137112287Y-114681610D01*
X137205220Y-114499219D01*
X137268477Y-114304534D01*
X137300500Y-114102352D01*
X137300500Y-113897648D01*
X137268477Y-113695466D01*
X137205220Y-113500781D01*
X137205218Y-113500778D01*
X137205218Y-113500776D01*
X137136024Y-113364977D01*
X137112287Y-113318390D01*
X137104556Y-113307749D01*
X136991971Y-113152786D01*
X136847213Y-113008028D01*
X136681613Y-112887715D01*
X136681612Y-112887714D01*
X136681610Y-112887713D01*
X136624653Y-112858691D01*
X136499223Y-112794781D01*
X136304534Y-112731522D01*
X136129995Y-112703878D01*
X136102352Y-112699500D01*
X135897648Y-112699500D01*
X135873329Y-112703351D01*
X135695465Y-112731522D01*
X135500776Y-112794781D01*
X135318386Y-112887715D01*
X135152786Y-113008028D01*
X135008028Y-113152786D01*
X134887715Y-113318386D01*
X134794781Y-113500776D01*
X134731522Y-113695465D01*
X134699500Y-113897648D01*
X132426704Y-113897648D01*
X132415063Y-113764592D01*
X132353903Y-113536337D01*
X132254035Y-113322171D01*
X132248425Y-113314158D01*
X132118494Y-113128597D01*
X131951402Y-112961506D01*
X131951395Y-112961501D01*
X131757834Y-112825967D01*
X131757830Y-112825965D01*
X131690956Y-112794781D01*
X131543663Y-112726097D01*
X131543659Y-112726096D01*
X131543655Y-112726094D01*
X131315413Y-112664938D01*
X131315403Y-112664936D01*
X131080001Y-112644341D01*
X131079999Y-112644341D01*
X130844596Y-112664936D01*
X130844586Y-112664938D01*
X130616344Y-112726094D01*
X130616335Y-112726098D01*
X130402171Y-112825964D01*
X130402169Y-112825965D01*
X130208597Y-112961505D01*
X130041505Y-113128597D01*
X129911575Y-113314158D01*
X129856998Y-113357783D01*
X129787500Y-113364977D01*
X129725145Y-113333454D01*
X129708425Y-113314158D01*
X129578494Y-113128597D01*
X129411402Y-112961506D01*
X129411395Y-112961501D01*
X129217834Y-112825967D01*
X129217830Y-112825965D01*
X129150956Y-112794781D01*
X129003663Y-112726097D01*
X129003659Y-112726096D01*
X129003655Y-112726094D01*
X128775413Y-112664938D01*
X128775403Y-112664936D01*
X128540001Y-112644341D01*
X128539999Y-112644341D01*
X128304596Y-112664936D01*
X128304586Y-112664938D01*
X128076344Y-112726094D01*
X128076335Y-112726098D01*
X127862171Y-112825964D01*
X127862169Y-112825965D01*
X127668597Y-112961505D01*
X127501505Y-113128597D01*
X127371575Y-113314158D01*
X127316998Y-113357783D01*
X127247500Y-113364977D01*
X127185145Y-113333454D01*
X127168425Y-113314158D01*
X127038494Y-113128597D01*
X126871402Y-112961506D01*
X126871395Y-112961501D01*
X126677834Y-112825967D01*
X126677830Y-112825965D01*
X126610956Y-112794781D01*
X126463663Y-112726097D01*
X126463659Y-112726096D01*
X126463655Y-112726094D01*
X126235413Y-112664938D01*
X126235403Y-112664936D01*
X126000001Y-112644341D01*
X125999999Y-112644341D01*
X125764596Y-112664936D01*
X125764586Y-112664938D01*
X125536344Y-112726094D01*
X125536335Y-112726098D01*
X125322171Y-112825964D01*
X125322169Y-112825965D01*
X125128597Y-112961505D01*
X124961505Y-113128597D01*
X124831575Y-113314158D01*
X124776998Y-113357783D01*
X124707500Y-113364977D01*
X124645145Y-113333454D01*
X124628425Y-113314158D01*
X124498494Y-113128597D01*
X124331402Y-112961506D01*
X124331395Y-112961501D01*
X124137834Y-112825967D01*
X124137830Y-112825965D01*
X124070956Y-112794781D01*
X123923663Y-112726097D01*
X123923659Y-112726096D01*
X123923655Y-112726094D01*
X123695413Y-112664938D01*
X123695403Y-112664936D01*
X123460001Y-112644341D01*
X123459999Y-112644341D01*
X123224596Y-112664936D01*
X123224586Y-112664938D01*
X122996344Y-112726094D01*
X122996335Y-112726098D01*
X122782171Y-112825964D01*
X122782169Y-112825965D01*
X122588597Y-112961505D01*
X122421505Y-113128597D01*
X122291575Y-113314158D01*
X122236998Y-113357783D01*
X122167500Y-113364977D01*
X122105145Y-113333454D01*
X122088425Y-113314158D01*
X121958494Y-113128597D01*
X121791402Y-112961506D01*
X121791395Y-112961501D01*
X121597834Y-112825967D01*
X121597830Y-112825965D01*
X121530956Y-112794781D01*
X121383663Y-112726097D01*
X121383659Y-112726096D01*
X121383655Y-112726094D01*
X121155413Y-112664938D01*
X121155403Y-112664936D01*
X120920001Y-112644341D01*
X120919999Y-112644341D01*
X120684596Y-112664936D01*
X120684586Y-112664938D01*
X120456344Y-112726094D01*
X120456335Y-112726098D01*
X120242171Y-112825964D01*
X120242169Y-112825965D01*
X120048597Y-112961505D01*
X119881505Y-113128597D01*
X119751575Y-113314158D01*
X119696998Y-113357783D01*
X119627500Y-113364977D01*
X119565145Y-113333454D01*
X119548425Y-113314158D01*
X119418494Y-113128597D01*
X119251402Y-112961506D01*
X119251395Y-112961501D01*
X119057834Y-112825967D01*
X119057830Y-112825965D01*
X118990956Y-112794781D01*
X118843663Y-112726097D01*
X118843659Y-112726096D01*
X118843655Y-112726094D01*
X118615413Y-112664938D01*
X118615403Y-112664936D01*
X118380001Y-112644341D01*
X118379999Y-112644341D01*
X118144596Y-112664936D01*
X118144586Y-112664938D01*
X117916344Y-112726094D01*
X117916335Y-112726098D01*
X117702171Y-112825964D01*
X117702169Y-112825965D01*
X117508597Y-112961505D01*
X117341505Y-113128597D01*
X117211575Y-113314158D01*
X117156998Y-113357783D01*
X117087500Y-113364977D01*
X117025145Y-113333454D01*
X117008425Y-113314158D01*
X116878494Y-113128597D01*
X116711402Y-112961506D01*
X116711395Y-112961501D01*
X116517834Y-112825967D01*
X116517830Y-112825965D01*
X116450956Y-112794781D01*
X116303663Y-112726097D01*
X116303659Y-112726096D01*
X116303655Y-112726094D01*
X116075413Y-112664938D01*
X116075403Y-112664936D01*
X115840001Y-112644341D01*
X115839999Y-112644341D01*
X115604596Y-112664936D01*
X115604586Y-112664938D01*
X115376344Y-112726094D01*
X115376335Y-112726098D01*
X115162171Y-112825964D01*
X115162169Y-112825965D01*
X114968597Y-112961505D01*
X114801505Y-113128597D01*
X114671575Y-113314158D01*
X114616998Y-113357783D01*
X114547500Y-113364977D01*
X114485145Y-113333454D01*
X114468425Y-113314158D01*
X114338494Y-113128597D01*
X114171402Y-112961506D01*
X114171395Y-112961501D01*
X113977834Y-112825967D01*
X113977830Y-112825965D01*
X113910956Y-112794781D01*
X113763663Y-112726097D01*
X113763659Y-112726096D01*
X113763655Y-112726094D01*
X113535413Y-112664938D01*
X113535403Y-112664936D01*
X113300001Y-112644341D01*
X113299999Y-112644341D01*
X113064596Y-112664936D01*
X113064586Y-112664938D01*
X112836344Y-112726094D01*
X112836335Y-112726098D01*
X112622171Y-112825964D01*
X112622169Y-112825965D01*
X112428597Y-112961505D01*
X112261505Y-113128597D01*
X112131575Y-113314158D01*
X112076998Y-113357783D01*
X112007500Y-113364977D01*
X111945145Y-113333454D01*
X111928425Y-113314158D01*
X111798494Y-113128597D01*
X111631402Y-112961506D01*
X111631395Y-112961501D01*
X111437834Y-112825967D01*
X111437830Y-112825965D01*
X111370956Y-112794781D01*
X111223663Y-112726097D01*
X111223659Y-112726096D01*
X111223655Y-112726094D01*
X110995413Y-112664938D01*
X110995403Y-112664936D01*
X110760001Y-112644341D01*
X110759999Y-112644341D01*
X110524596Y-112664936D01*
X110524586Y-112664938D01*
X110296344Y-112726094D01*
X110296335Y-112726098D01*
X110082171Y-112825964D01*
X110082169Y-112825965D01*
X109888597Y-112961505D01*
X109721505Y-113128597D01*
X109591575Y-113314158D01*
X109536998Y-113357783D01*
X109467500Y-113364977D01*
X109405145Y-113333454D01*
X109388425Y-113314158D01*
X109258494Y-113128597D01*
X109091402Y-112961506D01*
X109091395Y-112961501D01*
X108897834Y-112825967D01*
X108897830Y-112825965D01*
X108830956Y-112794781D01*
X108683663Y-112726097D01*
X108683659Y-112726096D01*
X108683655Y-112726094D01*
X108455413Y-112664938D01*
X108455403Y-112664936D01*
X108220001Y-112644341D01*
X108219999Y-112644341D01*
X107984596Y-112664936D01*
X107984586Y-112664938D01*
X107756344Y-112726094D01*
X107756335Y-112726098D01*
X107542171Y-112825964D01*
X107542169Y-112825965D01*
X107348597Y-112961505D01*
X107181505Y-113128597D01*
X107051575Y-113314158D01*
X106996998Y-113357783D01*
X106927500Y-113364977D01*
X106865145Y-113333454D01*
X106848425Y-113314158D01*
X106718494Y-113128597D01*
X106551402Y-112961506D01*
X106551395Y-112961501D01*
X106357834Y-112825967D01*
X106357830Y-112825965D01*
X106290956Y-112794781D01*
X106143663Y-112726097D01*
X106143659Y-112726096D01*
X106143655Y-112726094D01*
X105915413Y-112664938D01*
X105915403Y-112664936D01*
X105680001Y-112644341D01*
X105679999Y-112644341D01*
X105444596Y-112664936D01*
X105444586Y-112664938D01*
X105216344Y-112726094D01*
X105216335Y-112726098D01*
X105002171Y-112825964D01*
X105002169Y-112825965D01*
X104808597Y-112961505D01*
X104641505Y-113128597D01*
X104511575Y-113314158D01*
X104456998Y-113357783D01*
X104387500Y-113364977D01*
X104325145Y-113333454D01*
X104308425Y-113314158D01*
X104178494Y-113128597D01*
X104011402Y-112961506D01*
X104011395Y-112961501D01*
X103817834Y-112825967D01*
X103817830Y-112825965D01*
X103750956Y-112794781D01*
X103603663Y-112726097D01*
X103603659Y-112726096D01*
X103603655Y-112726094D01*
X103375413Y-112664938D01*
X103375403Y-112664936D01*
X103140001Y-112644341D01*
X103139999Y-112644341D01*
X102904596Y-112664936D01*
X102904586Y-112664938D01*
X102676344Y-112726094D01*
X102676335Y-112726098D01*
X102462171Y-112825964D01*
X102462169Y-112825965D01*
X102268597Y-112961505D01*
X102101505Y-113128597D01*
X101971575Y-113314158D01*
X101916998Y-113357783D01*
X101847500Y-113364977D01*
X101785145Y-113333454D01*
X101768425Y-113314158D01*
X101638494Y-113128597D01*
X101471402Y-112961506D01*
X101471395Y-112961501D01*
X101277834Y-112825967D01*
X101277830Y-112825965D01*
X101210956Y-112794781D01*
X101063663Y-112726097D01*
X101063659Y-112726096D01*
X101063655Y-112726094D01*
X100835413Y-112664938D01*
X100835403Y-112664936D01*
X100600001Y-112644341D01*
X100599999Y-112644341D01*
X100364596Y-112664936D01*
X100364586Y-112664938D01*
X100136344Y-112726094D01*
X100136335Y-112726098D01*
X99922171Y-112825964D01*
X99922169Y-112825965D01*
X99728597Y-112961505D01*
X99561505Y-113128597D01*
X99431575Y-113314158D01*
X99376998Y-113357783D01*
X99307500Y-113364977D01*
X99245145Y-113333454D01*
X99228425Y-113314158D01*
X99098494Y-113128597D01*
X98931402Y-112961506D01*
X98931395Y-112961501D01*
X98737834Y-112825967D01*
X98737830Y-112825965D01*
X98670956Y-112794781D01*
X98523663Y-112726097D01*
X98523659Y-112726096D01*
X98523655Y-112726094D01*
X98295413Y-112664938D01*
X98295403Y-112664936D01*
X98060001Y-112644341D01*
X98059999Y-112644341D01*
X97824596Y-112664936D01*
X97824586Y-112664938D01*
X97596344Y-112726094D01*
X97596335Y-112726098D01*
X97382171Y-112825964D01*
X97382169Y-112825965D01*
X97188597Y-112961505D01*
X97021505Y-113128597D01*
X96891575Y-113314158D01*
X96836998Y-113357783D01*
X96767500Y-113364977D01*
X96705145Y-113333454D01*
X96688425Y-113314158D01*
X96558494Y-113128597D01*
X96391402Y-112961506D01*
X96391395Y-112961501D01*
X96197834Y-112825967D01*
X96197830Y-112825965D01*
X96130956Y-112794781D01*
X95983663Y-112726097D01*
X95983659Y-112726096D01*
X95983655Y-112726094D01*
X95755413Y-112664938D01*
X95755403Y-112664936D01*
X95520001Y-112644341D01*
X95519999Y-112644341D01*
X95284596Y-112664936D01*
X95284586Y-112664938D01*
X95056344Y-112726094D01*
X95056335Y-112726098D01*
X94842171Y-112825964D01*
X94842169Y-112825965D01*
X94648597Y-112961505D01*
X94481505Y-113128597D01*
X94351575Y-113314158D01*
X94296998Y-113357783D01*
X94227500Y-113364977D01*
X94165145Y-113333454D01*
X94148425Y-113314158D01*
X94018494Y-113128597D01*
X93851402Y-112961506D01*
X93851395Y-112961501D01*
X93657834Y-112825967D01*
X93657830Y-112825965D01*
X93590956Y-112794781D01*
X93443663Y-112726097D01*
X93443659Y-112726096D01*
X93443655Y-112726094D01*
X93215413Y-112664938D01*
X93215403Y-112664936D01*
X92980001Y-112644341D01*
X92979999Y-112644341D01*
X92744596Y-112664936D01*
X92744586Y-112664938D01*
X92516344Y-112726094D01*
X92516335Y-112726098D01*
X92302171Y-112825964D01*
X92302169Y-112825965D01*
X92108597Y-112961505D01*
X91941505Y-113128597D01*
X91811575Y-113314158D01*
X91756998Y-113357783D01*
X91687500Y-113364977D01*
X91625145Y-113333454D01*
X91608425Y-113314158D01*
X91478494Y-113128597D01*
X91311402Y-112961506D01*
X91311395Y-112961501D01*
X91117834Y-112825967D01*
X91117830Y-112825965D01*
X91050956Y-112794781D01*
X90903663Y-112726097D01*
X90903659Y-112726096D01*
X90903655Y-112726094D01*
X90675413Y-112664938D01*
X90675403Y-112664936D01*
X90440001Y-112644341D01*
X90439999Y-112644341D01*
X90204596Y-112664936D01*
X90204586Y-112664938D01*
X89976344Y-112726094D01*
X89976335Y-112726098D01*
X89762171Y-112825964D01*
X89762169Y-112825965D01*
X89568600Y-112961503D01*
X89446673Y-113083430D01*
X89385350Y-113116914D01*
X89315658Y-113111930D01*
X89259725Y-113070058D01*
X89242810Y-113039081D01*
X89193797Y-112907671D01*
X89193793Y-112907664D01*
X89107547Y-112792455D01*
X89107544Y-112792452D01*
X88992335Y-112706206D01*
X88992328Y-112706202D01*
X88857482Y-112655908D01*
X88857483Y-112655908D01*
X88797883Y-112649501D01*
X88797881Y-112649500D01*
X88797873Y-112649500D01*
X88797864Y-112649500D01*
X87002129Y-112649500D01*
X87002123Y-112649501D01*
X86942516Y-112655908D01*
X86807671Y-112706202D01*
X86807664Y-112706206D01*
X86692455Y-112792452D01*
X86692452Y-112792455D01*
X86606206Y-112907664D01*
X86606202Y-112907671D01*
X86555908Y-113042517D01*
X86549501Y-113102116D01*
X86549500Y-113102135D01*
X83941320Y-113102135D01*
X83847213Y-113008028D01*
X83681613Y-112887715D01*
X83681612Y-112887714D01*
X83681610Y-112887713D01*
X83624653Y-112858691D01*
X83499223Y-112794781D01*
X83304534Y-112731522D01*
X83129995Y-112703878D01*
X83102352Y-112699500D01*
X82897648Y-112699500D01*
X82873329Y-112703351D01*
X82695465Y-112731522D01*
X82500776Y-112794781D01*
X82318386Y-112887715D01*
X82152786Y-113008028D01*
X82008028Y-113152786D01*
X81887715Y-113318386D01*
X81794781Y-113500776D01*
X81731522Y-113695465D01*
X81699500Y-113897648D01*
X80500500Y-113897648D01*
X80500500Y-104550000D01*
X94319815Y-104550000D01*
X94338503Y-104727805D01*
X94338504Y-104727807D01*
X94393747Y-104897829D01*
X94393750Y-104897835D01*
X94483141Y-105052665D01*
X94503252Y-105075000D01*
X94602764Y-105185521D01*
X94602767Y-105185523D01*
X94602770Y-105185526D01*
X94747407Y-105290612D01*
X94910733Y-105363329D01*
X95085609Y-105400500D01*
X95085610Y-105400500D01*
X95264389Y-105400500D01*
X95264391Y-105400500D01*
X95439267Y-105363329D01*
X95602593Y-105290612D01*
X95747230Y-105185526D01*
X95846748Y-105075000D01*
X103569815Y-105075000D01*
X103588503Y-105252805D01*
X103588504Y-105252807D01*
X103643747Y-105422829D01*
X103643750Y-105422835D01*
X103733141Y-105577665D01*
X103774812Y-105623946D01*
X103852764Y-105710521D01*
X103852767Y-105710523D01*
X103852770Y-105710526D01*
X103997407Y-105815612D01*
X104160733Y-105888329D01*
X104160734Y-105888329D01*
X104166670Y-105890972D01*
X104165890Y-105892723D01*
X104205822Y-105917190D01*
X109421580Y-111132948D01*
X109421584Y-111132951D01*
X109544498Y-111215080D01*
X109544511Y-111215087D01*
X109681082Y-111271656D01*
X109681087Y-111271658D01*
X109681091Y-111271658D01*
X109681092Y-111271659D01*
X109826079Y-111300500D01*
X109826082Y-111300500D01*
X109973917Y-111300500D01*
X110518259Y-111300500D01*
X110568693Y-111311219D01*
X110685733Y-111363329D01*
X110860609Y-111400500D01*
X110860610Y-111400500D01*
X111039389Y-111400500D01*
X111039391Y-111400500D01*
X111214267Y-111363329D01*
X111331306Y-111311219D01*
X111381741Y-111300500D01*
X122773920Y-111300500D01*
X122871462Y-111281096D01*
X122918913Y-111271658D01*
X123055495Y-111215084D01*
X123104729Y-111182186D01*
X123178416Y-111132952D01*
X124677816Y-109633551D01*
X131644500Y-109633551D01*
X131644500Y-109826448D01*
X131674675Y-110016969D01*
X131674676Y-110016972D01*
X131734285Y-110200429D01*
X131821859Y-110372302D01*
X131935241Y-110528359D01*
X132071641Y-110664759D01*
X132227698Y-110778141D01*
X132399571Y-110865715D01*
X132583028Y-110925324D01*
X132773551Y-110955500D01*
X132773552Y-110955500D01*
X133516448Y-110955500D01*
X133516449Y-110955500D01*
X133706972Y-110925324D01*
X133890429Y-110865715D01*
X134062302Y-110778141D01*
X134218359Y-110664759D01*
X134354759Y-110528359D01*
X134468141Y-110372302D01*
X134555715Y-110200429D01*
X134615324Y-110016972D01*
X134645500Y-109826449D01*
X134645500Y-109633551D01*
X134615324Y-109443028D01*
X134608902Y-109423266D01*
X134606908Y-109353428D01*
X134642988Y-109293595D01*
X134653941Y-109284637D01*
X134800871Y-109177888D01*
X134927533Y-109037216D01*
X135022179Y-108873284D01*
X135080674Y-108693256D01*
X135100460Y-108505000D01*
X135080674Y-108316744D01*
X135022179Y-108136716D01*
X134927533Y-107972784D01*
X134800871Y-107832112D01*
X134800870Y-107832111D01*
X134647734Y-107720851D01*
X134647729Y-107720848D01*
X134474807Y-107643857D01*
X134474802Y-107643855D01*
X134329001Y-107612865D01*
X134289646Y-107604500D01*
X134100354Y-107604500D01*
X134067897Y-107611398D01*
X133915197Y-107643855D01*
X133915192Y-107643857D01*
X133742270Y-107720848D01*
X133742265Y-107720851D01*
X133589129Y-107832111D01*
X133462466Y-107972785D01*
X133367821Y-108136715D01*
X133367818Y-108136722D01*
X133309325Y-108316745D01*
X133301263Y-108393461D01*
X133274679Y-108458075D01*
X133217382Y-108498061D01*
X133177942Y-108504500D01*
X132773551Y-108504500D01*
X132737697Y-108510178D01*
X132583030Y-108534675D01*
X132399568Y-108594286D01*
X132227697Y-108681859D01*
X132176893Y-108718771D01*
X132071641Y-108795241D01*
X132071639Y-108795243D01*
X132071638Y-108795243D01*
X131935243Y-108931638D01*
X131935243Y-108931639D01*
X131935241Y-108931641D01*
X131886547Y-108998661D01*
X131821859Y-109087697D01*
X131734286Y-109259568D01*
X131674675Y-109443030D01*
X131644500Y-109633551D01*
X124677816Y-109633551D01*
X125682952Y-108628415D01*
X125711637Y-108585483D01*
X125740520Y-108542258D01*
X125747531Y-108531763D01*
X125765084Y-108505495D01*
X125794479Y-108434530D01*
X125821659Y-108368912D01*
X125850500Y-108223917D01*
X125850500Y-108076082D01*
X125850500Y-106726082D01*
X125850500Y-106726079D01*
X125821659Y-106581092D01*
X125821658Y-106581091D01*
X125821658Y-106581087D01*
X125765084Y-106444505D01*
X125732186Y-106395270D01*
X125732185Y-106395268D01*
X125682956Y-106321589D01*
X125682952Y-106321584D01*
X124461369Y-105100000D01*
X125919815Y-105100000D01*
X125938503Y-105277805D01*
X125938504Y-105277807D01*
X125993747Y-105447829D01*
X125993750Y-105447835D01*
X126083141Y-105602665D01*
X126124812Y-105648946D01*
X126202764Y-105735521D01*
X126202767Y-105735523D01*
X126202770Y-105735526D01*
X126347407Y-105840612D01*
X126510733Y-105913329D01*
X126685609Y-105950500D01*
X126685610Y-105950500D01*
X126864389Y-105950500D01*
X126864391Y-105950500D01*
X127039267Y-105913329D01*
X127202593Y-105840612D01*
X127347230Y-105735526D01*
X127466859Y-105602665D01*
X127556250Y-105447835D01*
X127611497Y-105277803D01*
X127630185Y-105100000D01*
X127611497Y-104922197D01*
X127583873Y-104837181D01*
X127556252Y-104752170D01*
X127556249Y-104752164D01*
X127466859Y-104597335D01*
X127457349Y-104586773D01*
X127427120Y-104523782D01*
X127425500Y-104503802D01*
X127425500Y-97848962D01*
X127445185Y-97781923D01*
X127457351Y-97765989D01*
X127459080Y-97764069D01*
X127491859Y-97727665D01*
X127581250Y-97572835D01*
X127636497Y-97402803D01*
X127655185Y-97225000D01*
X127636497Y-97047197D01*
X127581458Y-96877805D01*
X127581252Y-96877170D01*
X127581249Y-96877164D01*
X127550625Y-96824121D01*
X127491859Y-96722335D01*
X127438730Y-96663329D01*
X127372235Y-96589478D01*
X127372232Y-96589476D01*
X127372231Y-96589475D01*
X127372230Y-96589474D01*
X127227593Y-96484388D01*
X127064267Y-96411671D01*
X127064265Y-96411670D01*
X126902460Y-96377278D01*
X126889391Y-96374500D01*
X126710609Y-96374500D01*
X126697540Y-96377278D01*
X126535733Y-96411670D01*
X126535728Y-96411672D01*
X126372408Y-96484387D01*
X126227768Y-96589475D01*
X126108140Y-96722336D01*
X126018750Y-96877164D01*
X126018747Y-96877170D01*
X125963504Y-97047192D01*
X125963503Y-97047194D01*
X125944815Y-97225000D01*
X125963503Y-97402805D01*
X125963504Y-97402807D01*
X126018747Y-97572829D01*
X126018750Y-97572835D01*
X126107887Y-97727225D01*
X126124500Y-97789225D01*
X126124500Y-104503802D01*
X126104815Y-104570841D01*
X126092651Y-104586773D01*
X126083140Y-104597336D01*
X125993750Y-104752164D01*
X125993747Y-104752170D01*
X125938504Y-104922192D01*
X125938503Y-104922194D01*
X125919815Y-105100000D01*
X124461369Y-105100000D01*
X123953421Y-104592052D01*
X123953414Y-104592046D01*
X123869109Y-104535716D01*
X123869108Y-104535716D01*
X123830501Y-104509919D01*
X123830488Y-104509912D01*
X123693917Y-104453343D01*
X123693907Y-104453340D01*
X123548920Y-104424500D01*
X123548918Y-104424500D01*
X122756741Y-104424500D01*
X122706306Y-104413780D01*
X122687709Y-104405500D01*
X122589267Y-104361671D01*
X122589265Y-104361670D01*
X122460906Y-104334387D01*
X122414391Y-104324500D01*
X122235609Y-104324500D01*
X122204954Y-104331015D01*
X122060733Y-104361670D01*
X122060728Y-104361672D01*
X121897408Y-104434387D01*
X121752768Y-104539475D01*
X121633140Y-104672336D01*
X121543750Y-104827164D01*
X121543747Y-104827170D01*
X121488504Y-104997192D01*
X121488503Y-104997194D01*
X121469815Y-105175000D01*
X121488503Y-105352805D01*
X121488504Y-105352807D01*
X121543747Y-105522829D01*
X121543750Y-105522835D01*
X121633141Y-105677665D01*
X121674812Y-105723946D01*
X121752764Y-105810521D01*
X121752767Y-105810523D01*
X121752770Y-105810526D01*
X121897407Y-105915612D01*
X122060733Y-105988329D01*
X122235609Y-106025500D01*
X122235610Y-106025500D01*
X122414389Y-106025500D01*
X122414391Y-106025500D01*
X122589267Y-105988329D01*
X122706306Y-105936219D01*
X122756741Y-105925500D01*
X123112770Y-105925500D01*
X123179809Y-105945185D01*
X123200451Y-105961819D01*
X123577995Y-106339363D01*
X123611480Y-106400686D01*
X123606496Y-106470378D01*
X123564624Y-106526311D01*
X123516095Y-106548334D01*
X123335733Y-106586670D01*
X123335728Y-106586672D01*
X123172408Y-106659388D01*
X123172403Y-106659390D01*
X123080974Y-106725818D01*
X123015168Y-106749298D01*
X123008089Y-106749500D01*
X119395808Y-106749500D01*
X119328769Y-106729815D01*
X119308127Y-106713181D01*
X116128628Y-103533682D01*
X116095143Y-103472359D01*
X116092988Y-103458961D01*
X116086497Y-103397198D01*
X116084356Y-103390610D01*
X116048104Y-103279036D01*
X116031252Y-103227170D01*
X116031249Y-103227164D01*
X116024087Y-103214759D01*
X115941859Y-103072335D01*
X115895003Y-103020296D01*
X115822235Y-102939478D01*
X115822232Y-102939476D01*
X115822231Y-102939475D01*
X115822230Y-102939474D01*
X115677593Y-102834388D01*
X115514267Y-102761671D01*
X115514265Y-102761670D01*
X115386594Y-102734533D01*
X115339391Y-102724500D01*
X115160609Y-102724500D01*
X115129954Y-102731015D01*
X114985733Y-102761670D01*
X114985728Y-102761672D01*
X114822408Y-102834387D01*
X114677768Y-102939475D01*
X114558140Y-103072336D01*
X114468750Y-103227164D01*
X114468747Y-103227170D01*
X114413504Y-103397192D01*
X114413503Y-103397194D01*
X114394815Y-103575000D01*
X114413503Y-103752805D01*
X114413504Y-103752807D01*
X114468747Y-103922829D01*
X114468750Y-103922835D01*
X114558141Y-104077665D01*
X114583297Y-104105603D01*
X114677764Y-104210521D01*
X114677767Y-104210523D01*
X114677770Y-104210526D01*
X114822407Y-104315612D01*
X114985733Y-104388329D01*
X114985735Y-104388329D01*
X114985736Y-104388330D01*
X115042275Y-104400347D01*
X115150010Y-104423247D01*
X115211490Y-104456438D01*
X115211909Y-104456855D01*
X118660325Y-107905272D01*
X118660328Y-107905275D01*
X118748642Y-107964284D01*
X118748641Y-107964284D01*
X118766871Y-107976464D01*
X118766872Y-107976464D01*
X118766873Y-107976465D01*
X118885256Y-108025501D01*
X118885260Y-108025501D01*
X118885261Y-108025502D01*
X119010928Y-108050500D01*
X119010931Y-108050500D01*
X123008089Y-108050500D01*
X123075128Y-108070185D01*
X123080976Y-108074182D01*
X123172407Y-108140612D01*
X123335733Y-108213329D01*
X123510609Y-108250500D01*
X123510610Y-108250500D01*
X123638769Y-108250500D01*
X123705808Y-108270185D01*
X123751563Y-108322989D01*
X123761507Y-108392147D01*
X123732482Y-108455703D01*
X123726450Y-108462181D01*
X122425451Y-109763181D01*
X122364128Y-109796666D01*
X122337770Y-109799500D01*
X111381741Y-109799500D01*
X111331306Y-109788780D01*
X111214267Y-109736671D01*
X111214265Y-109736670D01*
X111086594Y-109709533D01*
X111039391Y-109699500D01*
X110860609Y-109699500D01*
X110829954Y-109706015D01*
X110685733Y-109736670D01*
X110568694Y-109788780D01*
X110518259Y-109799500D01*
X110262229Y-109799500D01*
X110195190Y-109779815D01*
X110174548Y-109763181D01*
X105259892Y-104848524D01*
X105229642Y-104799160D01*
X105214374Y-104752170D01*
X105206250Y-104727165D01*
X105206248Y-104727161D01*
X105131293Y-104597336D01*
X105116859Y-104572335D01*
X105098010Y-104551401D01*
X104997235Y-104439478D01*
X104997232Y-104439476D01*
X104997231Y-104439475D01*
X104997230Y-104439474D01*
X104852593Y-104334388D01*
X104689267Y-104261671D01*
X104689265Y-104261670D01*
X104561594Y-104234533D01*
X104514391Y-104224500D01*
X104335609Y-104224500D01*
X104304954Y-104231015D01*
X104160733Y-104261670D01*
X104160728Y-104261672D01*
X103997408Y-104334387D01*
X103852768Y-104439475D01*
X103733140Y-104572336D01*
X103643750Y-104727164D01*
X103643747Y-104727170D01*
X103588504Y-104897192D01*
X103588503Y-104897194D01*
X103569815Y-105075000D01*
X95846748Y-105075000D01*
X95866859Y-105052665D01*
X95956250Y-104897835D01*
X96011497Y-104727803D01*
X96030185Y-104550000D01*
X96011497Y-104372197D01*
X95956569Y-104203146D01*
X95950500Y-104164828D01*
X95950500Y-102625000D01*
X98769815Y-102625000D01*
X98788503Y-102802805D01*
X98788504Y-102802807D01*
X98843747Y-102972829D01*
X98843750Y-102972835D01*
X98933141Y-103127665D01*
X98974812Y-103173946D01*
X99052764Y-103260521D01*
X99052767Y-103260523D01*
X99052770Y-103260526D01*
X99197407Y-103365612D01*
X99360733Y-103438329D01*
X99535609Y-103475500D01*
X99535610Y-103475500D01*
X99714389Y-103475500D01*
X99714391Y-103475500D01*
X99889267Y-103438329D01*
X100052593Y-103365612D01*
X100144025Y-103299182D01*
X100209831Y-103275702D01*
X100216911Y-103275500D01*
X109304192Y-103275500D01*
X109371231Y-103295185D01*
X109391873Y-103311819D01*
X109671371Y-103591317D01*
X109704856Y-103652640D01*
X109707010Y-103666031D01*
X109713503Y-103727803D01*
X109713504Y-103727805D01*
X109713504Y-103727807D01*
X109768747Y-103897829D01*
X109768750Y-103897835D01*
X109858141Y-104052665D01*
X109899812Y-104098946D01*
X109977764Y-104185521D01*
X109977767Y-104185523D01*
X109977770Y-104185526D01*
X110122407Y-104290612D01*
X110285733Y-104363329D01*
X110460609Y-104400500D01*
X110460610Y-104400500D01*
X110639389Y-104400500D01*
X110639391Y-104400500D01*
X110814267Y-104363329D01*
X110977593Y-104290612D01*
X111122230Y-104185526D01*
X111129108Y-104177888D01*
X111148148Y-104156741D01*
X111241859Y-104052665D01*
X111331250Y-103897835D01*
X111386497Y-103727803D01*
X111405185Y-103550000D01*
X111386497Y-103372197D01*
X111356227Y-103279036D01*
X111331252Y-103202170D01*
X111331249Y-103202164D01*
X111241859Y-103047335D01*
X111174779Y-102972835D01*
X111122235Y-102914478D01*
X111122232Y-102914476D01*
X111122231Y-102914475D01*
X111122230Y-102914474D01*
X110977593Y-102809388D01*
X110814267Y-102736671D01*
X110814265Y-102736670D01*
X110677473Y-102707594D01*
X110649989Y-102701752D01*
X110588508Y-102668561D01*
X110588090Y-102668144D01*
X110569946Y-102650000D01*
X120094815Y-102650000D01*
X120113503Y-102827805D01*
X120113504Y-102827807D01*
X120168747Y-102997829D01*
X120168750Y-102997835D01*
X120258141Y-103152665D01*
X120299535Y-103198638D01*
X120377764Y-103285521D01*
X120377767Y-103285523D01*
X120377770Y-103285526D01*
X120522407Y-103390612D01*
X120685733Y-103463329D01*
X120860609Y-103500500D01*
X120860610Y-103500500D01*
X121039389Y-103500500D01*
X121039391Y-103500500D01*
X121214267Y-103463329D01*
X121377593Y-103390612D01*
X121522230Y-103285526D01*
X121528087Y-103279022D01*
X121574774Y-103227170D01*
X121641859Y-103152665D01*
X121731250Y-102997835D01*
X121754644Y-102925834D01*
X121784890Y-102876476D01*
X123882952Y-100778416D01*
X123918309Y-100725500D01*
X123943560Y-100687709D01*
X123943562Y-100687704D01*
X123943568Y-100687696D01*
X123965084Y-100655495D01*
X124021658Y-100518913D01*
X124031096Y-100471462D01*
X124050500Y-100373920D01*
X124050500Y-97112228D01*
X124070185Y-97045189D01*
X124086815Y-97024551D01*
X124419177Y-96692188D01*
X124459111Y-96667729D01*
X124458329Y-96665972D01*
X124464263Y-96663329D01*
X124464267Y-96663329D01*
X124627593Y-96590612D01*
X124772230Y-96485526D01*
X124790173Y-96465599D01*
X124813905Y-96439241D01*
X124891859Y-96352665D01*
X124981250Y-96197835D01*
X124981413Y-96197335D01*
X124997703Y-96147197D01*
X125036497Y-96027803D01*
X125055185Y-95850000D01*
X125036497Y-95672197D01*
X125004644Y-95574165D01*
X124981252Y-95502170D01*
X124981250Y-95502167D01*
X124981250Y-95502165D01*
X124891859Y-95347335D01*
X124824499Y-95272524D01*
X124772235Y-95214478D01*
X124772232Y-95214476D01*
X124772231Y-95214475D01*
X124772230Y-95214474D01*
X124627593Y-95109388D01*
X124464267Y-95036671D01*
X124464265Y-95036670D01*
X124336594Y-95009533D01*
X124289391Y-94999500D01*
X124110609Y-94999500D01*
X124079954Y-95006015D01*
X123935733Y-95036670D01*
X123935728Y-95036672D01*
X123772408Y-95109387D01*
X123627768Y-95214475D01*
X123508140Y-95347336D01*
X123418750Y-95502163D01*
X123418749Y-95502167D01*
X123395354Y-95574165D01*
X123365105Y-95623525D01*
X122717047Y-96271584D01*
X122717043Y-96271589D01*
X122679075Y-96328415D01*
X122679075Y-96328416D01*
X122634913Y-96394508D01*
X122578343Y-96531082D01*
X122578340Y-96531092D01*
X122549500Y-96676079D01*
X122549500Y-99937769D01*
X122529815Y-100004808D01*
X122513181Y-100025450D01*
X120730820Y-101807810D01*
X120690894Y-101832289D01*
X120691669Y-101834029D01*
X120685736Y-101836670D01*
X120685733Y-101836671D01*
X120578557Y-101884389D01*
X120522406Y-101909389D01*
X120377768Y-102014475D01*
X120258140Y-102147336D01*
X120168750Y-102302164D01*
X120168747Y-102302170D01*
X120113504Y-102472192D01*
X120113503Y-102472194D01*
X120094815Y-102650000D01*
X110569946Y-102650000D01*
X110039674Y-102119727D01*
X110039673Y-102119726D01*
X110039669Y-102119723D01*
X109933127Y-102048535D01*
X109925452Y-102045356D01*
X109814744Y-101999499D01*
X109814738Y-101999497D01*
X109689071Y-101974500D01*
X109689069Y-101974500D01*
X100216911Y-101974500D01*
X100149872Y-101954815D01*
X100144025Y-101950818D01*
X100128803Y-101939758D01*
X100052593Y-101884388D01*
X99889267Y-101811671D01*
X99889265Y-101811670D01*
X99741565Y-101780276D01*
X99714391Y-101774500D01*
X99535609Y-101774500D01*
X99508435Y-101780276D01*
X99360733Y-101811670D01*
X99360728Y-101811672D01*
X99197408Y-101884387D01*
X99052768Y-101989475D01*
X98933140Y-102122336D01*
X98843750Y-102277164D01*
X98843747Y-102277170D01*
X98788504Y-102447192D01*
X98788503Y-102447194D01*
X98769815Y-102625000D01*
X95950500Y-102625000D01*
X95950500Y-97134320D01*
X95967112Y-97072322D01*
X95981250Y-97047835D01*
X96036497Y-96877803D01*
X96055185Y-96700000D01*
X96036497Y-96522197D01*
X96000585Y-96411671D01*
X95981252Y-96352170D01*
X95981249Y-96352164D01*
X95891859Y-96197335D01*
X95845003Y-96145296D01*
X95772235Y-96064478D01*
X95772232Y-96064476D01*
X95772231Y-96064475D01*
X95772230Y-96064474D01*
X95627593Y-95959388D01*
X95464267Y-95886671D01*
X95464265Y-95886670D01*
X95336594Y-95859533D01*
X95289391Y-95849500D01*
X95110609Y-95849500D01*
X95079954Y-95856015D01*
X94935733Y-95886670D01*
X94935728Y-95886672D01*
X94772408Y-95959387D01*
X94627768Y-96064475D01*
X94508140Y-96197336D01*
X94418750Y-96352164D01*
X94418747Y-96352170D01*
X94363504Y-96522192D01*
X94363503Y-96522194D01*
X94344815Y-96700000D01*
X94363503Y-96877805D01*
X94363504Y-96877807D01*
X94418747Y-97047829D01*
X94418748Y-97047830D01*
X94418750Y-97047835D01*
X94432887Y-97072322D01*
X94449500Y-97134320D01*
X94449500Y-104072377D01*
X94432888Y-104134375D01*
X94399501Y-104192205D01*
X94393749Y-104202167D01*
X94393747Y-104202170D01*
X94338504Y-104372192D01*
X94338503Y-104372194D01*
X94319815Y-104550000D01*
X80500500Y-104550000D01*
X80500500Y-101568995D01*
X81539499Y-101568995D01*
X81566418Y-101704322D01*
X81566421Y-101704332D01*
X81619221Y-101831804D01*
X81619228Y-101831817D01*
X81695885Y-101946541D01*
X81695888Y-101946545D01*
X81793454Y-102044111D01*
X81793458Y-102044114D01*
X81908182Y-102120771D01*
X81908195Y-102120778D01*
X82035667Y-102173578D01*
X82035672Y-102173580D01*
X82035676Y-102173580D01*
X82035677Y-102173581D01*
X82171004Y-102200500D01*
X82171007Y-102200500D01*
X82308995Y-102200500D01*
X82400041Y-102182389D01*
X82444328Y-102173580D01*
X82542924Y-102132740D01*
X82571804Y-102120778D01*
X82571804Y-102120777D01*
X82571811Y-102120775D01*
X82686542Y-102044114D01*
X82784114Y-101946542D01*
X82860775Y-101831811D01*
X82913580Y-101704328D01*
X82926834Y-101637697D01*
X82940500Y-101568995D01*
X82940500Y-101431004D01*
X82913581Y-101295677D01*
X82913580Y-101295676D01*
X82913580Y-101295672D01*
X82912017Y-101291899D01*
X82860778Y-101168195D01*
X82860771Y-101168182D01*
X82784114Y-101053458D01*
X82784111Y-101053454D01*
X82686545Y-100955888D01*
X82686541Y-100955885D01*
X82571817Y-100879228D01*
X82571804Y-100879221D01*
X82444332Y-100826421D01*
X82444322Y-100826418D01*
X82308995Y-100799500D01*
X82308993Y-100799500D01*
X82171007Y-100799500D01*
X82171005Y-100799500D01*
X82035677Y-100826418D01*
X82035667Y-100826421D01*
X81908195Y-100879221D01*
X81908182Y-100879228D01*
X81793458Y-100955885D01*
X81793454Y-100955888D01*
X81695888Y-101053454D01*
X81695885Y-101053458D01*
X81619228Y-101168182D01*
X81619221Y-101168195D01*
X81566421Y-101295667D01*
X81566418Y-101295677D01*
X81539500Y-101431004D01*
X81539500Y-101431007D01*
X81539500Y-101568993D01*
X81539500Y-101568995D01*
X81539499Y-101568995D01*
X80500500Y-101568995D01*
X80500500Y-98568995D01*
X81539499Y-98568995D01*
X81566418Y-98704322D01*
X81566421Y-98704332D01*
X81619221Y-98831804D01*
X81619228Y-98831817D01*
X81695885Y-98946541D01*
X81695888Y-98946545D01*
X81793454Y-99044111D01*
X81793458Y-99044114D01*
X81908182Y-99120771D01*
X81908195Y-99120778D01*
X82035667Y-99173578D01*
X82035672Y-99173580D01*
X82035676Y-99173580D01*
X82035677Y-99173581D01*
X82171004Y-99200500D01*
X82171007Y-99200500D01*
X82308995Y-99200500D01*
X82400041Y-99182389D01*
X82444328Y-99173580D01*
X82571811Y-99120775D01*
X82686542Y-99044114D01*
X82784114Y-98946542D01*
X82860775Y-98831811D01*
X82913580Y-98704328D01*
X82940500Y-98568993D01*
X82940500Y-98431007D01*
X82940500Y-98431004D01*
X82913581Y-98295677D01*
X82913580Y-98295676D01*
X82913580Y-98295672D01*
X82868123Y-98185928D01*
X82860778Y-98168195D01*
X82860771Y-98168182D01*
X82784114Y-98053458D01*
X82784111Y-98053454D01*
X82686545Y-97955888D01*
X82686541Y-97955885D01*
X82571817Y-97879228D01*
X82571804Y-97879221D01*
X82444332Y-97826421D01*
X82444322Y-97826418D01*
X82308995Y-97799500D01*
X82308993Y-97799500D01*
X82171007Y-97799500D01*
X82171005Y-97799500D01*
X82035677Y-97826418D01*
X82035667Y-97826421D01*
X81908195Y-97879221D01*
X81908182Y-97879228D01*
X81793458Y-97955885D01*
X81793454Y-97955888D01*
X81695888Y-98053454D01*
X81695885Y-98053458D01*
X81619228Y-98168182D01*
X81619221Y-98168195D01*
X81566421Y-98295667D01*
X81566418Y-98295677D01*
X81539500Y-98431004D01*
X81539500Y-98431007D01*
X81539500Y-98568993D01*
X81539500Y-98568995D01*
X81539499Y-98568995D01*
X80500500Y-98568995D01*
X80500500Y-89003750D01*
X80500726Y-88996263D01*
X80506691Y-88897648D01*
X81699500Y-88897648D01*
X81699500Y-89102351D01*
X81731522Y-89304534D01*
X81794781Y-89499223D01*
X81858691Y-89624653D01*
X81880037Y-89666546D01*
X81887715Y-89681613D01*
X82008028Y-89847213D01*
X82152786Y-89991971D01*
X82290928Y-90092335D01*
X82318390Y-90112287D01*
X82404470Y-90156147D01*
X82500776Y-90205218D01*
X82500778Y-90205218D01*
X82500781Y-90205220D01*
X82605137Y-90239127D01*
X82695465Y-90268477D01*
X82729736Y-90273905D01*
X82897648Y-90300500D01*
X82897649Y-90300500D01*
X83102351Y-90300500D01*
X83102352Y-90300500D01*
X83304534Y-90268477D01*
X83499219Y-90205220D01*
X83681610Y-90112287D01*
X83783714Y-90038105D01*
X83847213Y-89991971D01*
X83847215Y-89991968D01*
X83847219Y-89991966D01*
X83991966Y-89847219D01*
X83991968Y-89847215D01*
X83991971Y-89847213D01*
X84109212Y-89685842D01*
X84112287Y-89681610D01*
X84205220Y-89499219D01*
X84268477Y-89304534D01*
X84300500Y-89102352D01*
X84300500Y-88897648D01*
X84268477Y-88695466D01*
X84267673Y-88692993D01*
X84205218Y-88500776D01*
X84171503Y-88434607D01*
X84112287Y-88318390D01*
X84104556Y-88307749D01*
X83991971Y-88152786D01*
X83941320Y-88102135D01*
X86549500Y-88102135D01*
X86549500Y-89897870D01*
X86549501Y-89897876D01*
X86555908Y-89957483D01*
X86606202Y-90092328D01*
X86606206Y-90092335D01*
X86692452Y-90207544D01*
X86692455Y-90207547D01*
X86807664Y-90293793D01*
X86807671Y-90293797D01*
X86942517Y-90344091D01*
X86942516Y-90344091D01*
X86949444Y-90344835D01*
X87002127Y-90350500D01*
X88797872Y-90350499D01*
X88857483Y-90344091D01*
X88992331Y-90293796D01*
X89107546Y-90207546D01*
X89193796Y-90092331D01*
X89242810Y-89960916D01*
X89284681Y-89904984D01*
X89350145Y-89880566D01*
X89418418Y-89895417D01*
X89446673Y-89916569D01*
X89568599Y-90038495D01*
X89665384Y-90106265D01*
X89762165Y-90174032D01*
X89762167Y-90174033D01*
X89762170Y-90174035D01*
X89976337Y-90273903D01*
X90204592Y-90335063D01*
X90381034Y-90350500D01*
X90439999Y-90355659D01*
X90440000Y-90355659D01*
X90440001Y-90355659D01*
X90498966Y-90350500D01*
X90675408Y-90335063D01*
X90903663Y-90273903D01*
X91117830Y-90174035D01*
X91311401Y-90038495D01*
X91478495Y-89871401D01*
X91608425Y-89685842D01*
X91663002Y-89642217D01*
X91732500Y-89635023D01*
X91794855Y-89666546D01*
X91811575Y-89685842D01*
X91941500Y-89871395D01*
X91941505Y-89871401D01*
X92108599Y-90038495D01*
X92205384Y-90106265D01*
X92302165Y-90174032D01*
X92302167Y-90174033D01*
X92302170Y-90174035D01*
X92516337Y-90273903D01*
X92744592Y-90335063D01*
X92921034Y-90350500D01*
X92979999Y-90355659D01*
X92980000Y-90355659D01*
X92980001Y-90355659D01*
X93038966Y-90350500D01*
X93215408Y-90335063D01*
X93443663Y-90273903D01*
X93657830Y-90174035D01*
X93851401Y-90038495D01*
X94018495Y-89871401D01*
X94148425Y-89685842D01*
X94203002Y-89642217D01*
X94272500Y-89635023D01*
X94334855Y-89666546D01*
X94351575Y-89685842D01*
X94481500Y-89871395D01*
X94481505Y-89871401D01*
X94648599Y-90038495D01*
X94745384Y-90106265D01*
X94842165Y-90174032D01*
X94842167Y-90174033D01*
X94842170Y-90174035D01*
X95056337Y-90273903D01*
X95284592Y-90335063D01*
X95461034Y-90350500D01*
X95519999Y-90355659D01*
X95520000Y-90355659D01*
X95520001Y-90355659D01*
X95578966Y-90350500D01*
X95755408Y-90335063D01*
X95983663Y-90273903D01*
X96197830Y-90174035D01*
X96391401Y-90038495D01*
X96558495Y-89871401D01*
X96688425Y-89685842D01*
X96743002Y-89642217D01*
X96812500Y-89635023D01*
X96874855Y-89666546D01*
X96891575Y-89685842D01*
X97021500Y-89871395D01*
X97021505Y-89871401D01*
X97188599Y-90038495D01*
X97285384Y-90106265D01*
X97382165Y-90174032D01*
X97382167Y-90174033D01*
X97382170Y-90174035D01*
X97596337Y-90273903D01*
X97824592Y-90335063D01*
X98001034Y-90350500D01*
X98059999Y-90355659D01*
X98060000Y-90355659D01*
X98060001Y-90355659D01*
X98118966Y-90350500D01*
X98295408Y-90335063D01*
X98523663Y-90273903D01*
X98737830Y-90174035D01*
X98931401Y-90038495D01*
X99098495Y-89871401D01*
X99228425Y-89685842D01*
X99283002Y-89642217D01*
X99352500Y-89635023D01*
X99414855Y-89666546D01*
X99431575Y-89685842D01*
X99561500Y-89871395D01*
X99561505Y-89871401D01*
X99728599Y-90038495D01*
X99825384Y-90106265D01*
X99922165Y-90174032D01*
X99922167Y-90174033D01*
X99922170Y-90174035D01*
X100136337Y-90273903D01*
X100364592Y-90335063D01*
X100541034Y-90350500D01*
X100599999Y-90355659D01*
X100600000Y-90355659D01*
X100600001Y-90355659D01*
X100658966Y-90350500D01*
X100835408Y-90335063D01*
X101063663Y-90273903D01*
X101277830Y-90174035D01*
X101471401Y-90038495D01*
X101638495Y-89871401D01*
X101768425Y-89685842D01*
X101823002Y-89642217D01*
X101892500Y-89635023D01*
X101954855Y-89666546D01*
X101971575Y-89685842D01*
X102101500Y-89871395D01*
X102101505Y-89871401D01*
X102268599Y-90038495D01*
X102365384Y-90106265D01*
X102462165Y-90174032D01*
X102462167Y-90174033D01*
X102462170Y-90174035D01*
X102676337Y-90273903D01*
X102904592Y-90335063D01*
X103081034Y-90350500D01*
X103139999Y-90355659D01*
X103140000Y-90355659D01*
X103140001Y-90355659D01*
X103198966Y-90350500D01*
X103375408Y-90335063D01*
X103603663Y-90273903D01*
X103817830Y-90174035D01*
X104011401Y-90038495D01*
X104178495Y-89871401D01*
X104308425Y-89685842D01*
X104363002Y-89642217D01*
X104432500Y-89635023D01*
X104494855Y-89666546D01*
X104511575Y-89685842D01*
X104641500Y-89871395D01*
X104641505Y-89871401D01*
X104808599Y-90038495D01*
X104905384Y-90106265D01*
X105002165Y-90174032D01*
X105002167Y-90174033D01*
X105002170Y-90174035D01*
X105216337Y-90273903D01*
X105444592Y-90335063D01*
X105621034Y-90350500D01*
X105679999Y-90355659D01*
X105680000Y-90355659D01*
X105680001Y-90355659D01*
X105738966Y-90350500D01*
X105915408Y-90335063D01*
X106143663Y-90273903D01*
X106357830Y-90174035D01*
X106551401Y-90038495D01*
X106718495Y-89871401D01*
X106848425Y-89685842D01*
X106903002Y-89642217D01*
X106972500Y-89635023D01*
X107034855Y-89666546D01*
X107051575Y-89685842D01*
X107181500Y-89871395D01*
X107181505Y-89871401D01*
X107348599Y-90038495D01*
X107445384Y-90106265D01*
X107542165Y-90174032D01*
X107542167Y-90174033D01*
X107542170Y-90174035D01*
X107756337Y-90273903D01*
X107984592Y-90335063D01*
X108161034Y-90350500D01*
X108219999Y-90355659D01*
X108220000Y-90355659D01*
X108220001Y-90355659D01*
X108278966Y-90350500D01*
X108455408Y-90335063D01*
X108683663Y-90273903D01*
X108897830Y-90174035D01*
X109091401Y-90038495D01*
X109258495Y-89871401D01*
X109388425Y-89685842D01*
X109443002Y-89642217D01*
X109512500Y-89635023D01*
X109574855Y-89666546D01*
X109591575Y-89685842D01*
X109721500Y-89871395D01*
X109721505Y-89871401D01*
X109888599Y-90038495D01*
X109985384Y-90106265D01*
X110082165Y-90174032D01*
X110082167Y-90174033D01*
X110082170Y-90174035D01*
X110296337Y-90273903D01*
X110524592Y-90335063D01*
X110701034Y-90350500D01*
X110759999Y-90355659D01*
X110760000Y-90355659D01*
X110760001Y-90355659D01*
X110818966Y-90350500D01*
X110995408Y-90335063D01*
X111223663Y-90273903D01*
X111437830Y-90174035D01*
X111631401Y-90038495D01*
X111798495Y-89871401D01*
X111928425Y-89685842D01*
X111983002Y-89642217D01*
X112052500Y-89635023D01*
X112114855Y-89666546D01*
X112131575Y-89685842D01*
X112261501Y-89871396D01*
X112261506Y-89871402D01*
X112428597Y-90038493D01*
X112428603Y-90038498D01*
X112596623Y-90156147D01*
X112640248Y-90210724D01*
X112649500Y-90257722D01*
X112649500Y-93331762D01*
X112629815Y-93398801D01*
X112577011Y-93444556D01*
X112551281Y-93453052D01*
X112510733Y-93461670D01*
X112510728Y-93461672D01*
X112347408Y-93534387D01*
X112202768Y-93639475D01*
X112083140Y-93772336D01*
X111993750Y-93927164D01*
X111993747Y-93927170D01*
X111938504Y-94097192D01*
X111938503Y-94097194D01*
X111919815Y-94275000D01*
X111938503Y-94452805D01*
X111938504Y-94452807D01*
X111982165Y-94587182D01*
X111984160Y-94657023D01*
X111948079Y-94716856D01*
X111885378Y-94747684D01*
X111864234Y-94749500D01*
X110731741Y-94749500D01*
X110681306Y-94738780D01*
X110564267Y-94686671D01*
X110564265Y-94686670D01*
X110422422Y-94656521D01*
X110389391Y-94649500D01*
X110210609Y-94649500D01*
X110179954Y-94656015D01*
X110035733Y-94686670D01*
X110035732Y-94686670D01*
X109924935Y-94736001D01*
X109855685Y-94745285D01*
X109792409Y-94715656D01*
X109755196Y-94656521D01*
X109750500Y-94622721D01*
X109750500Y-94596197D01*
X109770185Y-94529158D01*
X109782352Y-94513223D01*
X109791859Y-94502665D01*
X109881250Y-94347835D01*
X109936497Y-94177803D01*
X109955185Y-94000000D01*
X109936497Y-93822197D01*
X109889756Y-93678343D01*
X109881252Y-93652170D01*
X109881249Y-93652164D01*
X109873923Y-93639475D01*
X109791859Y-93497335D01*
X109744336Y-93444556D01*
X109672235Y-93364478D01*
X109672232Y-93364476D01*
X109672231Y-93364475D01*
X109672230Y-93364474D01*
X109527593Y-93259388D01*
X109364267Y-93186671D01*
X109364265Y-93186670D01*
X109236594Y-93159533D01*
X109189391Y-93149500D01*
X109010609Y-93149500D01*
X108979954Y-93156015D01*
X108835733Y-93186670D01*
X108767242Y-93217165D01*
X108697992Y-93226449D01*
X108634716Y-93196821D01*
X108613705Y-93172776D01*
X108555274Y-93085327D01*
X107764673Y-92294726D01*
X107764669Y-92294723D01*
X107658127Y-92223535D01*
X107539744Y-92174499D01*
X107539738Y-92174497D01*
X107414071Y-92149500D01*
X107414069Y-92149500D01*
X107089069Y-92149500D01*
X103707502Y-92149500D01*
X103640463Y-92129815D01*
X103634616Y-92125818D01*
X103577594Y-92084389D01*
X103577593Y-92084388D01*
X103414267Y-92011671D01*
X103414265Y-92011670D01*
X103286594Y-91984533D01*
X103239391Y-91974500D01*
X103060609Y-91974500D01*
X103029954Y-91981015D01*
X102885733Y-92011670D01*
X102885728Y-92011672D01*
X102722408Y-92084387D01*
X102577768Y-92189475D01*
X102458140Y-92322336D01*
X102368750Y-92477164D01*
X102368747Y-92477170D01*
X102313504Y-92647192D01*
X102313503Y-92647194D01*
X102294815Y-92825000D01*
X102313503Y-93002805D01*
X102313504Y-93002807D01*
X102368747Y-93172829D01*
X102368750Y-93172835D01*
X102458141Y-93327665D01*
X102491284Y-93364474D01*
X102577764Y-93460521D01*
X102577767Y-93460523D01*
X102577770Y-93460526D01*
X102722407Y-93565612D01*
X102885733Y-93638329D01*
X103060609Y-93675500D01*
X103060610Y-93675500D01*
X103239389Y-93675500D01*
X103239391Y-93675500D01*
X103414267Y-93638329D01*
X103577593Y-93565612D01*
X103671567Y-93497335D01*
X103703435Y-93474182D01*
X103769242Y-93450702D01*
X103776321Y-93450500D01*
X106960931Y-93450500D01*
X107029192Y-93450500D01*
X107096231Y-93470185D01*
X107116873Y-93486819D01*
X107363181Y-93733127D01*
X107396666Y-93794450D01*
X107399500Y-93820808D01*
X107399500Y-94528802D01*
X107379815Y-94595841D01*
X107367651Y-94611773D01*
X107358140Y-94622336D01*
X107268750Y-94777164D01*
X107268747Y-94777170D01*
X107213504Y-94947192D01*
X107213503Y-94947194D01*
X107194815Y-95125000D01*
X107213503Y-95302805D01*
X107213504Y-95302807D01*
X107268747Y-95472829D01*
X107268750Y-95472835D01*
X107358141Y-95627665D01*
X107398233Y-95672192D01*
X107477764Y-95760521D01*
X107477767Y-95760523D01*
X107477770Y-95760526D01*
X107622407Y-95865612D01*
X107785733Y-95938329D01*
X107960609Y-95975500D01*
X107960610Y-95975500D01*
X108139389Y-95975500D01*
X108139391Y-95975500D01*
X108299719Y-95941421D01*
X108369386Y-95946737D01*
X108425120Y-95988874D01*
X108449225Y-96054454D01*
X108449500Y-96062711D01*
X108449500Y-96824119D01*
X108449500Y-96824121D01*
X108449499Y-96824121D01*
X108472922Y-96941870D01*
X108474498Y-96949792D01*
X108474498Y-96949793D01*
X108523533Y-97068175D01*
X108594726Y-97174723D01*
X108594727Y-97174724D01*
X110632823Y-99212819D01*
X110666308Y-99274142D01*
X110661324Y-99343834D01*
X110619452Y-99399767D01*
X110553988Y-99424184D01*
X110545142Y-99424500D01*
X110120808Y-99424500D01*
X110053769Y-99404815D01*
X110033127Y-99388181D01*
X109689674Y-99044727D01*
X109689673Y-99044726D01*
X109689669Y-99044723D01*
X109583127Y-98973535D01*
X109517960Y-98946542D01*
X109464744Y-98924499D01*
X109464738Y-98924497D01*
X109339071Y-98899500D01*
X109339069Y-98899500D01*
X108132424Y-98899500D01*
X108065385Y-98879815D01*
X108019630Y-98827011D01*
X108009686Y-98757853D01*
X108025037Y-98713500D01*
X108030330Y-98704332D01*
X108106250Y-98572835D01*
X108161497Y-98402803D01*
X108180185Y-98225000D01*
X108161497Y-98047197D01*
X108127275Y-97941873D01*
X108106252Y-97877170D01*
X108106249Y-97877164D01*
X108083463Y-97837697D01*
X108016859Y-97722335D01*
X107970003Y-97670296D01*
X107897235Y-97589478D01*
X107897232Y-97589476D01*
X107897231Y-97589475D01*
X107897230Y-97589474D01*
X107752593Y-97484388D01*
X107589267Y-97411671D01*
X107589265Y-97411670D01*
X107461594Y-97384533D01*
X107414391Y-97374500D01*
X107235609Y-97374500D01*
X107204954Y-97381015D01*
X107060733Y-97411670D01*
X106943694Y-97463780D01*
X106893259Y-97474500D01*
X101812229Y-97474500D01*
X101745190Y-97454815D01*
X101724548Y-97438181D01*
X101461819Y-97175451D01*
X101428334Y-97114128D01*
X101425500Y-97087770D01*
X101425500Y-95219708D01*
X101396659Y-95074721D01*
X101396658Y-95074720D01*
X101396658Y-95074716D01*
X101343836Y-94947192D01*
X101340087Y-94938140D01*
X101340080Y-94938127D01*
X101257952Y-94815214D01*
X101219902Y-94777164D01*
X101153416Y-94710678D01*
X101038579Y-94595841D01*
X100684792Y-94242052D01*
X100684791Y-94242051D01*
X100639323Y-94211671D01*
X100593552Y-94181088D01*
X100561866Y-94159916D01*
X100561859Y-94159912D01*
X100425288Y-94103343D01*
X100425278Y-94103340D01*
X100280291Y-94074500D01*
X100280289Y-94074500D01*
X99469711Y-94074500D01*
X99469709Y-94074500D01*
X99324721Y-94103340D01*
X99324711Y-94103343D01*
X99188140Y-94159912D01*
X99188127Y-94159919D01*
X99110677Y-94211671D01*
X99110676Y-94211672D01*
X99065210Y-94242050D01*
X99065209Y-94242051D01*
X97356006Y-95951253D01*
X97341211Y-95963890D01*
X97202768Y-96064475D01*
X97083140Y-96197336D01*
X96993750Y-96352164D01*
X96993747Y-96352170D01*
X96938504Y-96522192D01*
X96938503Y-96522194D01*
X96919815Y-96700000D01*
X96938503Y-96877805D01*
X96938504Y-96877807D01*
X96993747Y-97047829D01*
X96993748Y-97047830D01*
X96993750Y-97047835D01*
X97083141Y-97202665D01*
X97086914Y-97206855D01*
X97202764Y-97335521D01*
X97202767Y-97335523D01*
X97202770Y-97335526D01*
X97347407Y-97440612D01*
X97510733Y-97513329D01*
X97685609Y-97550500D01*
X97685610Y-97550500D01*
X97864389Y-97550500D01*
X97864391Y-97550500D01*
X98039267Y-97513329D01*
X98202593Y-97440612D01*
X98347230Y-97335526D01*
X98466859Y-97202665D01*
X98556250Y-97047835D01*
X98611497Y-96877803D01*
X98613872Y-96855202D01*
X98640454Y-96790591D01*
X98649502Y-96780493D01*
X99012819Y-96417177D01*
X99074142Y-96383692D01*
X99143834Y-96388676D01*
X99199767Y-96430548D01*
X99224184Y-96496012D01*
X99224500Y-96504858D01*
X99224500Y-97764070D01*
X99229504Y-97789225D01*
X99238674Y-97835325D01*
X99239146Y-97837695D01*
X99239146Y-97837697D01*
X99249497Y-97889737D01*
X99249499Y-97889744D01*
X99276895Y-97955885D01*
X99298535Y-98008127D01*
X99369723Y-98114669D01*
X99369726Y-98114673D01*
X101310325Y-100055272D01*
X101310332Y-100055278D01*
X101416309Y-100126089D01*
X101416320Y-100126096D01*
X101416871Y-100126464D01*
X101416872Y-100126464D01*
X101416873Y-100126465D01*
X101535256Y-100175501D01*
X101535260Y-100175501D01*
X101535261Y-100175502D01*
X101660928Y-100200500D01*
X101660931Y-100200500D01*
X108954192Y-100200500D01*
X109021231Y-100220185D01*
X109041873Y-100236819D01*
X109385325Y-100580272D01*
X109385332Y-100580278D01*
X109462466Y-100631817D01*
X109462469Y-100631818D01*
X109472315Y-100638397D01*
X109491872Y-100651465D01*
X109538651Y-100670841D01*
X109610256Y-100700501D01*
X109610260Y-100700501D01*
X109610261Y-100700502D01*
X109735928Y-100725500D01*
X109735931Y-100725500D01*
X110833089Y-100725500D01*
X110900128Y-100745185D01*
X110905976Y-100749182D01*
X110997407Y-100815612D01*
X111160733Y-100888329D01*
X111335609Y-100925500D01*
X111335610Y-100925500D01*
X111514388Y-100925500D01*
X111514391Y-100925500D01*
X111549748Y-100917984D01*
X111619412Y-100923299D01*
X111675146Y-100965435D01*
X111682916Y-100977275D01*
X111683141Y-100977665D01*
X111802764Y-101110521D01*
X111802767Y-101110523D01*
X111802770Y-101110526D01*
X111947407Y-101215612D01*
X112110733Y-101288329D01*
X112285609Y-101325500D01*
X112285610Y-101325500D01*
X112464389Y-101325500D01*
X112464391Y-101325500D01*
X112639267Y-101288329D01*
X112802593Y-101215612D01*
X112947230Y-101110526D01*
X112959867Y-101096492D01*
X112973833Y-101080981D01*
X113066859Y-100977665D01*
X113156250Y-100822835D01*
X113211497Y-100652803D01*
X113230185Y-100475000D01*
X113211497Y-100297197D01*
X113171956Y-100175502D01*
X113156252Y-100127170D01*
X113156249Y-100127164D01*
X113066859Y-99972335D01*
X113036932Y-99939098D01*
X113007465Y-99880318D01*
X113000501Y-99845306D01*
X112951465Y-99726923D01*
X112906970Y-99660331D01*
X112880276Y-99620380D01*
X112880274Y-99620377D01*
X109786819Y-96526922D01*
X109753334Y-96465599D01*
X109750500Y-96439241D01*
X109750500Y-96377278D01*
X109770185Y-96310239D01*
X109822989Y-96264484D01*
X109892147Y-96254540D01*
X109924927Y-96263995D01*
X110035733Y-96313329D01*
X110035736Y-96313329D01*
X110035737Y-96313330D01*
X110081180Y-96322989D01*
X110210609Y-96350500D01*
X110210610Y-96350500D01*
X110389389Y-96350500D01*
X110389391Y-96350500D01*
X110564267Y-96313329D01*
X110681306Y-96261219D01*
X110731741Y-96250500D01*
X112200335Y-96250500D01*
X112267374Y-96270185D01*
X112313129Y-96322989D01*
X112323654Y-96361534D01*
X112330909Y-96430548D01*
X112338503Y-96502805D01*
X112338504Y-96502807D01*
X112393747Y-96672829D01*
X112393750Y-96672835D01*
X112483141Y-96827665D01*
X112507939Y-96855206D01*
X112602764Y-96960521D01*
X112602767Y-96960523D01*
X112602770Y-96960526D01*
X112747407Y-97065612D01*
X112910733Y-97138329D01*
X112910735Y-97138329D01*
X112910736Y-97138330D01*
X112967275Y-97150347D01*
X113075010Y-97173247D01*
X113136490Y-97206438D01*
X113136909Y-97206855D01*
X114413181Y-98483127D01*
X114446666Y-98544450D01*
X114449500Y-98570808D01*
X114449500Y-100603802D01*
X114429815Y-100670841D01*
X114417651Y-100686773D01*
X114408140Y-100697336D01*
X114318750Y-100852164D01*
X114318747Y-100852170D01*
X114263504Y-101022192D01*
X114263503Y-101022194D01*
X114244815Y-101200000D01*
X114263503Y-101377805D01*
X114263504Y-101377807D01*
X114318747Y-101547829D01*
X114318750Y-101547835D01*
X114408141Y-101702665D01*
X114427871Y-101724577D01*
X114527764Y-101835521D01*
X114527767Y-101835523D01*
X114527770Y-101835526D01*
X114672407Y-101940612D01*
X114835733Y-102013329D01*
X115010609Y-102050500D01*
X115010610Y-102050500D01*
X115189389Y-102050500D01*
X115189391Y-102050500D01*
X115364267Y-102013329D01*
X115527593Y-101940612D01*
X115672230Y-101835526D01*
X115675582Y-101831804D01*
X115730931Y-101770332D01*
X115791859Y-101702665D01*
X115881250Y-101547835D01*
X115936497Y-101377803D01*
X115955185Y-101200000D01*
X115936497Y-101022197D01*
X115896550Y-100899253D01*
X115881252Y-100852170D01*
X115881249Y-100852164D01*
X115791859Y-100697335D01*
X115782349Y-100686773D01*
X115752120Y-100623782D01*
X115750500Y-100603802D01*
X115750500Y-98185928D01*
X115725502Y-98060261D01*
X115725501Y-98060260D01*
X115725501Y-98060256D01*
X115676465Y-97941873D01*
X115641634Y-97889744D01*
X115641634Y-97889743D01*
X115605275Y-97835328D01*
X115605272Y-97835325D01*
X114053628Y-96283682D01*
X114020143Y-96222359D01*
X114017988Y-96208961D01*
X114016766Y-96197336D01*
X114011497Y-96147197D01*
X113972704Y-96027805D01*
X113956252Y-95977170D01*
X113956249Y-95977164D01*
X113955288Y-95975500D01*
X113867645Y-95823696D01*
X113851172Y-95755795D01*
X113874025Y-95689769D01*
X113887346Y-95674020D01*
X114319177Y-95242188D01*
X114359111Y-95217729D01*
X114358329Y-95215972D01*
X114364263Y-95213329D01*
X114364267Y-95213329D01*
X114481306Y-95161219D01*
X114531741Y-95150500D01*
X120837770Y-95150500D01*
X120904809Y-95170185D01*
X120925451Y-95186819D01*
X120990105Y-95251473D01*
X121020355Y-95300835D01*
X121043748Y-95372831D01*
X121043750Y-95372835D01*
X121133141Y-95527665D01*
X121174812Y-95573946D01*
X121252764Y-95660521D01*
X121252767Y-95660523D01*
X121252770Y-95660526D01*
X121397407Y-95765612D01*
X121560733Y-95838329D01*
X121735609Y-95875500D01*
X121735610Y-95875500D01*
X121914389Y-95875500D01*
X121914391Y-95875500D01*
X122089267Y-95838329D01*
X122252593Y-95765612D01*
X122397230Y-95660526D01*
X122516859Y-95527665D01*
X122606250Y-95372835D01*
X122661497Y-95202803D01*
X122680185Y-95025000D01*
X122661497Y-94847197D01*
X122625367Y-94736001D01*
X122606252Y-94677170D01*
X122606249Y-94677164D01*
X122594331Y-94656521D01*
X122516859Y-94522335D01*
X122470003Y-94470296D01*
X122397235Y-94389478D01*
X122397232Y-94389476D01*
X122397231Y-94389475D01*
X122397230Y-94389474D01*
X122252593Y-94284388D01*
X122089267Y-94211671D01*
X122089265Y-94211670D01*
X122083330Y-94209028D01*
X122084106Y-94207284D01*
X122044175Y-94182808D01*
X121678421Y-93817052D01*
X121678414Y-93817046D01*
X121599831Y-93764539D01*
X121599732Y-93764474D01*
X121555495Y-93734916D01*
X121555494Y-93734915D01*
X121555492Y-93734914D01*
X121418917Y-93678343D01*
X121418907Y-93678340D01*
X121273920Y-93649500D01*
X121273918Y-93649500D01*
X114531741Y-93649500D01*
X114481306Y-93638780D01*
X114480293Y-93638329D01*
X114364267Y-93586671D01*
X114364265Y-93586670D01*
X114236594Y-93559533D01*
X114189391Y-93549500D01*
X114074500Y-93549500D01*
X114007461Y-93529815D01*
X113961706Y-93477011D01*
X113950500Y-93425500D01*
X113950500Y-90257722D01*
X113970185Y-90190683D01*
X114003377Y-90156147D01*
X114066019Y-90112284D01*
X114171401Y-90038495D01*
X114338495Y-89871401D01*
X114468425Y-89685842D01*
X114523002Y-89642217D01*
X114592500Y-89635023D01*
X114654855Y-89666546D01*
X114671575Y-89685842D01*
X114801500Y-89871395D01*
X114801505Y-89871401D01*
X114968599Y-90038495D01*
X115065384Y-90106265D01*
X115162165Y-90174032D01*
X115162167Y-90174033D01*
X115162170Y-90174035D01*
X115376337Y-90273903D01*
X115604592Y-90335063D01*
X115781034Y-90350500D01*
X115839999Y-90355659D01*
X115840000Y-90355659D01*
X115840001Y-90355659D01*
X115898966Y-90350500D01*
X116075408Y-90335063D01*
X116303663Y-90273903D01*
X116517830Y-90174035D01*
X116711401Y-90038495D01*
X116878495Y-89871401D01*
X117008425Y-89685842D01*
X117063002Y-89642217D01*
X117132500Y-89635023D01*
X117194855Y-89666546D01*
X117211575Y-89685842D01*
X117341500Y-89871395D01*
X117341505Y-89871401D01*
X117508599Y-90038495D01*
X117605384Y-90106265D01*
X117702165Y-90174032D01*
X117702167Y-90174033D01*
X117702170Y-90174035D01*
X117916337Y-90273903D01*
X118144592Y-90335063D01*
X118321034Y-90350500D01*
X118379999Y-90355659D01*
X118380000Y-90355659D01*
X118380001Y-90355659D01*
X118438966Y-90350500D01*
X118615408Y-90335063D01*
X118843663Y-90273903D01*
X119057830Y-90174035D01*
X119251401Y-90038495D01*
X119418495Y-89871401D01*
X119548425Y-89685842D01*
X119603002Y-89642217D01*
X119672500Y-89635023D01*
X119734855Y-89666546D01*
X119751575Y-89685842D01*
X119881500Y-89871395D01*
X119881505Y-89871401D01*
X120048599Y-90038495D01*
X120145384Y-90106265D01*
X120242165Y-90174032D01*
X120242167Y-90174033D01*
X120242170Y-90174035D01*
X120456337Y-90273903D01*
X120684592Y-90335063D01*
X120861034Y-90350500D01*
X120919999Y-90355659D01*
X120920000Y-90355659D01*
X120920001Y-90355659D01*
X120978966Y-90350500D01*
X121155408Y-90335063D01*
X121383663Y-90273903D01*
X121597830Y-90174035D01*
X121791401Y-90038495D01*
X121958495Y-89871401D01*
X122088425Y-89685842D01*
X122143002Y-89642217D01*
X122212500Y-89635023D01*
X122274855Y-89666546D01*
X122291575Y-89685842D01*
X122421500Y-89871395D01*
X122421505Y-89871401D01*
X122588599Y-90038495D01*
X122685384Y-90106265D01*
X122782165Y-90174032D01*
X122782167Y-90174033D01*
X122782170Y-90174035D01*
X122996337Y-90273903D01*
X123224592Y-90335063D01*
X123401034Y-90350500D01*
X123459999Y-90355659D01*
X123460000Y-90355659D01*
X123460001Y-90355659D01*
X123518966Y-90350500D01*
X123695408Y-90335063D01*
X123923663Y-90273903D01*
X124137830Y-90174035D01*
X124331401Y-90038495D01*
X124498495Y-89871401D01*
X124628425Y-89685842D01*
X124683002Y-89642217D01*
X124752500Y-89635023D01*
X124814855Y-89666546D01*
X124831575Y-89685842D01*
X124961500Y-89871395D01*
X124961505Y-89871401D01*
X125128599Y-90038495D01*
X125225384Y-90106265D01*
X125322165Y-90174032D01*
X125322167Y-90174033D01*
X125322170Y-90174035D01*
X125536337Y-90273903D01*
X125764592Y-90335063D01*
X125941034Y-90350500D01*
X125999999Y-90355659D01*
X126000000Y-90355659D01*
X126000001Y-90355659D01*
X126058966Y-90350500D01*
X126235408Y-90335063D01*
X126463663Y-90273903D01*
X126677830Y-90174035D01*
X126871401Y-90038495D01*
X127038495Y-89871401D01*
X127168730Y-89685405D01*
X127223307Y-89641781D01*
X127292805Y-89634587D01*
X127355160Y-89666110D01*
X127371879Y-89685405D01*
X127501890Y-89871078D01*
X127668917Y-90038105D01*
X127862421Y-90173600D01*
X128076507Y-90273429D01*
X128076516Y-90273433D01*
X128290000Y-90330634D01*
X128290000Y-89433012D01*
X128347007Y-89465925D01*
X128474174Y-89500000D01*
X128605826Y-89500000D01*
X128732993Y-89465925D01*
X128790000Y-89433012D01*
X128790000Y-90330634D01*
X129003483Y-90273433D01*
X129003492Y-90273429D01*
X129217578Y-90173600D01*
X129411082Y-90038105D01*
X129578105Y-89871082D01*
X129708119Y-89685405D01*
X129762696Y-89641781D01*
X129832195Y-89634588D01*
X129894549Y-89666110D01*
X129911269Y-89685405D01*
X130041505Y-89871401D01*
X130041506Y-89871402D01*
X130208595Y-90038492D01*
X130208598Y-90038494D01*
X130208599Y-90038495D01*
X130276623Y-90086125D01*
X130320248Y-90140701D01*
X130329500Y-90187700D01*
X130329500Y-99982770D01*
X130309815Y-100049809D01*
X130293181Y-100070451D01*
X129755451Y-100608181D01*
X129694128Y-100641666D01*
X129667770Y-100644500D01*
X129226360Y-100644500D01*
X129172311Y-100647397D01*
X129172310Y-100647397D01*
X129145977Y-100650229D01*
X129145950Y-100650232D01*
X129092554Y-100658885D01*
X129092552Y-100658885D01*
X128957747Y-100709166D01*
X128896422Y-100742651D01*
X128781240Y-100828876D01*
X128781228Y-100828886D01*
X128553892Y-101056223D01*
X128553855Y-101056262D01*
X128517728Y-101096480D01*
X128517718Y-101096492D01*
X128501076Y-101117143D01*
X128469433Y-101161025D01*
X128409663Y-101291899D01*
X128389976Y-101358944D01*
X128369500Y-101501363D01*
X128369500Y-103198640D01*
X128372397Y-103252688D01*
X128372397Y-103252689D01*
X128375229Y-103279022D01*
X128375232Y-103279049D01*
X128383885Y-103332445D01*
X128383885Y-103332447D01*
X128423378Y-103438329D01*
X128434168Y-103467257D01*
X128467653Y-103528580D01*
X128553877Y-103643761D01*
X128708182Y-103798066D01*
X128741666Y-103859388D01*
X128744500Y-103885746D01*
X128744500Y-107186218D01*
X128724815Y-107253257D01*
X128721083Y-107258737D01*
X128719440Y-107261014D01*
X128719432Y-107261028D01*
X128659663Y-107391899D01*
X128639976Y-107458944D01*
X128619500Y-107601363D01*
X128619500Y-108273640D01*
X128622397Y-108327688D01*
X128622397Y-108327689D01*
X128625229Y-108354022D01*
X128625232Y-108354049D01*
X128633885Y-108407445D01*
X128633885Y-108407447D01*
X128670456Y-108505495D01*
X128684168Y-108542257D01*
X128684169Y-108542258D01*
X128712577Y-108594285D01*
X128717653Y-108603580D01*
X128803877Y-108718761D01*
X128803881Y-108718765D01*
X128803886Y-108718771D01*
X128958393Y-108873277D01*
X129056239Y-108971123D01*
X129056255Y-108971137D01*
X129056262Y-108971144D01*
X129096480Y-109007271D01*
X129096492Y-109007281D01*
X129096500Y-109007288D01*
X129117142Y-109023922D01*
X129161026Y-109055567D01*
X129291903Y-109115338D01*
X129358942Y-109135023D01*
X129358946Y-109135024D01*
X129501362Y-109155500D01*
X129501365Y-109155500D01*
X130298640Y-109155500D01*
X130308786Y-109154955D01*
X130352678Y-109152603D01*
X130352686Y-109152602D01*
X130352688Y-109152602D01*
X130352689Y-109152602D01*
X130359682Y-109151849D01*
X130379036Y-109149769D01*
X130379046Y-109149767D01*
X130379049Y-109149767D01*
X130388648Y-109148211D01*
X130432448Y-109141114D01*
X130567257Y-109090832D01*
X130628580Y-109057347D01*
X130743761Y-108971123D01*
X131321123Y-108393761D01*
X131357288Y-108353500D01*
X131373922Y-108332858D01*
X131405567Y-108288974D01*
X131465338Y-108158097D01*
X131485023Y-108091058D01*
X131485024Y-108091054D01*
X131505500Y-107948638D01*
X131505500Y-106851362D01*
X131502603Y-106797322D01*
X131499769Y-106770964D01*
X131491114Y-106717552D01*
X131440832Y-106582743D01*
X131407347Y-106521420D01*
X131321123Y-106406239D01*
X131321118Y-106406234D01*
X131321113Y-106406228D01*
X130891819Y-105976934D01*
X130858334Y-105915611D01*
X130855500Y-105889253D01*
X130855500Y-102183551D01*
X131644500Y-102183551D01*
X131644500Y-102376448D01*
X131674675Y-102566969D01*
X131674676Y-102566972D01*
X131734285Y-102750429D01*
X131821859Y-102922302D01*
X131935241Y-103078359D01*
X132071641Y-103214759D01*
X132227698Y-103328141D01*
X132399571Y-103415715D01*
X132583028Y-103475324D01*
X132773551Y-103505500D01*
X133177942Y-103505500D01*
X133244981Y-103525185D01*
X133290736Y-103577989D01*
X133301263Y-103616539D01*
X133309325Y-103693254D01*
X133367818Y-103873277D01*
X133367821Y-103873284D01*
X133462467Y-104037216D01*
X133549951Y-104134376D01*
X133589129Y-104177888D01*
X133742265Y-104289148D01*
X133742270Y-104289151D01*
X133915192Y-104366142D01*
X133915197Y-104366144D01*
X134100354Y-104405500D01*
X134100355Y-104405500D01*
X134289644Y-104405500D01*
X134289646Y-104405500D01*
X134474803Y-104366144D01*
X134647730Y-104289151D01*
X134800871Y-104177888D01*
X134927533Y-104037216D01*
X135022179Y-103873284D01*
X135080674Y-103693256D01*
X135100460Y-103505000D01*
X135080674Y-103316744D01*
X135022179Y-103136716D01*
X134927533Y-102972784D01*
X134800871Y-102832112D01*
X134800870Y-102832111D01*
X134653949Y-102725367D01*
X134611283Y-102670037D01*
X134605304Y-102600424D01*
X134608900Y-102586739D01*
X134615324Y-102566972D01*
X134645500Y-102376449D01*
X134645500Y-102183551D01*
X134615324Y-101993028D01*
X134555715Y-101809571D01*
X134468141Y-101637698D01*
X134354759Y-101481641D01*
X134218359Y-101345241D01*
X134062302Y-101231859D01*
X133890429Y-101144285D01*
X133706972Y-101084676D01*
X133706970Y-101084675D01*
X133706969Y-101084675D01*
X133560614Y-101061495D01*
X133516449Y-101054500D01*
X132773551Y-101054500D01*
X132737697Y-101060178D01*
X132583030Y-101084675D01*
X132399568Y-101144286D01*
X132227697Y-101231859D01*
X132149974Y-101288329D01*
X132071641Y-101345241D01*
X132071639Y-101345243D01*
X132071638Y-101345243D01*
X131935243Y-101481638D01*
X131935243Y-101481639D01*
X131935241Y-101481641D01*
X131887153Y-101547829D01*
X131821859Y-101637697D01*
X131734286Y-101809568D01*
X131674675Y-101993030D01*
X131644500Y-102183551D01*
X130855500Y-102183551D01*
X130855500Y-101682229D01*
X130875185Y-101615190D01*
X130891819Y-101594548D01*
X131662948Y-100823419D01*
X131662951Y-100823416D01*
X131745084Y-100700495D01*
X131746393Y-100697336D01*
X131776859Y-100623782D01*
X131801658Y-100563913D01*
X131830500Y-100418918D01*
X131830500Y-100271083D01*
X131830500Y-90187700D01*
X131850185Y-90120661D01*
X131883375Y-90086126D01*
X131951401Y-90038495D01*
X132118495Y-89871401D01*
X132254035Y-89677830D01*
X132353903Y-89463663D01*
X132415063Y-89235408D01*
X132435659Y-89000000D01*
X132426704Y-88897648D01*
X134699500Y-88897648D01*
X134699500Y-89102351D01*
X134731522Y-89304534D01*
X134794781Y-89499223D01*
X134858691Y-89624653D01*
X134880037Y-89666546D01*
X134887715Y-89681613D01*
X135008028Y-89847213D01*
X135152786Y-89991971D01*
X135290928Y-90092335D01*
X135318390Y-90112287D01*
X135404470Y-90156147D01*
X135500776Y-90205218D01*
X135500778Y-90205218D01*
X135500781Y-90205220D01*
X135605137Y-90239127D01*
X135695465Y-90268477D01*
X135729736Y-90273905D01*
X135897648Y-90300500D01*
X135897649Y-90300500D01*
X136102351Y-90300500D01*
X136102352Y-90300500D01*
X136304534Y-90268477D01*
X136499219Y-90205220D01*
X136681610Y-90112287D01*
X136783714Y-90038105D01*
X136847213Y-89991971D01*
X136847215Y-89991968D01*
X136847219Y-89991966D01*
X136991966Y-89847219D01*
X136991968Y-89847215D01*
X136991971Y-89847213D01*
X137109212Y-89685842D01*
X137112287Y-89681610D01*
X137205220Y-89499219D01*
X137268477Y-89304534D01*
X137300500Y-89102352D01*
X137300500Y-88897648D01*
X137268477Y-88695466D01*
X137267673Y-88692993D01*
X137205218Y-88500776D01*
X137171503Y-88434607D01*
X137112287Y-88318390D01*
X137104556Y-88307749D01*
X136991971Y-88152786D01*
X136847213Y-88008028D01*
X136681613Y-87887715D01*
X136681612Y-87887714D01*
X136681610Y-87887713D01*
X136624653Y-87858691D01*
X136499223Y-87794781D01*
X136304534Y-87731522D01*
X136129995Y-87703878D01*
X136102352Y-87699500D01*
X135897648Y-87699500D01*
X135873329Y-87703351D01*
X135695465Y-87731522D01*
X135500776Y-87794781D01*
X135318386Y-87887715D01*
X135152786Y-88008028D01*
X135008028Y-88152786D01*
X134887715Y-88318386D01*
X134794781Y-88500776D01*
X134731522Y-88695465D01*
X134699500Y-88897648D01*
X132426704Y-88897648D01*
X132415063Y-88764592D01*
X132353903Y-88536337D01*
X132254035Y-88322171D01*
X132248731Y-88314595D01*
X132118494Y-88128597D01*
X131951402Y-87961506D01*
X131951395Y-87961501D01*
X131757834Y-87825967D01*
X131757830Y-87825965D01*
X131690956Y-87794781D01*
X131543663Y-87726097D01*
X131543659Y-87726096D01*
X131543655Y-87726094D01*
X131315413Y-87664938D01*
X131315403Y-87664936D01*
X131080001Y-87644341D01*
X131079999Y-87644341D01*
X130844596Y-87664936D01*
X130844586Y-87664938D01*
X130616344Y-87726094D01*
X130616335Y-87726098D01*
X130402171Y-87825964D01*
X130402169Y-87825965D01*
X130208597Y-87961505D01*
X130041508Y-88128594D01*
X129911269Y-88314595D01*
X129856692Y-88358219D01*
X129787193Y-88365412D01*
X129724839Y-88333890D01*
X129708119Y-88314594D01*
X129578113Y-88128926D01*
X129578108Y-88128920D01*
X129411082Y-87961894D01*
X129217578Y-87826399D01*
X129003492Y-87726570D01*
X129003486Y-87726567D01*
X128790000Y-87669364D01*
X128790000Y-88566988D01*
X128732993Y-88534075D01*
X128605826Y-88500000D01*
X128474174Y-88500000D01*
X128347007Y-88534075D01*
X128290000Y-88566988D01*
X128290000Y-87669364D01*
X128289999Y-87669364D01*
X128076513Y-87726567D01*
X128076507Y-87726570D01*
X127862422Y-87826399D01*
X127862420Y-87826400D01*
X127668926Y-87961886D01*
X127668920Y-87961891D01*
X127501891Y-88128920D01*
X127501890Y-88128922D01*
X127371880Y-88314595D01*
X127317303Y-88358219D01*
X127247804Y-88365412D01*
X127185450Y-88333890D01*
X127168730Y-88314594D01*
X127038494Y-88128597D01*
X126871402Y-87961506D01*
X126871395Y-87961501D01*
X126677834Y-87825967D01*
X126677830Y-87825965D01*
X126610956Y-87794781D01*
X126463663Y-87726097D01*
X126463659Y-87726096D01*
X126463655Y-87726094D01*
X126235413Y-87664938D01*
X126235403Y-87664936D01*
X126000001Y-87644341D01*
X125999999Y-87644341D01*
X125764596Y-87664936D01*
X125764586Y-87664938D01*
X125536344Y-87726094D01*
X125536335Y-87726098D01*
X125322171Y-87825964D01*
X125322169Y-87825965D01*
X125128597Y-87961505D01*
X124961505Y-88128597D01*
X124831575Y-88314158D01*
X124776998Y-88357783D01*
X124707500Y-88364977D01*
X124645145Y-88333454D01*
X124628425Y-88314158D01*
X124498494Y-88128597D01*
X124331402Y-87961506D01*
X124331395Y-87961501D01*
X124137834Y-87825967D01*
X124137830Y-87825965D01*
X124070956Y-87794781D01*
X123923663Y-87726097D01*
X123923659Y-87726096D01*
X123923655Y-87726094D01*
X123695413Y-87664938D01*
X123695403Y-87664936D01*
X123460001Y-87644341D01*
X123459999Y-87644341D01*
X123224596Y-87664936D01*
X123224586Y-87664938D01*
X122996344Y-87726094D01*
X122996335Y-87726098D01*
X122782171Y-87825964D01*
X122782169Y-87825965D01*
X122588597Y-87961505D01*
X122421505Y-88128597D01*
X122291575Y-88314158D01*
X122236998Y-88357783D01*
X122167500Y-88364977D01*
X122105145Y-88333454D01*
X122088425Y-88314158D01*
X121958494Y-88128597D01*
X121791402Y-87961506D01*
X121791395Y-87961501D01*
X121597834Y-87825967D01*
X121597830Y-87825965D01*
X121530956Y-87794781D01*
X121383663Y-87726097D01*
X121383659Y-87726096D01*
X121383655Y-87726094D01*
X121155413Y-87664938D01*
X121155403Y-87664936D01*
X120920001Y-87644341D01*
X120919999Y-87644341D01*
X120684596Y-87664936D01*
X120684586Y-87664938D01*
X120456344Y-87726094D01*
X120456335Y-87726098D01*
X120242171Y-87825964D01*
X120242169Y-87825965D01*
X120048597Y-87961505D01*
X119881505Y-88128597D01*
X119751575Y-88314158D01*
X119696998Y-88357783D01*
X119627500Y-88364977D01*
X119565145Y-88333454D01*
X119548425Y-88314158D01*
X119418494Y-88128597D01*
X119251402Y-87961506D01*
X119251395Y-87961501D01*
X119057834Y-87825967D01*
X119057830Y-87825965D01*
X118990956Y-87794781D01*
X118843663Y-87726097D01*
X118843659Y-87726096D01*
X118843655Y-87726094D01*
X118615413Y-87664938D01*
X118615403Y-87664936D01*
X118380001Y-87644341D01*
X118379999Y-87644341D01*
X118144596Y-87664936D01*
X118144586Y-87664938D01*
X117916344Y-87726094D01*
X117916335Y-87726098D01*
X117702171Y-87825964D01*
X117702169Y-87825965D01*
X117508597Y-87961505D01*
X117341505Y-88128597D01*
X117211575Y-88314158D01*
X117156998Y-88357783D01*
X117087500Y-88364977D01*
X117025145Y-88333454D01*
X117008425Y-88314158D01*
X116878494Y-88128597D01*
X116711402Y-87961506D01*
X116711395Y-87961501D01*
X116517834Y-87825967D01*
X116517830Y-87825965D01*
X116450956Y-87794781D01*
X116303663Y-87726097D01*
X116303659Y-87726096D01*
X116303655Y-87726094D01*
X116075413Y-87664938D01*
X116075403Y-87664936D01*
X115840001Y-87644341D01*
X115839999Y-87644341D01*
X115604596Y-87664936D01*
X115604586Y-87664938D01*
X115376344Y-87726094D01*
X115376335Y-87726098D01*
X115162171Y-87825964D01*
X115162169Y-87825965D01*
X114968597Y-87961505D01*
X114801505Y-88128597D01*
X114671575Y-88314158D01*
X114616998Y-88357783D01*
X114547500Y-88364977D01*
X114485145Y-88333454D01*
X114468425Y-88314158D01*
X114338494Y-88128597D01*
X114171402Y-87961506D01*
X114171395Y-87961501D01*
X113977834Y-87825967D01*
X113977830Y-87825965D01*
X113910956Y-87794781D01*
X113763663Y-87726097D01*
X113763659Y-87726096D01*
X113763655Y-87726094D01*
X113535413Y-87664938D01*
X113535403Y-87664936D01*
X113300001Y-87644341D01*
X113299999Y-87644341D01*
X113064596Y-87664936D01*
X113064586Y-87664938D01*
X112836344Y-87726094D01*
X112836335Y-87726098D01*
X112622171Y-87825964D01*
X112622169Y-87825965D01*
X112428597Y-87961505D01*
X112261505Y-88128597D01*
X112131575Y-88314158D01*
X112076998Y-88357783D01*
X112007500Y-88364977D01*
X111945145Y-88333454D01*
X111928425Y-88314158D01*
X111798494Y-88128597D01*
X111631402Y-87961506D01*
X111631395Y-87961501D01*
X111437834Y-87825967D01*
X111437830Y-87825965D01*
X111370956Y-87794781D01*
X111223663Y-87726097D01*
X111223659Y-87726096D01*
X111223655Y-87726094D01*
X110995413Y-87664938D01*
X110995403Y-87664936D01*
X110760001Y-87644341D01*
X110759999Y-87644341D01*
X110524596Y-87664936D01*
X110524586Y-87664938D01*
X110296344Y-87726094D01*
X110296335Y-87726098D01*
X110082171Y-87825964D01*
X110082169Y-87825965D01*
X109888597Y-87961505D01*
X109721505Y-88128597D01*
X109591575Y-88314158D01*
X109536998Y-88357783D01*
X109467500Y-88364977D01*
X109405145Y-88333454D01*
X109388425Y-88314158D01*
X109258494Y-88128597D01*
X109091402Y-87961506D01*
X109091395Y-87961501D01*
X108897834Y-87825967D01*
X108897830Y-87825965D01*
X108830956Y-87794781D01*
X108683663Y-87726097D01*
X108683659Y-87726096D01*
X108683655Y-87726094D01*
X108455413Y-87664938D01*
X108455403Y-87664936D01*
X108220001Y-87644341D01*
X108219999Y-87644341D01*
X107984596Y-87664936D01*
X107984586Y-87664938D01*
X107756344Y-87726094D01*
X107756335Y-87726098D01*
X107542171Y-87825964D01*
X107542169Y-87825965D01*
X107348597Y-87961505D01*
X107181505Y-88128597D01*
X107051575Y-88314158D01*
X106996998Y-88357783D01*
X106927500Y-88364977D01*
X106865145Y-88333454D01*
X106848425Y-88314158D01*
X106718494Y-88128597D01*
X106551402Y-87961506D01*
X106551395Y-87961501D01*
X106357834Y-87825967D01*
X106357830Y-87825965D01*
X106290956Y-87794781D01*
X106143663Y-87726097D01*
X106143659Y-87726096D01*
X106143655Y-87726094D01*
X105915413Y-87664938D01*
X105915403Y-87664936D01*
X105680001Y-87644341D01*
X105679999Y-87644341D01*
X105444596Y-87664936D01*
X105444586Y-87664938D01*
X105216344Y-87726094D01*
X105216335Y-87726098D01*
X105002171Y-87825964D01*
X105002169Y-87825965D01*
X104808597Y-87961505D01*
X104641505Y-88128597D01*
X104511575Y-88314158D01*
X104456998Y-88357783D01*
X104387500Y-88364977D01*
X104325145Y-88333454D01*
X104308425Y-88314158D01*
X104178494Y-88128597D01*
X104011402Y-87961506D01*
X104011395Y-87961501D01*
X103817834Y-87825967D01*
X103817830Y-87825965D01*
X103750956Y-87794781D01*
X103603663Y-87726097D01*
X103603659Y-87726096D01*
X103603655Y-87726094D01*
X103375413Y-87664938D01*
X103375403Y-87664936D01*
X103140001Y-87644341D01*
X103139999Y-87644341D01*
X102904596Y-87664936D01*
X102904586Y-87664938D01*
X102676344Y-87726094D01*
X102676335Y-87726098D01*
X102462171Y-87825964D01*
X102462169Y-87825965D01*
X102268597Y-87961505D01*
X102101505Y-88128597D01*
X101971575Y-88314158D01*
X101916998Y-88357783D01*
X101847500Y-88364977D01*
X101785145Y-88333454D01*
X101768425Y-88314158D01*
X101638494Y-88128597D01*
X101471402Y-87961506D01*
X101471395Y-87961501D01*
X101277834Y-87825967D01*
X101277830Y-87825965D01*
X101210956Y-87794781D01*
X101063663Y-87726097D01*
X101063659Y-87726096D01*
X101063655Y-87726094D01*
X100835413Y-87664938D01*
X100835403Y-87664936D01*
X100600001Y-87644341D01*
X100599999Y-87644341D01*
X100364596Y-87664936D01*
X100364586Y-87664938D01*
X100136344Y-87726094D01*
X100136335Y-87726098D01*
X99922171Y-87825964D01*
X99922169Y-87825965D01*
X99728597Y-87961505D01*
X99561505Y-88128597D01*
X99431575Y-88314158D01*
X99376998Y-88357783D01*
X99307500Y-88364977D01*
X99245145Y-88333454D01*
X99228425Y-88314158D01*
X99098494Y-88128597D01*
X98931402Y-87961506D01*
X98931395Y-87961501D01*
X98737834Y-87825967D01*
X98737830Y-87825965D01*
X98670956Y-87794781D01*
X98523663Y-87726097D01*
X98523659Y-87726096D01*
X98523655Y-87726094D01*
X98295413Y-87664938D01*
X98295403Y-87664936D01*
X98060001Y-87644341D01*
X98059999Y-87644341D01*
X97824596Y-87664936D01*
X97824586Y-87664938D01*
X97596344Y-87726094D01*
X97596335Y-87726098D01*
X97382171Y-87825964D01*
X97382169Y-87825965D01*
X97188597Y-87961505D01*
X97021505Y-88128597D01*
X96891575Y-88314158D01*
X96836998Y-88357783D01*
X96767500Y-88364977D01*
X96705145Y-88333454D01*
X96688425Y-88314158D01*
X96558494Y-88128597D01*
X96391402Y-87961506D01*
X96391395Y-87961501D01*
X96197834Y-87825967D01*
X96197830Y-87825965D01*
X96130956Y-87794781D01*
X95983663Y-87726097D01*
X95983659Y-87726096D01*
X95983655Y-87726094D01*
X95755413Y-87664938D01*
X95755403Y-87664936D01*
X95520001Y-87644341D01*
X95519999Y-87644341D01*
X95284596Y-87664936D01*
X95284586Y-87664938D01*
X95056344Y-87726094D01*
X95056335Y-87726098D01*
X94842171Y-87825964D01*
X94842169Y-87825965D01*
X94648597Y-87961505D01*
X94481505Y-88128597D01*
X94351575Y-88314158D01*
X94296998Y-88357783D01*
X94227500Y-88364977D01*
X94165145Y-88333454D01*
X94148425Y-88314158D01*
X94018494Y-88128597D01*
X93851402Y-87961506D01*
X93851395Y-87961501D01*
X93657834Y-87825967D01*
X93657830Y-87825965D01*
X93590956Y-87794781D01*
X93443663Y-87726097D01*
X93443659Y-87726096D01*
X93443655Y-87726094D01*
X93215413Y-87664938D01*
X93215403Y-87664936D01*
X92980001Y-87644341D01*
X92979999Y-87644341D01*
X92744596Y-87664936D01*
X92744586Y-87664938D01*
X92516344Y-87726094D01*
X92516335Y-87726098D01*
X92302171Y-87825964D01*
X92302169Y-87825965D01*
X92108597Y-87961505D01*
X91941505Y-88128597D01*
X91811575Y-88314158D01*
X91756998Y-88357783D01*
X91687500Y-88364977D01*
X91625145Y-88333454D01*
X91608425Y-88314158D01*
X91478494Y-88128597D01*
X91311402Y-87961506D01*
X91311395Y-87961501D01*
X91117834Y-87825967D01*
X91117830Y-87825965D01*
X91050956Y-87794781D01*
X90903663Y-87726097D01*
X90903659Y-87726096D01*
X90903655Y-87726094D01*
X90675413Y-87664938D01*
X90675403Y-87664936D01*
X90440001Y-87644341D01*
X90439999Y-87644341D01*
X90204596Y-87664936D01*
X90204586Y-87664938D01*
X89976344Y-87726094D01*
X89976335Y-87726098D01*
X89762171Y-87825964D01*
X89762169Y-87825965D01*
X89568600Y-87961503D01*
X89446673Y-88083430D01*
X89385350Y-88116914D01*
X89315658Y-88111930D01*
X89259725Y-88070058D01*
X89242810Y-88039081D01*
X89193797Y-87907671D01*
X89193793Y-87907664D01*
X89107547Y-87792455D01*
X89107544Y-87792452D01*
X88992335Y-87706206D01*
X88992328Y-87706202D01*
X88857482Y-87655908D01*
X88857483Y-87655908D01*
X88797883Y-87649501D01*
X88797881Y-87649500D01*
X88797873Y-87649500D01*
X88797864Y-87649500D01*
X87002129Y-87649500D01*
X87002123Y-87649501D01*
X86942516Y-87655908D01*
X86807671Y-87706202D01*
X86807664Y-87706206D01*
X86692455Y-87792452D01*
X86692452Y-87792455D01*
X86606206Y-87907664D01*
X86606202Y-87907671D01*
X86555908Y-88042517D01*
X86549501Y-88102116D01*
X86549500Y-88102135D01*
X83941320Y-88102135D01*
X83847213Y-88008028D01*
X83681613Y-87887715D01*
X83681612Y-87887714D01*
X83681610Y-87887713D01*
X83624653Y-87858691D01*
X83499223Y-87794781D01*
X83304534Y-87731522D01*
X83129995Y-87703878D01*
X83102352Y-87699500D01*
X82897648Y-87699500D01*
X82873329Y-87703351D01*
X82695465Y-87731522D01*
X82500776Y-87794781D01*
X82318386Y-87887715D01*
X82152786Y-88008028D01*
X82008028Y-88152786D01*
X81887715Y-88318386D01*
X81794781Y-88500776D01*
X81731522Y-88695465D01*
X81699500Y-88897648D01*
X80506691Y-88897648D01*
X80518271Y-88706205D01*
X80520076Y-88691340D01*
X80548482Y-88536337D01*
X80571780Y-88409197D01*
X80575364Y-88394663D01*
X80584615Y-88364977D01*
X80660696Y-88120822D01*
X80665998Y-88106841D01*
X80783731Y-87845249D01*
X80790676Y-87832016D01*
X80939080Y-87586526D01*
X80947567Y-87574230D01*
X81124480Y-87348417D01*
X81134395Y-87337226D01*
X81337226Y-87134395D01*
X81348417Y-87124480D01*
X81574230Y-86947567D01*
X81586526Y-86939080D01*
X81832016Y-86790676D01*
X81845249Y-86783731D01*
X82106841Y-86665998D01*
X82120822Y-86660696D01*
X82394668Y-86575362D01*
X82409197Y-86571780D01*
X82691344Y-86520075D01*
X82706201Y-86518271D01*
X82996264Y-86500726D01*
X83003751Y-86500500D01*
X83065892Y-86500500D01*
X135934108Y-86500500D01*
X135996249Y-86500500D01*
X136003736Y-86500726D01*
G37*
%TD.AperFunction*%
%TD*%
%TA.AperFunction,Conductor*%
%TO.N,VBUS*%
G36*
X130293039Y-101169685D02*
G01*
X130338794Y-101222489D01*
X130350000Y-101274000D01*
X130350000Y-106150000D01*
X130963681Y-106763681D01*
X130997166Y-106825004D01*
X131000000Y-106851362D01*
X131000000Y-107948638D01*
X130980315Y-108015677D01*
X130963681Y-108036319D01*
X130386319Y-108613681D01*
X130324996Y-108647166D01*
X130298638Y-108650000D01*
X129501362Y-108650000D01*
X129434323Y-108630315D01*
X129413681Y-108613681D01*
X129161319Y-108361319D01*
X129127834Y-108299996D01*
X129125000Y-108273638D01*
X129125000Y-107601362D01*
X129144685Y-107534323D01*
X129161319Y-107513681D01*
X129250000Y-107425000D01*
X129250000Y-103625000D01*
X128911319Y-103286319D01*
X128877834Y-103224996D01*
X128875000Y-103198638D01*
X128875000Y-101501362D01*
X128894685Y-101434323D01*
X128911319Y-101413681D01*
X129138681Y-101186319D01*
X129200004Y-101152834D01*
X129226362Y-101150000D01*
X130226000Y-101150000D01*
X130293039Y-101169685D01*
G37*
%TD.AperFunction*%
%TD*%
M02*
