%TF.GenerationSoftware,KiCad,Pcbnew,8.0.8*%
%TF.CreationDate,2025-03-25T21:44:27+01:00*%
%TF.ProjectId,stm32_red_pill,73746d33-325f-4726-9564-5f70696c6c2e,rev?*%
%TF.SameCoordinates,Original*%
%TF.FileFunction,Soldermask,Bot*%
%TF.FilePolarity,Negative*%
%FSLAX46Y46*%
G04 Gerber Fmt 4.6, Leading zero omitted, Abs format (unit mm)*
G04 Created by KiCad (PCBNEW 8.0.8) date 2025-03-25 21:44:27*
%MOMM*%
%LPD*%
G01*
G04 APERTURE LIST*
%ADD10C,2.100000*%
%ADD11O,1.700000X1.700000*%
%ADD12R,1.700000X1.700000*%
%ADD13O,0.800000X0.800000*%
%ADD14O,1.800000X1.150000*%
%ADD15O,2.000000X1.450000*%
%ADD16C,0.900000*%
G04 APERTURE END LIST*
D10*
%TO.C,H4*%
X83000000Y-114000000D03*
%TD*%
D11*
%TO.C,J2*%
X131080000Y-89000000D03*
X128540000Y-89000000D03*
X126000000Y-89000000D03*
X123460000Y-89000000D03*
X120920000Y-89000000D03*
X118380000Y-89000000D03*
X115840000Y-89000000D03*
X113300000Y-89000000D03*
X110760000Y-89000000D03*
X108220000Y-89000000D03*
X105680000Y-89000000D03*
X103140000Y-89000000D03*
X100600000Y-89000000D03*
X98060000Y-89000000D03*
X95520000Y-89000000D03*
X92980000Y-89000000D03*
X90440000Y-89000000D03*
D12*
X87900000Y-89000000D03*
%TD*%
D10*
%TO.C,H3*%
X136000000Y-114000000D03*
%TD*%
D13*
%TO.C,J1*%
X134195000Y-108505000D03*
X134195000Y-103505000D03*
D14*
X136945000Y-109880000D03*
D15*
X133145000Y-109730000D03*
X133145000Y-102280000D03*
D14*
X136945000Y-102130000D03*
%TD*%
D10*
%TO.C,H1*%
X83000000Y-89000000D03*
%TD*%
%TO.C,H2*%
X136000000Y-89000000D03*
%TD*%
D12*
%TO.C,J3*%
X87900000Y-114000000D03*
D11*
X90440000Y-114000000D03*
X92980000Y-114000000D03*
X95520000Y-114000000D03*
X98060000Y-114000000D03*
X100600000Y-114000000D03*
X103140000Y-114000000D03*
X105680000Y-114000000D03*
X108220000Y-114000000D03*
X110760000Y-114000000D03*
X113300000Y-114000000D03*
X115840000Y-114000000D03*
X118380000Y-114000000D03*
X120920000Y-114000000D03*
X123460000Y-114000000D03*
X126000000Y-114000000D03*
X128540000Y-114000000D03*
X131080000Y-114000000D03*
%TD*%
D16*
%TO.C,SW1*%
X82240000Y-98500000D03*
X82240000Y-101500000D03*
%TD*%
M02*
