M48
; DRILL file {KiCad 8.0.8} date 2025-03-25T21:44:18+0100
; FORMAT={-:-/ absolute / inch / decimal}
; #@! TF.CreationDate,2025-03-25T21:44:18+01:00
; #@! TF.GenerationSoftware,Kicad,Pcbnew,8.0.8
; #@! TF.FileFunction,MixedPlating,1,2
FMAT,2
INCH
; #@! TA.AperFunction,Plated,PTH,ViaDrill
T1C0.0118
; #@! TA.AperFunction,Plated,PTH,ComponentDrill
T2C0.0217
; #@! TA.AperFunction,Plated,PTH,ComponentDrill
T3C0.0335
; #@! TA.AperFunction,Plated,PTH,ComponentDrill
T4C0.0394
; #@! TA.AperFunction,NonPlated,NPTH,ComponentDrill
T5C0.0315
; #@! TA.AperFunction,NonPlated,NPTH,ComponentDrill
T6C0.0354
; #@! TA.AperFunction,NonPlated,NPTH,ComponentDrill
T7C0.0827
%
G90
G05
T1
X3.3898Y-3.8465
X3.747Y-4.1161
X3.748Y-3.8071
X3.8494Y-3.8071
X3.9222Y-4.0404
X3.9291Y-4.1752
X3.9321Y-3.7648
X3.9547Y-3.6683
X4.061Y-3.6545
X4.1112Y-4.1368
X4.1457Y-4.0866
X4.2087Y-3.7283
X4.2087Y-3.8071
X4.2254Y-3.8671
X4.2539Y-3.7451
X4.2953Y-3.7008
X4.3356Y-3.9882
X4.3425Y-3.7598
X4.3524Y-4.0768
X4.3642Y-3.7116
X4.3681Y-4.3524
X4.3868Y-3.94
X4.4242Y-3.9557
X4.4331Y-4.1654
X4.44Y-3.7116
X4.4528Y-3.8937
X4.4557Y-3.7923
X4.4921Y-3.7165
X4.5315Y-3.9843
X4.5374Y-4.0778
X4.5787Y-4.0433
X4.7618Y-4.0413
X4.7756Y-3.9094
X4.7963Y-3.7411
X4.8071Y-3.9094
X4.8159Y-4.1407
X4.8661Y-4.2283
X4.8898Y-3.7736
X4.9016Y-3.8425
X4.9055Y-4.0
X4.9055Y-4.0433
X4.9331Y-3.8425
X4.9911Y-4.1378
X4.9921Y-3.8278
X5.0935Y-3.7411
X5.1004Y-4.0433
X5.1073Y-4.0039
X5.1083Y-4.252
X5.1378Y-4.2293
X5.3406Y-4.1565
T4
X3.4606Y-3.5039
X3.4606Y-4.4882
X3.5606Y-3.5039
X3.5606Y-4.4882
X3.6606Y-3.5039
X3.6606Y-4.4882
X3.7606Y-3.5039
X3.7606Y-4.4882
X3.8606Y-3.5039
X3.8606Y-4.4882
X3.9606Y-3.5039
X3.9606Y-4.4882
X4.0606Y-3.5039
X4.0606Y-4.4882
X4.1606Y-3.5039
X4.1606Y-4.4882
X4.2606Y-3.5039
X4.2606Y-4.4882
X4.3606Y-3.5039
X4.3606Y-4.4882
X4.4606Y-3.5039
X4.4606Y-4.4882
X4.5606Y-3.5039
X4.5606Y-4.4882
X4.6606Y-3.5039
X4.6606Y-4.4882
X4.7606Y-3.5039
X4.7606Y-4.4882
X4.8606Y-3.5039
X4.8606Y-4.4882
X4.9606Y-3.5039
X4.9606Y-4.4882
X5.0606Y-3.5039
X5.0606Y-4.4882
X5.1606Y-3.5039
X5.1606Y-4.4882
T5
X5.2833Y-4.075
X5.2833Y-4.2719
T6
X3.2378Y-3.878
X3.2378Y-3.9961
T7
X3.2677Y-3.5039
X3.2677Y-4.4882
X5.3543Y-3.5039
X5.3543Y-4.4882
T2
G00X5.3787Y-4.0209
M15
G01X5.4043Y-4.0209
M16
G05
G00X5.3787Y-4.326
M15
G01X5.4043Y-4.326
M16
G05
T3
G00X5.2311Y-4.0268
M15
G01X5.2528Y-4.0268
M16
G05
G00X5.2311Y-4.3201
M15
G01X5.2528Y-4.3201
M16
G05
M30
